# Blender 4.5.3 LTS
# www.blender.org
mtllib sword.mtl
o Cube
v -0.058386 -0.500000 0.013392
v 0.000000 0.500000 0.000000
v -0.058386 -0.500000 -0.013392
v 0.058386 -0.500000 0.013392
v 0.058386 -0.500000 -0.013392
v -0.064594 -0.297083 0.013392
v -0.069424 -0.226637 0.013392
v -0.068867 -0.098509 0.013392
v -0.062536 0.132181 0.012965
v -0.055158 0.287608 0.013392
v -0.055158 0.287608 -0.013392
v -0.062536 0.132181 -0.012965
v -0.068867 -0.098509 -0.013392
v -0.069424 -0.226637 -0.013392
v -0.064594 -0.297083 -0.013392
v 0.055158 0.287608 -0.013392
v 0.062536 0.132181 -0.012965
v 0.068867 -0.098509 -0.013392
v 0.069424 -0.226637 -0.013392
v 0.064594 -0.297083 -0.013392
v 0.055158 0.287608 0.013392
v 0.062536 0.132181 0.012965
v 0.068867 -0.098509 0.013392
v 0.069424 -0.226637 0.013392
v 0.064594 -0.297083 0.013392
v -0.207856 -0.272512 0.014086
v -0.207856 -0.203570 0.014086
v -0.207856 -0.203570 -0.014086
v -0.207856 -0.272512 -0.014086
v 0.207856 -0.203570 -0.014086
v 0.207856 -0.272512 -0.014086
v 0.207856 -0.203570 0.014086
v 0.207856 -0.272512 0.014086
v -0.064594 -0.418269 -0.013392
v 0.064594 -0.418269 -0.013392
v 0.064594 -0.418269 0.013392
v -0.064594 -0.418269 0.013392
vn -0.9679 0.2514 -0.0000
vn -0.0000 0.0629 -0.9980
vn 0.9679 0.2514 -0.0000
vn -0.0000 0.0629 0.9980
vn -0.0000 -1.0000 -0.0000
vn -0.0000 -0.0000 1.0000
vn -0.0000 0.0018 1.0000
vn -0.0000 -0.0027 1.0000
vn 1.0000 -0.0000 -0.0000
vn -0.1644 0.9864 -0.0000
vn 1.0000 0.0043 -0.0000
vn 0.9996 0.0274 -0.0000
vn 0.9989 0.0474 -0.0000
vn -0.0000 -0.0000 -1.0000
vn -0.0000 0.0018 -1.0000
vn -0.0000 -0.0027 -1.0000
vn -1.0000 -0.0000 -0.0000
vn -0.0050 0.0002 1.0000
vn -1.0000 0.0043 -0.0000
vn -0.9996 0.0274 -0.0000
vn -0.9989 0.0474 -0.0000
vn 0.0050 0.0002 1.0000
vn -0.0050 0.0002 -1.0000
vn -0.1690 -0.9856 -0.0000
vn 0.0050 0.0002 -1.0000
vn 0.1644 0.9864 -0.0000
vn 0.1690 -0.9856 -0.0000
vn -0.9971 -0.0757 -0.0000
vn 0.9971 -0.0757 -0.0000
vt 0.582532 0.000000
vt 0.625000 0.250000
vt 0.582532 0.250000
vt 0.625000 0.500000
vt 0.582532 0.500000
vt 0.625000 0.750000
vt 0.582532 0.750000
vt 0.625000 1.000000
vt 0.582532 1.000000
vt 0.125000 0.500000
vt 0.375000 0.500000
vt 0.375000 0.750000
vt 0.125000 0.750000
vt 0.395433 0.750000
vt 0.415865 0.750000
vt 0.415865 1.000000
vt 0.395433 1.000000
vt 0.457532 0.750000
vt 0.457532 1.000000
vt 0.499199 0.750000
vt 0.499199 1.000000
vt 0.540865 0.750000
vt 0.540865 1.000000
vt 0.395433 0.500000
vt 0.415865 0.500000
vt 0.457532 0.500000
vt 0.499199 0.500000
vt 0.540865 0.500000
vt 0.395433 0.250000
vt 0.415865 0.250000
vt 0.457532 0.250000
vt 0.499199 0.250000
vt 0.540865 0.250000
vt 0.395433 0.000000
vt 0.415865 0.000000
vt 0.457532 0.000000
vt 0.499199 0.000000
vt 0.540865 0.000000
vt 0.375000 0.000000
vt 0.375000 0.250000
vt 0.375000 1.000000
s 0
usemtl Material.001
f 10/1/1 2/2/1 11/3/1
f 11/3/2 2/4/2 16/5/2
f 16/5/3 2/6/3 21/7/3
f 21/7/4 2/8/4 10/9/4
f 24/18/6 23/20/6 8/21/6 7/19/6
f 23/20/7 22/22/7 9/23/7 8/21/7
f 22/22/8 21/7/8 10/9/8 9/23/8
f 19/26/11 18/27/11 23/20/11 24/18/11
f 18/27/12 17/28/12 22/22/12 23/20/12
f 17/28/13 16/5/13 21/7/13 22/22/13
f 14/31/14 13/32/14 18/27/14 19/26/14
f 13/32/15 12/33/15 17/28/15 18/27/15
f 12/33/16 11/3/16 16/5/16 17/28/16
f 7/36/19 8/37/19 13/32/19 14/31/19
f 8/37/20 9/38/20 12/33/20 13/32/20
f 9/38/21 10/1/21 11/3/21 12/33/21
usemtl Material.002
f 3/10/5 5/11/5 4/12/5 1/13/5
f 36/14/6 25/15/6 6/16/6 37/17/6
f 25/15/6 24/18/6 7/19/6 6/16/6
f 35/24/9 20/25/9 25/15/9 36/14/9
f 19/26/10 24/18/10 32/18/10 30/26/10
f 34/29/14 15/30/14 20/25/14 35/24/14
f 15/30/14 14/31/14 19/26/14 20/25/14
f 37/34/17 6/35/17 15/30/17 34/29/17
f 24/18/18 25/15/18 33/15/18 32/18/18
f 31/25/9 30/26/9 32/18/9 33/15/9
f 26/35/17 27/36/17 28/31/17 29/30/17
f 6/16/22 7/19/22 27/19/22 26/16/22
f 20/25/23 19/26/23 30/26/23 31/25/23
f 15/30/24 6/35/24 26/35/24 29/30/24
f 14/31/25 15/30/25 29/30/25 28/31/25
f 7/36/26 14/31/26 28/31/26 27/36/26
f 25/15/27 20/25/27 31/25/27 33/15/27
f 1/39/28 37/34/28 34/29/28 3/40/28
f 3/40/14 34/29/14 35/24/14 5/11/14
f 5/11/29 35/24/29 36/14/29 4/12/29
f 4/12/6 36/14/6 37/17/6 1/41/6
