# Blender 4.5.3 LTS
# www.blender.org
mtllib radio.mtl
o radio
v -0.087171 -0.117161 0.092604
v -0.070370 0.124660 0.057847
v -0.087171 -0.117161 -0.074607
v -0.070370 0.124660 -0.050541
v 0.090203 -0.117161 0.092604
v 0.073402 0.124660 0.057847
v 0.090203 -0.117161 -0.074607
v 0.073402 0.124660 -0.050541
v -0.087171 -0.062575 0.092604
v -0.087171 0.082326 0.092604
v -0.087171 0.082326 -0.074607
v -0.087171 -0.062575 -0.074607
v 0.090203 0.082326 -0.074607
v 0.090203 -0.062575 -0.074607
v 0.090203 0.082326 0.092604
v 0.090203 -0.062575 0.092604
v -0.087171 -0.035585 0.092604
v -0.087171 0.055336 0.092604
v -0.087171 0.055336 -0.074607
v -0.087171 -0.035585 -0.074607
v 0.090203 0.055336 -0.074607
v 0.090203 -0.035585 -0.074607
v 0.090203 0.055336 0.092604
v 0.090203 -0.035585 0.092604
v -0.087171 0.136912 0.092604
v -0.087171 0.136912 -0.074607
v 0.090203 0.136912 -0.074607
v 0.090203 0.136912 0.092604
v -0.073567 0.136912 0.062426
v -0.073567 0.136912 -0.055120
v 0.076599 0.136912 -0.055120
v 0.076599 0.136912 0.062426
v 0.047937 0.132393 0.038612
v 0.047937 0.156481 0.038612
v -0.042095 1.077665 0.021971
v -0.042095 0.126952 0.047627
v -0.054760 0.126952 0.040112
v -0.060006 0.126952 0.021971
v -0.054760 0.126952 0.003830
v -0.042095 0.126952 -0.003685
v -0.029430 0.126952 0.003830
v -0.024183 0.126952 0.021971
v -0.029430 0.126952 0.040112
v 0.039213 0.156481 0.033436
v 0.039213 0.132393 0.033436
v 0.035599 0.156481 0.020939
v 0.035599 0.132393 0.020939
v 0.039213 0.156481 0.008443
v 0.039213 0.132393 0.008443
v 0.047937 0.156481 0.003267
v 0.047937 0.132393 0.003267
v 0.056661 0.156481 0.008443
v 0.056661 0.132393 0.008443
v 0.060275 0.156481 0.020939
v 0.060275 0.132393 0.020939
v 0.056661 0.156481 0.033436
v 0.056661 0.132393 0.033436
v -0.042095 0.161922 0.043206
v -0.052577 0.161922 0.036986
v -0.056919 0.161922 0.021971
v -0.052577 0.161922 0.006956
v -0.042095 0.161922 0.000736
v -0.031612 0.161922 0.006956
v -0.027270 0.161922 0.021971
v -0.031612 0.161922 0.036986
v -0.042095 0.161922 0.032482
v -0.047283 0.161922 0.029403
v -0.049432 0.161922 0.021971
v -0.047283 0.161922 0.014539
v -0.042095 0.161922 0.011460
v -0.036906 0.161922 0.014539
v -0.034757 0.161922 0.021971
v -0.036906 0.161922 0.029403
v -0.042095 0.537777 0.028760
v -0.045446 0.537777 0.026772
v -0.046834 0.537777 0.021971
v -0.045446 0.537777 0.017170
v -0.042095 0.537777 0.015182
v -0.038743 0.537777 0.017170
v -0.037355 0.537777 0.021971
v -0.038743 0.537777 0.026772
vn -1.0000 -0.0000 -0.0000
vn 1.0000 -0.0000 -0.0000
vn -0.0000 -0.0000 1.0000
vn -0.0000 -1.0000 -0.0000
vn -0.0000 1.0000 -0.0000
vn 0.9676 0.2525 -0.0000
vn -0.0000 0.3501 0.9367
vn -0.9676 0.2525 -0.0000
vn -0.0000 0.3501 -0.9367
vn 0.5103 -0.0000 0.8600
vn -0.5073 0.1081 0.8550
vn 0.9606 -0.0000 0.2778
vn -0.9572 0.0845 0.2768
vn 0.9606 -0.0000 -0.2778
vn -0.9572 0.0845 -0.2768
vn 0.5103 -0.0000 -0.8600
vn -0.5073 0.1081 -0.8550
vn -0.5103 -0.0000 -0.8600
vn 0.5073 0.1081 -0.8550
vn -0.9606 -0.0000 -0.2778
vn 0.9572 0.0845 -0.2768
vn -0.5103 -0.0000 0.8600
vn -0.9606 -0.0000 0.2778
vn 0.9572 0.0845 0.2768
vn 0.5073 0.1081 0.8550
vn -0.5103 0.0085 0.8600
vn -0.9606 0.0066 0.2778
vn -0.9606 0.0066 -0.2778
vn -0.5103 0.0085 -0.8600
vn 0.5103 0.0085 -0.8600
vn 0.9606 0.0066 -0.2778
vn 0.9606 0.0066 0.2778
vn 0.5103 0.0085 0.8600
vn -0.5102 0.0108 0.8600
vn -0.9606 0.0084 0.2778
vn -0.9606 0.0084 -0.2778
vn -0.5102 0.0108 -0.8600
vn 0.5102 0.0108 -0.8600
vn 0.9606 0.0084 -0.2778
vn 0.9606 0.0084 0.2778
vn 0.5102 0.0108 0.8600
vt 0.571289 0.000000
vt 0.625000 0.000000
vt 0.625000 0.250000
vt 0.571289 0.250000
vt 0.571289 0.500000
vt 0.625000 0.500000
vt 0.625000 0.750000
vt 0.571289 0.750000
vt 0.625000 1.000000
vt 0.571289 1.000000
vt 0.125000 0.500000
vt 0.375000 0.500000
vt 0.375000 0.750000
vt 0.125000 0.750000
vt 0.648680 0.538439
vt 0.851320 0.538439
vt 0.851320 0.711561
vt 0.648680 0.711561
vt 0.428711 0.750000
vt 0.428711 1.000000
vt 0.375000 1.000000
vt 0.544732 0.750000
vt 0.544732 1.000000
vt 0.428711 0.500000
vt 0.544732 0.500000
vt 0.375000 0.000000
vt 0.428711 0.000000
vt 0.428711 0.250000
vt 0.375000 0.250000
vt 0.544732 0.000000
vt 0.544732 0.250000
vt 0.455268 0.000000
vt 0.455268 0.250000
vt 0.455268 0.500000
vt 0.455268 0.750000
vt 0.455268 1.000000
vt 0.855826 0.718875
vt 0.855826 0.531124
vt 0.875000 0.500000
vt 0.875000 0.750000
vt 0.644174 0.531125
vt 0.644174 0.718876
vt 0.000000 0.500000
vt 0.000000 1.000000
vt 0.125000 1.000000
vt 1.000000 0.500000
vt 0.875000 1.000000
vt 1.000000 1.000000
vt 0.250000 0.500000
vt 0.250000 1.000000
vt 0.750000 0.500000
vt 0.750000 1.000000
vt 0.500000 0.500000
vt 0.500000 1.000000
vt 0.750000 0.490000
vt 0.580294 0.419706
vt 0.510000 0.250000
vt 0.580294 0.080294
vt 0.750000 0.010000
vt 0.919706 0.080294
vt 0.990000 0.250000
vt 0.919706 0.419706
vt 0.750000 0.368791
vt 0.833998 0.333998
vt 0.868791 0.250000
vt 0.833998 0.166002
vt 0.750000 0.131209
vt 0.666002 0.166002
vt 0.631209 0.250000
vt 0.666002 0.333998
vt 0.750000 0.341229
vt 0.814508 0.314508
vt 0.841229 0.250000
vt 0.814509 0.185492
vt 0.750000 0.158771
vt 0.685492 0.185492
vt 0.658771 0.250000
vt 0.685492 0.314508
vt 0.772485 0.272485
vt 0.781799 0.250000
vt 0.772486 0.227514
vt 0.750000 0.218201
vt 0.727514 0.227514
vt 0.718201 0.250000
vt 0.727515 0.272485
vt 0.750000 0.281800
s 0
usemtl Material.061
f 10/1/1 25/2/1 26/3/1 11/4/1
f 13/5/2 27/6/2 28/7/2 15/8/2
f 15/8/3 28/7/3 25/9/3 10/10/3
f 3/11/4 7/12/4 5/13/4 1/14/4
f 8/15/5 4/16/5 2/17/5 6/18/5
f 5/13/3 16/19/3 9/20/3 1/21/3
f 7/12/2 14/24/2 16/19/2 5/13/2
f 1/26/1 9/27/1 12/28/1 3/29/1
f 17/32/1 18/30/1 19/31/1 20/33/1
f 22/34/2 21/25/2 23/22/2 24/35/2
f 24/35/3 23/22/3 18/23/3 17/36/3
f 29/37/5 30/38/5 26/39/5 25/40/5
f 30/38/5 31/41/5 27/6/5 26/39/5
f 31/41/5 32/42/5 28/7/5 27/6/5
f 32/42/5 29/37/5 25/40/5 28/7/5
f 2/17/6 4/16/6 30/38/6 29/37/6
f 4/16/7 8/15/7 31/41/7 30/38/7
f 8/15/8 6/18/8 32/42/8 31/41/8
f 6/18/9 2/17/9 29/37/9 32/42/9
f 56/11/10 34/43/10 33/44/10 57/45/10
f 58/46/11 59/39/11 37/47/11 36/48/11
f 54/49/12 56/11/12 57/45/12 55/50/12
f 59/39/13 60/51/13 38/52/13 37/47/13
f 52/12/14 54/49/14 55/50/14 53/21/14
f 60/51/15 61/6/15 39/9/15 38/52/15
f 50/53/16 52/12/16 53/21/16 51/54/16
f 61/6/17 62/53/17 40/54/17 39/9/17
f 48/6/18 50/53/18 51/54/18 49/9/18
f 62/53/19 63/12/19 41/21/19 40/54/19
f 46/51/20 48/6/20 49/9/20 47/52/20
f 63/12/21 64/49/21 42/50/21 41/21/21
f 34/46/22 44/39/22 45/47/22 33/48/22
f 44/39/23 46/51/23 47/52/23 45/47/23
f 64/49/24 65/11/24 43/45/24 42/50/24
f 34/55/5 56/56/5 54/57/5 52/58/5 50/59/5 48/60/5 46/61/5 44/62/5
f 65/11/25 58/43/25 36/44/25 43/45/25
f 66/63/5 67/64/5 59/62/5 58/55/5
f 67/64/5 68/65/5 60/61/5 59/62/5
f 68/65/5 69/66/5 61/60/5 60/61/5
f 69/66/5 70/67/5 62/59/5 61/60/5
f 70/67/5 71/68/5 63/58/5 62/59/5
f 71/68/5 72/69/5 64/57/5 63/58/5
f 72/69/5 73/70/5 65/56/5 64/57/5
f 73/70/5 66/63/5 58/55/5 65/56/5
f 74/71/26 75/72/26 67/64/26 66/63/26
f 75/72/27 76/73/27 68/65/27 67/64/27
f 76/73/28 77/74/28 69/66/28 68/65/28
f 77/74/29 78/75/29 70/67/29 69/66/29
f 78/75/30 79/76/30 71/68/30 70/67/30
f 79/76/31 80/77/31 72/69/31 71/68/31
f 80/77/32 81/78/32 73/70/32 72/69/32
f 81/78/33 74/71/33 66/63/33 73/70/33
f 35/79/34 75/72/34 74/71/34
f 35/80/35 76/73/35 75/72/35
f 35/81/36 77/74/36 76/73/36
f 35/82/37 78/75/37 77/74/37
f 35/83/38 79/76/38 78/75/38
f 35/84/39 80/77/39 79/76/39
f 35/85/40 81/78/40 80/77/40
f 35/86/41 74/71/41 81/78/41
usemtl Material.062
f 23/22/3 15/8/3 10/10/3 18/23/3
f 21/25/2 13/5/2 15/8/2 23/22/2
f 18/30/1 10/1/1 11/4/1 19/31/1
f 9/27/1 17/32/1 20/33/1 12/28/1
f 14/24/2 22/34/2 24/35/2 16/19/2
f 16/19/3 24/35/3 17/36/3 9/20/3
