# Blender 4.5.3 LTS
# www.blender.org
mtllib tent.mtl
o tent
v -0.091941 -0.001105 -0.035679
v 0.094814 -0.001105 -0.035679
v -0.091941 -0.017815 -0.031201
v 0.094814 -0.017815 -0.031201
v -0.091941 -0.030047 -0.018969
v 0.094814 -0.030047 -0.018969
v -0.091941 -0.034525 -0.002259
v 0.094814 -0.034525 -0.002259
v -0.091941 -0.030047 0.014451
v 0.094814 -0.030047 0.014451
v -0.091941 -0.017815 0.026684
v 0.094814 -0.017815 0.026684
v -0.091941 -0.001105 0.031161
v 0.094814 -0.001105 0.031161
v -0.091941 0.015605 0.026684
v 0.094814 0.015605 0.026684
v -0.091941 0.027838 0.014451
v 0.094814 0.027838 0.014451
v -0.091941 0.032315 -0.002259
v 0.094814 0.032315 -0.002259
v -0.091941 0.027838 -0.018969
v 0.094814 0.027838 -0.018969
v -0.091941 0.015605 -0.031201
v 0.094814 0.015605 -0.031201
v -0.102865 -0.001105 -0.044268
v -0.102865 -0.022110 -0.038640
v 0.105738 -0.022110 -0.038640
v 0.105738 -0.001105 -0.044268
v -0.102865 -0.037486 -0.023264
v 0.105738 -0.037486 -0.023264
v -0.102865 -0.043114 -0.002259
v 0.105738 -0.043114 -0.002259
v -0.102865 -0.037486 0.018746
v 0.105738 -0.037486 0.018746
v -0.102865 -0.022110 0.034122
v 0.105738 -0.022110 0.034122
v -0.102865 -0.001105 0.039751
v 0.105738 -0.001105 0.039751
v -0.102865 0.019900 0.034122
v 0.105738 0.019900 0.034122
v -0.102865 0.035276 0.018746
v 0.105738 0.035276 0.018746
v -0.102865 0.040904 -0.002259
v 0.105738 0.040904 -0.002259
v -0.102865 0.035276 -0.023264
v 0.105738 0.035276 -0.023264
v -0.102865 0.019900 -0.038640
v 0.105738 0.019900 -0.038640
v -0.057259 -0.001105 -0.044268
v 0.060132 -0.001105 -0.044268
v 0.060132 -0.043114 -0.002259
v -0.057259 -0.043114 -0.002259
v 0.060132 -0.037486 0.018746
v -0.057259 -0.037486 0.018746
v 0.060132 -0.022110 0.034122
v -0.057259 -0.022110 0.034122
v 0.060132 -0.001105 0.039751
v -0.057259 -0.001105 0.039751
v 0.060132 0.019900 0.034122
v -0.057259 0.019900 0.034122
v 0.060132 0.035276 0.018746
v -0.057259 0.035276 0.018746
v 0.060132 0.040904 -0.002259
v -0.057259 0.040904 -0.002259
v 0.060132 0.035276 -0.023264
v -0.057259 0.035276 -0.023264
v 0.060132 0.019900 -0.038640
v -0.057259 0.019900 -0.038640
v -0.038168 -0.001105 -0.044268
v 0.041041 -0.001105 -0.044268
v 0.041041 -0.043114 -0.002259
v -0.038168 -0.043114 -0.002259
v 0.041041 -0.037486 0.018746
v -0.038168 -0.037486 0.018746
v 0.041041 -0.022110 0.034122
v -0.038168 -0.022110 0.034122
v 0.041041 -0.001105 0.039751
v -0.038168 -0.001105 0.039751
v 0.041041 0.019900 0.034122
v -0.038168 0.019900 0.034122
v 0.041041 0.035276 0.018746
v -0.038168 0.035276 0.018746
v 0.041041 0.040904 -0.002259
v -0.038168 0.040904 -0.002259
v 0.041041 0.035276 -0.023264
v -0.038168 0.035276 -0.023264
v 0.041041 0.019900 -0.038640
v -0.038168 0.019900 -0.038640
vn -0.0000 -0.9659 0.2588
vn -0.0000 -0.7071 0.7071
vn -0.0000 -0.2588 0.9659
vn -0.0000 0.2588 0.9659
vn -0.0000 0.7071 0.7071
vn -0.0000 0.9659 0.2588
vn -0.0000 0.9659 -0.2588
vn 1.0000 -0.0000 -0.0000
vn -0.0000 0.7071 -0.7071
vn -0.0000 0.2588 -0.9659
vn -1.0000 -0.0000 -0.0000
vn -0.6048 0.2061 0.7692
vn 0.6048 0.2061 0.7692
vn -0.6048 0.5631 0.5631
vn 0.6048 0.5631 0.5631
vn -0.6048 0.7692 0.2061
vn 0.6048 0.7692 0.2061
vn -0.6048 0.7692 -0.2061
vn 0.6048 0.7692 -0.2061
vn -0.6048 0.5631 -0.5631
vn 0.6048 0.5631 -0.5631
vn -0.6048 0.2061 -0.7692
vn 0.6048 0.2061 -0.7692
vn -0.6048 -0.2061 -0.7692
vn 0.6048 -0.2061 -0.7692
vn -0.6048 -0.5631 -0.5631
vn 0.6048 -0.5631 -0.5631
vn -0.6048 -0.7692 -0.2061
vn 0.6048 -0.7692 -0.2061
vn -0.6048 -0.7692 0.2061
vn 0.6048 -0.7692 0.2061
vn -0.6048 -0.5631 0.5631
vn 0.6048 -0.5631 0.5631
vn -0.6048 -0.2061 0.7692
vn 0.6048 -0.2061 0.7692
vt 0.750000 0.890687
vt 0.750000 1.000000
vt 0.666667 1.000000
vt 0.666667 0.890687
vt 0.583333 1.000000
vt 0.583333 0.890687
vt 0.500000 1.000000
vt 0.500000 0.890687
vt 0.416667 1.000000
vt 0.416667 0.890687
vt 0.333333 1.000000
vt 0.333333 0.890687
vt 0.250000 1.000000
vt 0.250000 0.890687
vt 0.166667 1.000000
vt 0.166667 0.890687
vt 0.345464 0.415349
vt 0.250000 0.440928
vt 0.154536 0.415349
vt 0.084652 0.345464
vt 0.059072 0.250000
vt 0.084652 0.154536
vt 0.154536 0.084652
vt 0.250000 0.059072
vt 0.345464 0.084652
vt 0.415348 0.154536
vt 0.440928 0.250000
vt 0.415348 0.345464
vt 0.083333 1.000000
vt 0.083333 0.890687
vt 0.000000 1.000000
vt 0.000000 0.890687
vt 0.750000 0.440928
vt 0.845464 0.415349
vt 0.915349 0.345464
vt 0.940928 0.250000
vt 0.915349 0.154536
vt 0.845464 0.084652
vt 0.750000 0.059072
vt 0.654536 0.084652
vt 0.584651 0.154536
vt 0.559072 0.250000
vt 0.584652 0.345464
vt 0.654536 0.415349
vt 0.750000 0.490000
vt 0.870000 0.457846
vt 0.370000 0.457846
vt 0.250000 0.490000
vt 0.957846 0.370000
vt 0.457846 0.370000
vt 0.990000 0.250000
vt 0.490000 0.250000
vt 0.957846 0.130000
vt 0.457846 0.130000
vt 0.870000 0.042154
vt 0.370000 0.042154
vt 0.750000 0.010000
vt 0.250000 0.010000
vt 0.630000 0.042154
vt 0.130000 0.042154
vt 0.542154 0.130000
vt 0.042154 0.130000
vt 0.510000 0.250000
vt 0.010000 0.250000
vt 0.542154 0.370000
vt 0.042154 0.370000
vt 0.630000 0.457846
vt 0.130000 0.457846
vt 0.083333 0.500000
vt 0.083333 0.609313
vt 0.000000 0.609313
vt 0.000000 0.500000
vt 0.083333 0.844928
vt 0.000000 0.844928
vt 0.166667 0.500000
vt 0.166667 0.609313
vt 0.166667 0.844928
vt 0.250000 0.500000
vt 0.250000 0.609313
vt 0.250000 0.844928
vt 0.333333 0.500000
vt 0.333333 0.609313
vt 0.333333 0.844928
vt 0.416667 0.500000
vt 0.416667 0.609313
vt 0.416667 0.844928
vt 0.500000 0.500000
vt 0.500000 0.609313
vt 0.500000 0.844928
vt 0.583333 0.500000
vt 0.583333 0.609313
vt 0.583333 0.844928
vt 0.666667 0.500000
vt 0.666667 0.609313
vt 0.666667 0.844928
vt 0.750000 0.500000
vt 0.750000 0.609313
vt 0.750000 0.844928
vt 0.750000 0.655072
vt 0.666667 0.655072
vt 0.583333 0.655072
vt 0.500000 0.655072
vt 0.416667 0.655072
vt 0.333333 0.655072
vt 0.250000 0.655072
vt 0.166667 0.655072
vt 0.083333 0.655072
vt 0.000000 0.655072
s 0
usemtl Material.059
f 51/1/1 32/2/1 34/3/1 53/4/1
f 53/4/2 34/3/2 36/5/2 55/6/2
f 55/6/3 36/5/3 38/7/3 57/8/3
f 57/8/4 38/7/4 40/9/4 59/10/4
f 59/10/5 40/9/5 42/11/5 61/12/5
f 61/12/6 42/11/6 44/13/6 63/14/6
f 63/14/7 44/13/7 46/15/7 65/16/7
f 4/17/8 2/18/8 24/19/8 22/20/8 20/21/8 18/22/8 16/23/8 14/24/8 12/25/8 10/26/8 8/27/8 6/28/8
f 65/16/9 46/15/9 48/29/9 67/30/9
f 67/30/10 48/29/10 28/31/10 50/32/10
f 1/33/11 3/34/11 5/35/11 7/36/11 9/37/11 11/38/11 13/39/11 15/40/11 17/41/11 19/42/11 21/43/11 23/44/11
f 3/34/12 1/33/12 25/45/12 26/46/12
f 2/18/13 4/17/13 27/47/13 28/48/13
f 5/35/14 3/34/14 26/46/14 29/49/14
f 4/17/15 6/28/15 30/50/15 27/47/15
f 7/36/16 5/35/16 29/49/16 31/51/16
f 6/28/17 8/27/17 32/52/17 30/50/17
f 9/37/18 7/36/18 31/51/18 33/53/18
f 8/27/19 10/26/19 34/54/19 32/52/19
f 11/38/20 9/37/20 33/53/20 35/55/20
f 10/26/21 12/25/21 36/56/21 34/54/21
f 13/39/22 11/38/22 35/55/22 37/57/22
f 12/25/23 14/24/23 38/58/23 36/56/23
f 15/40/24 13/39/24 37/57/24 39/59/24
f 14/24/25 16/23/25 40/60/25 38/58/25
f 17/41/26 15/40/26 39/59/26 41/61/26
f 16/23/27 18/22/27 42/62/27 40/60/27
f 19/42/28 17/41/28 41/61/28 43/63/28
f 18/22/29 20/21/29 44/64/29 42/62/29
f 21/43/30 19/42/30 43/63/30 45/65/30
f 20/21/31 22/20/31 46/66/31 44/64/31
f 23/44/32 21/43/32 45/65/32 47/67/32
f 22/20/33 24/19/33 48/68/33 46/66/33
f 1/33/34 23/44/34 47/67/34 25/45/34
f 24/19/35 2/18/35 28/48/35 48/68/35
f 47/69/10 68/70/10 49/71/10 25/72/10
f 45/75/9 66/76/9 68/70/9 47/69/9
f 43/78/7 64/79/7 66/76/7 45/75/7
f 41/81/6 62/82/6 64/79/6 43/78/6
f 39/84/5 60/85/5 62/82/5 41/81/5
f 37/87/4 58/88/4 60/85/4 39/84/4
f 35/90/3 56/91/3 58/88/3 37/87/3
f 33/93/2 54/94/2 56/91/2 35/90/2
f 31/96/1 52/97/1 54/94/1 33/93/1
f 72/99/1 71/98/1 73/95/1 74/100/1
f 74/100/2 73/95/2 75/92/2 76/101/2
f 76/101/3 75/92/3 77/89/3 78/102/3
f 78/102/4 77/89/4 79/86/4 80/103/4
f 80/103/5 79/86/5 81/83/5 82/104/5
f 82/104/6 81/83/6 83/80/6 84/105/6
f 84/105/7 83/80/7 85/77/7 86/106/7
f 86/106/9 85/77/9 87/73/9 88/107/9
f 88/107/10 87/73/10 70/74/10 69/108/10
usemtl Material.060
f 87/73/10 67/30/10 50/32/10 70/74/10
f 85/77/9 65/16/9 67/30/9 87/73/9
f 83/80/7 63/14/7 65/16/7 85/77/7
f 81/83/6 61/12/6 63/14/6 83/80/6
f 79/86/5 59/10/5 61/12/5 81/83/5
f 77/89/4 57/8/4 59/10/4 79/86/4
f 75/92/3 55/6/3 57/8/3 77/89/3
f 73/95/2 53/4/2 55/6/2 75/92/2
f 71/98/1 51/1/1 53/4/1 73/95/1
f 52/97/1 72/99/1 74/100/1 54/94/1
f 54/94/2 74/100/2 76/101/2 56/91/2
f 56/91/3 76/101/3 78/102/3 58/88/3
f 58/88/4 78/102/4 80/103/4 60/85/4
f 60/85/5 80/103/5 82/104/5 62/82/5
f 62/82/6 82/104/6 84/105/6 64/79/6
f 64/79/7 84/105/7 86/106/7 66/76/7
f 66/76/9 86/106/9 88/107/9 68/70/9
f 68/70/10 88/107/10 69/108/10 49/71/10
