# Blender 4.5.3 LTS
# www.blender.org
mtllib body.mtl
o body
v -0.159138 -0.172702 0.054560
v -0.159138 0.142798 0.070027
v -0.159138 -0.160770 -0.168577
v -0.159138 0.144713 -0.168577
v 0.159138 -0.172702 0.054560
v 0.159138 0.142798 0.070027
v 0.159138 -0.160770 -0.168577
v 0.159138 0.144713 -0.168577
v 0.079569 -0.160770 -0.168577
v 0.000000 -0.160770 -0.168577
v -0.079569 -0.160770 -0.168577
v -0.079569 0.173880 -0.168577
v 0.000000 0.173880 -0.168577
v 0.079569 0.173880 -0.168577
v -0.079569 -0.172702 0.054560
v 0.000000 -0.172702 0.054560
v 0.079569 -0.172702 0.054560
v 0.079569 0.171671 0.072197
v 0.000000 0.171671 0.072197
v -0.079569 0.171671 0.072197
v -0.159138 -0.171818 0.012272
v -0.159138 0.170345 0.012272
v 0.159138 -0.171818 0.012272
v 0.159138 0.170345 0.012272
v 0.079569 0.211174 0.012272
v 0.000000 0.211174 0.012272
v -0.079569 0.211174 0.012272
v -0.159138 0.170345 -0.148396
v 0.159138 -0.171818 -0.148396
v -0.159138 -0.171818 -0.148396
v 0.159138 0.170345 -0.148396
v 0.079569 0.211174 -0.148396
v 0.000000 0.211174 -0.148396
v -0.079569 0.211174 -0.148396
vn -1.0000 -0.0000 -0.0000
vn -0.0000 -0.0000 -1.0000
vn 1.0000 -0.0000 -0.0000
vn -0.0045 -0.0501 0.9987
vn -0.3612 0.8102 0.4616
vn 0.3612 0.8102 0.4616
vn -0.0000 0.8349 0.5504
vn 0.0045 -0.0501 0.9987
vn -0.0000 -0.0511 0.9987
vn 0.4565 0.8897 -0.0000
vn -0.4565 0.8897 -0.0000
vn -0.2311 0.5253 -0.8189
vn 0.2311 0.5253 -0.8189
vn -0.0000 0.4759 -0.8795
vt 0.375000 0.228552
vt 0.625000 0.228552
vt 0.625000 0.250000
vt 0.375000 0.250000
vt 0.375000 0.437500
vt 0.625000 0.437500
vt 0.625000 0.500000
vt 0.375000 0.500000
vt 0.375000 0.678448
vt 0.625000 0.678448
vt 0.625000 0.750000
vt 0.375000 0.750000
vt 0.375000 0.937500
vt 0.625000 0.937500
vt 0.625000 1.000000
vt 0.375000 1.000000
vt 0.812500 0.678448
vt 0.875000 0.678448
vt 0.875000 0.750000
vt 0.812500 0.750000
vt 0.687500 0.678448
vt 0.687500 0.750000
vt 0.750000 0.678448
vt 0.750000 0.750000
vt 0.625000 0.812500
vt 0.375000 0.812500
vt 0.625000 0.875000
vt 0.375000 0.875000
vt 0.625000 0.312500
vt 0.375000 0.312500
vt 0.625000 0.375000
vt 0.375000 0.375000
vt 0.625000 0.521448
vt 0.687500 0.521448
vt 0.812500 0.521448
vt 0.875000 0.521448
vt 0.375000 0.521448
vt 0.375000 0.000000
vt 0.625000 0.000000
vt 0.625000 0.071552
vt 0.375000 0.071552
vt 0.812500 0.500000
vt 0.875000 0.500000
vt 0.687500 0.500000
vt 0.750000 0.500000
vt 0.750000 0.521448
s 0
usemtl Material.003
f 30/1/1 28/2/1 4/3/1 3/4/1
f 9/5/2 14/6/2 8/7/2 7/8/2
f 23/9/3 24/10/3 6/11/3 5/12/3
f 15/13/4 20/14/4 2/15/4 1/16/4
f 27/17/5 22/18/5 2/19/5 20/20/5
f 24/10/6 25/21/6 18/22/6 6/11/6
f 25/21/7 26/23/7 19/24/7 18/22/7
f 26/23/7 27/17/7 20/20/7 19/24/7
f 5/12/8 6/11/8 18/25/8 17/26/8
f 17/26/9 18/25/9 19/27/9 16/28/9
f 16/28/9 19/27/9 20/14/9 15/13/9
f 3/4/2 4/3/2 12/29/2 11/30/2
f 11/30/2 12/29/2 13/31/2 10/32/2
f 10/32/2 13/31/2 14/6/2 9/5/2
f 31/33/10 32/34/10 25/21/10 24/10/10
f 34/35/11 28/36/11 22/18/11 27/17/11
f 29/37/3 31/33/3 24/10/3 23/9/3
f 1/38/1 2/39/1 22/40/1 21/41/1
f 7/8/3 8/7/3 31/33/3 29/37/3
f 12/42/12 4/43/12 28/36/12 34/35/12
f 8/7/13 14/44/13 32/34/13 31/33/13
f 14/44/14 13/45/14 33/46/14 32/34/14
f 13/45/14 12/42/14 34/35/14 33/46/14
f 21/41/1 22/40/1 28/2/1 30/1/1
