# Blender 4.5.3 LTS
# www.blender.org
mtllib head.mtl
o head
v -0.050920 0.002762 0.034301
v -0.050920 0.001534 -0.080011
v 0.050920 0.002762 0.034301
v 0.050920 0.001534 -0.080011
v -0.050962 0.022489 0.046577
v -0.050962 0.022489 -0.080011
v 0.050962 0.022489 -0.080011
v 0.050962 0.022489 0.046577
v 0.045043 0.003170 -0.093587
v 0.029559 0.004940 -0.103344
v -0.000000 0.004940 -0.103344
v -0.029559 0.004940 -0.103344
v -0.045043 0.003170 -0.093587
v -0.045043 0.003929 0.042990
v -0.029559 0.005500 0.057916
v 0.000000 0.005500 0.057916
v 0.029559 0.005500 0.057916
v 0.045043 0.003929 0.042990
v 0.045081 0.023988 0.063222
v 0.029584 0.025889 0.077255
v -0.000000 0.025889 0.077255
v -0.029584 0.025889 0.077255
v -0.045081 0.023988 0.063222
v -0.045081 0.023988 -0.096656
v -0.029584 0.030799 -0.111324
v 0.000000 0.030799 -0.111324
v 0.029584 0.030799 -0.111324
v 0.045081 0.023988 -0.096656
v -0.064543 0.036373 0.049428
v -0.064543 0.036373 -0.082862
v 0.064543 0.036373 -0.082862
v 0.064543 0.036373 0.049428
v 0.055344 0.037758 0.064816
v 0.035482 0.039516 0.079031
v -0.000000 0.039516 0.079031
v -0.035482 0.039516 0.079031
v -0.055344 0.037758 0.064816
v -0.055344 0.037758 -0.098250
v -0.035482 0.048109 -0.114700
v 0.000000 0.048109 -0.114700
v 0.035482 0.048109 -0.114700
v 0.055344 0.037758 -0.098250
v -0.095012 0.106380 0.067028
v -0.095012 0.106380 -0.100462
v 0.095012 0.106380 -0.100462
v 0.095012 0.106380 0.067028
v 0.070904 0.107067 0.074658
v 0.030845 0.107939 0.084335
v -0.000000 0.087104 0.105692
v -0.030845 0.107939 0.084335
v -0.070904 0.107067 0.074658
v -0.070904 0.107067 -0.108092
v -0.040248 0.109044 -0.121083
v 0.000000 0.109044 -0.121083
v 0.040248 0.109044 -0.121083
v 0.070904 0.107067 -0.108092
v -0.091145 0.150077 0.077592
v -0.091145 0.152287 -0.113604
v 0.091145 0.152287 -0.113604
v 0.091145 0.150077 0.077592
v 0.061212 0.142700 0.080984
v 0.035734 0.143058 0.083245
v -0.000000 0.150685 0.084335
v -0.035734 0.143058 0.083245
v -0.061212 0.142700 0.080984
v -0.063710 0.152555 -0.116576
v -0.033724 0.152894 -0.120346
v 0.000000 0.152894 -0.120346
v 0.033724 0.152894 -0.120346
v 0.063710 0.152555 -0.116576
v -0.060535 0.203204 0.053352
v -0.060535 0.203204 -0.086786
v 0.060535 0.203204 -0.086786
v 0.060535 0.203204 0.053352
v 0.051677 0.203309 0.053772
v 0.026527 0.203442 0.055226
v -0.000000 0.203442 0.055226
v -0.026527 0.203442 0.055226
v -0.051677 0.203309 0.053772
v -0.051677 0.203309 -0.087206
v -0.026527 0.203442 -0.088660
v 0.000000 0.203442 -0.088660
v 0.026527 0.203442 -0.088660
v 0.051677 0.203309 -0.087206
v -0.050920 0.002233 -0.014946
v 0.050920 0.002233 -0.014946
v 0.050962 0.022489 -0.007959
v -0.050962 0.022489 -0.007959
v 0.064543 0.036373 -0.007564
v -0.064543 0.036373 -0.007564
v 0.095012 0.106380 -0.005129
v -0.095012 0.106380 -0.005129
v 0.091145 0.151029 -0.004778
v -0.091145 0.151029 -0.004778
v 0.060535 0.203204 -0.004837
v -0.060535 0.203204 -0.004837
v -0.093079 0.129334 -0.107033
v 0.093079 0.129334 -0.107033
v 0.093079 0.128229 0.072310
v 0.060576 0.130902 0.078037
v 0.035180 0.131334 0.084576
v -0.000000 0.125045 0.094380
v -0.035180 0.131334 0.084576
v -0.060576 0.130902 0.078037
v -0.067307 0.129811 -0.112334
v -0.036986 0.130969 -0.120715
v 0.000000 0.130969 -0.120715
v 0.036986 0.130969 -0.120715
v 0.067307 0.129811 -0.112334
v -0.093079 0.128229 0.072310
v -0.093079 0.128705 -0.004953
v 0.093079 0.128705 -0.004953
v -0.033724 0.150685 0.084335
v -0.063710 0.150345 0.080564
v 0.063710 0.150345 0.080564
v 0.033724 0.150685 0.084335
v 0.062966 0.128706 0.077611
v 0.032284 0.129312 0.084335
v -0.032284 0.129312 0.084335
v -0.062966 0.128706 0.077611
v -0.079777 0.071377 -0.091662
v 0.079777 0.071377 -0.091662
v 0.079777 0.071377 0.058228
v 0.063124 0.072413 0.069737
v 0.033164 0.073727 0.081683
v -0.000000 0.075701 0.091015
v -0.033164 0.073727 0.081683
v -0.063124 0.072413 0.069737
v -0.063124 0.072413 -0.103171
v -0.037865 0.078576 -0.117891
v 0.000000 0.078576 -0.117891
v 0.037865 0.078576 -0.117891
v 0.063124 0.072413 -0.103171
v -0.079777 0.071377 0.058228
v -0.079777 0.071377 -0.006346
v 0.079777 0.071377 -0.006346
v 0.027005 0.189786 -0.105214
v 0.052547 0.189653 -0.103737
v 0.000000 0.189786 -0.105214
v -0.027005 0.189786 -0.105214
v -0.052547 0.189653 -0.103737
v -0.077089 0.189548 -0.102573
v -0.027005 0.189786 0.071780
v -0.052547 0.189653 0.070303
v -0.000000 0.189786 0.071780
v 0.027005 0.189786 0.071780
v 0.052547 0.189653 0.070303
v 0.077089 0.189548 0.069139
v -0.077089 0.189548 0.069139
v 0.077089 0.189548 -0.004837
v 0.077089 0.189548 -0.102573
v -0.077089 0.189548 -0.004837
vn -0.8357 -0.3485 0.4245
vn 1.0000 -0.0021 -0.0000
vn 0.9306 -0.0286 -0.3650
vn -1.0000 -0.0021 -0.0000
vn -0.9306 -0.0286 -0.3650
vn -0.5751 -0.1892 -0.7959
vn -0.0000 -0.2948 -0.9555
vn 0.5751 -0.1892 -0.7959
vn 0.8357 -0.3485 0.4245
vn 0.5077 -0.6029 0.6154
vn -0.0000 -0.6882 0.7255
vn -0.5077 -0.6029 0.6154
vn 0.4982 -0.3834 -0.7776
vn -0.0000 -0.1914 -0.9815
vn -0.4982 -0.3834 -0.7776
vn -0.6719 -0.6394 -0.3739
vn -0.5429 -0.4104 0.7327
vn -0.0000 -0.1292 0.9916
vn 0.5429 -0.4104 0.7327
vn 0.6719 -0.6394 0.3739
vn -0.6719 -0.6394 0.3739
vn 0.7149 -0.6993 -0.0000
vn 0.6719 -0.6394 -0.3739
vn -0.7149 -0.6993 -0.0000
vn 0.4164 -0.1761 -0.8920
vn -0.0000 -0.1042 -0.9946
vn -0.4164 -0.1761 -0.8920
vn -0.3948 -0.3014 -0.8679
vn -0.2890 -0.1272 0.9488
vn -0.4819 -0.2897 0.8270
vn 0.4819 -0.2897 0.8270
vn 0.2890 -0.1272 0.9488
vn 0.3948 -0.3014 0.8679
vn -0.3948 -0.3014 0.8679
vn 0.9169 -0.3991 -0.0000
vn 0.3948 -0.3014 -0.8679
vn -0.9169 -0.3991 -0.0000
vn 0.1959 -0.0548 -0.9791
vn -0.0000 0.0168 -0.9999
vn -0.1959 -0.0548 -0.9791
vn -0.1473 -0.2108 -0.9664
vn -0.1688 -0.0760 0.9827
vn -0.1345 0.2031 0.9699
vn 0.1345 0.2031 0.9699
vn 0.1688 -0.0760 0.9827
vn 0.1377 -0.1807 0.9739
vn -0.1377 -0.1807 0.9739
vn 0.9962 0.0871 0.0008
vn 0.1473 -0.2108 -0.9664
vn -0.9964 0.0852 0.0008
vn 0.0905 0.3712 -0.9241
vn -0.0000 0.3795 -0.9252
vn -0.0905 0.3712 -0.9241
vn -0.0773 0.3284 -0.9414
vn -0.0923 0.2976 0.9502
vn -0.0000 0.3057 0.9521
vn 0.0923 0.2976 0.9502
vn 0.0785 0.2541 0.9640
vn -0.0785 0.2541 0.9640
vn 0.9407 0.3393 0.0021
vn 0.0773 0.3284 -0.9414
vn -0.9377 0.3475 0.0021
vn -0.0000 1.0000 -0.0000
vn -0.9407 0.3393 0.0021
vn 0.9377 0.3475 0.0021
vn -0.9962 0.0871 0.0008
vn 0.9964 0.0852 0.0008
vn 0.9964 0.0851 0.0003
vn -0.9962 0.0872 0.0003
vn -0.9964 0.0851 0.0003
vn 0.2418 -0.1956 -0.9504
vn 0.9962 0.0872 0.0003
vn -0.2273 -0.1311 0.9650
vn 0.2273 -0.1311 0.9650
vn 0.2251 -0.0329 0.9738
vn 0.3864 0.1637 0.9077
vn -0.3864 0.1637 0.9077
vn -0.2251 -0.0329 0.9738
vn -0.2418 -0.1956 -0.9504
vn -0.3292 -0.0313 -0.9438
vn 0.3292 -0.0313 -0.9438
vn -0.1074 -0.0470 0.9931
vn 0.1074 -0.0470 0.9931
vn 0.3556 -0.1766 0.9178
vn 0.2006 0.0273 0.9793
vn -0.2006 0.0273 0.9793
vn -0.3556 -0.1766 0.9178
vn 0.2233 -0.1783 0.9583
vn -0.2233 -0.1783 0.9583
vn 0.6597 -0.3491 -0.6655
vn -0.6597 -0.3491 0.6655
vn 0.6597 -0.3491 0.6655
vn 0.4543 -0.1329 0.8809
vn 0.1264 -0.1979 0.9720
vn -0.1264 -0.1979 0.9720
vn -0.4543 -0.1329 0.8809
vn -0.6597 -0.3491 -0.6655
vn -0.5120 -0.1844 -0.8389
vn 0.5120 -0.1844 -0.8389
vn 0.0408 0.7713 -0.6351
vn -0.0000 0.7714 -0.6364
vn -0.0408 0.7713 -0.6351
vn -0.0349 0.7725 -0.6340
vn -0.0408 0.7713 0.6351
vn -0.0000 0.7714 0.6364
vn 0.0408 0.7713 0.6351
vn 0.0349 0.7725 0.6340
vn -0.0349 0.7725 0.6340
vn 0.6364 0.7714 -0.0000
vn 0.0349 0.7725 -0.6340
vn -0.6364 0.7714 -0.0000
vt 0.375000 0.958333
vt 0.394841 0.958333
vt 0.394841 1.000000
vt 0.375000 1.000000
vt 0.375000 0.642297
vt 0.394841 0.642297
vt 0.394841 0.750000
vt 0.375000 0.750000
vt 0.375000 0.458333
vt 0.394841 0.458333
vt 0.394841 0.500000
vt 0.375000 0.500000
vt 0.375000 0.107703
vt 0.394841 0.107703
vt 0.394841 0.250000
vt 0.375000 0.250000
vt 0.394841 0.291667
vt 0.375000 0.291667
vt 0.394841 0.333333
vt 0.375000 0.333333
vt 0.394841 0.375000
vt 0.375000 0.375000
vt 0.394841 0.416667
vt 0.375000 0.416667
vt 0.394841 0.791667
vt 0.375000 0.791667
vt 0.394841 0.833333
vt 0.375000 0.833333
vt 0.394841 0.875000
vt 0.375000 0.875000
vt 0.394841 0.916667
vt 0.375000 0.916667
vt 0.412221 0.416667
vt 0.412221 0.458333
vt 0.412221 0.375000
vt 0.412221 0.333333
vt 0.412221 0.291667
vt 0.412221 0.250000
vt 0.412221 0.916667
vt 0.412221 0.958333
vt 0.412221 0.875000
vt 0.412221 0.833333
vt 0.412221 0.791667
vt 0.412221 0.750000
vt 0.412221 1.000000
vt 0.412221 0.642297
vt 0.412221 0.500000
vt 0.412221 0.107703
vt 0.465864 0.416667
vt 0.519506 0.416667
vt 0.519506 0.458333
vt 0.465864 0.458333
vt 0.465864 0.375000
vt 0.519506 0.375000
vt 0.465864 0.333333
vt 0.519506 0.333333
vt 0.465863 0.291667
vt 0.519506 0.291667
vt 0.465864 0.250000
vt 0.519506 0.250000
vt 0.465864 0.916667
vt 0.519506 0.916667
vt 0.519506 0.958333
vt 0.465864 0.958333
vt 0.465863 0.875000
vt 0.519506 0.875000
vt 0.465863 0.833333
vt 0.519506 0.833333
vt 0.465864 0.791667
vt 0.519506 0.791667
vt 0.465863 0.750000
vt 0.519506 0.750000
vt 0.519506 1.000000
vt 0.465863 1.000000
vt 0.465864 0.642297
vt 0.519506 0.642297
vt 0.519506 0.500000
vt 0.465863 0.500000
vt 0.465863 0.107703
vt 0.519506 0.107703
vt 0.551702 0.416667
vt 0.583899 0.416667
vt 0.583899 0.458333
vt 0.551702 0.458333
vt 0.551703 0.375000
vt 0.583899 0.375000
vt 0.551703 0.333333
vt 0.583899 0.333333
vt 0.551702 0.291667
vt 0.583899 0.291667
vt 0.551703 0.250000
vt 0.583899 0.250000
vt 0.562076 0.925983
vt 0.573523 0.926087
vt 0.573633 0.948919
vt 0.561967 0.949023
vt 0.551703 0.875000
vt 0.583899 0.875000
vt 0.583899 0.916667
vt 0.551702 0.916667
vt 0.551703 0.833333
vt 0.583899 0.833333
vt 0.561967 0.800977
vt 0.573633 0.801081
vt 0.573523 0.823913
vt 0.562076 0.824017
vt 0.551703 0.750000
vt 0.583899 0.750000
vt 0.583899 0.791667
vt 0.551703 0.791667
vt 0.551702 0.958333
vt 0.583899 0.958333
vt 0.583899 1.000000
vt 0.551702 1.000000
vt 0.551703 0.642297
vt 0.583899 0.642297
vt 0.583899 0.500000
vt 0.551702 0.500000
vt 0.551702 0.107703
vt 0.583899 0.107703
vt 0.608905 0.416667
vt 0.608905 0.458333
vt 0.608905 0.375000
vt 0.608905 0.333333
vt 0.608905 0.291667
vt 0.608905 0.250000
vt 0.608905 0.916667
vt 0.608905 0.958333
vt 0.608905 0.875000
vt 0.608905 0.833333
vt 0.608905 0.791667
vt 0.608905 0.750000
vt 0.608905 1.000000
vt 0.608905 0.642297
vt 0.608905 0.500000
vt 0.608905 0.107703
vt 0.608905 0.435021
vt 0.608905 0.390443
vt 0.608905 0.343747
vt 0.608905 0.294914
vt 0.608905 0.275015
vt 0.608905 0.213853
vt 0.608905 0.353084
vt 0.608905 0.528602
vt 0.608905 0.737002
vt 0.608905 0.761672
vt 0.608905 0.752700
vt 0.608905 0.731071
vt 0.608905 0.724969
vt 0.608905 0.616250
vt 0.608905 0.494168
vt 0.608905 0.478657
vt 0.583899 0.000000
vt 0.608905 0.000000
vt 0.551702 0.000000
vt 0.465863 0.000000
vt 0.519506 0.000000
vt 0.394841 0.000000
vt 0.412221 0.000000
vt 0.375000 0.000000
s 0
usemtl Material.004
f 14/1/1 23/2/1 5/3/1 1/4/1
f 86/5/2 87/6/2 8/7/2 3/8/2
f 9/9/3 28/10/3 7/11/3 4/12/3
f 85/13/4 88/14/4 6/15/4 2/16/4
f 2/16/5 6/15/5 24/17/5 13/18/5
f 13/18/6 24/17/6 25/19/6 12/20/6
f 12/20/7 25/19/7 26/21/7 11/22/7
f 11/22/7 26/21/7 27/23/7 10/24/7
f 10/24/8 27/23/8 28/10/8 9/9/8
f 3/8/9 8/7/9 19/25/9 18/26/9
f 18/26/10 19/25/10 20/27/10 17/28/10
f 17/28/11 20/27/11 21/29/11 16/30/11
f 16/30/11 21/29/11 22/31/11 15/32/11
f 15/32/12 22/31/12 23/2/12 14/1/12
f 27/23/13 41/33/13 42/34/13 28/10/13
f 26/21/14 40/35/14 41/33/14 27/23/14
f 25/19/14 39/36/14 40/35/14 26/21/14
f 24/17/15 38/37/15 39/36/15 25/19/15
f 6/15/16 30/38/16 38/37/16 24/17/16
f 22/31/17 36/39/17 37/40/17 23/2/17
f 21/29/18 35/41/18 36/39/18 22/31/18
f 20/27/18 34/42/18 35/41/18 21/29/18
f 19/25/19 33/43/19 34/42/19 20/27/19
f 8/7/20 32/44/20 33/43/20 19/25/20
f 23/2/21 37/40/21 29/45/21 5/3/21
f 87/6/22 89/46/22 32/44/22 8/7/22
f 28/10/23 42/34/23 31/47/23 7/11/23
f 88/14/24 90/48/24 30/38/24 6/15/24
f 127/61/29 50/62/29 51/63/29 128/64/29
f 126/65/30 49/66/30 50/62/30 127/61/30
f 125/67/31 48/68/31 49/66/31 126/65/31
f 124/69/32 47/70/32 48/68/32 125/67/32
f 123/71/33 46/72/33 47/70/33 124/69/33
f 128/64/34 51/63/34 43/73/34 134/74/34
f 136/75/35 91/76/35 46/72/35 123/71/35
f 102/97/43 63/98/43 113/99/43 119/100/43
f 118/101/44 116/102/44 63/98/44 102/97/44
f 99/107/46 60/108/46 115/109/46 117/110/46
f 120/111/47 114/112/47 57/113/47 110/114/47
f 112/115/48 93/116/48 60/108/48 99/107/48
f 110/155/66 57/153/66 94/120/66 111/119/66
f 134/156/37 43/157/37 92/80/37 135/79/37
f 5/158/24 29/159/24 90/48/24 88/14/24
f 7/11/22 31/47/22 89/46/22 87/6/22
f 1/160/4 5/158/4 88/14/4 85/13/4
f 4/12/2 7/11/2 87/6/2 86/5/2
f 43/157/69 110/155/69 111/119/69 92/80/69
f 91/76/72 112/115/72 99/107/72 46/72/72
f 51/63/73 120/111/73 110/114/73 43/73/73
f 46/72/74 99/107/74 117/110/74 47/70/74
f 47/70/75 117/110/75 118/101/75 48/68/75
f 48/68/76 118/101/76 102/97/76 49/66/76
f 49/66/77 102/97/77 119/100/77 50/62/77
f 50/62/78 119/100/78 120/111/78 51/63/78
f 65/95/82 64/94/82 113/99/82 114/112/82
f 62/105/83 61/104/83 115/109/83 116/102/83
f 61/104/84 100/103/84 117/110/84 115/109/84
f 101/106/85 62/105/85 116/102/85 118/101/85
f 64/94/86 103/93/86 119/100/86 113/99/86
f 104/96/87 65/95/87 114/112/87 120/111/87
f 100/103/88 101/106/88 118/101/88 117/110/88
f 103/93/89 104/96/89 120/111/89 119/100/89
f 29/159/37 134/156/37 135/79/37 90/48/37
f 89/46/35 136/75/35 123/71/35 32/44/35
f 37/40/91 128/64/91 134/74/91 29/45/91
f 32/44/92 123/71/92 124/69/92 33/43/92
f 33/43/93 124/69/93 125/67/93 34/42/93
f 34/42/94 125/67/94 126/65/94 35/41/94
f 35/41/95 126/65/95 127/61/95 36/39/95
f 36/39/96 127/61/96 128/64/96 37/40/96
usemtl Material.005
f 132/49/25 55/50/25 56/51/25 133/52/25
f 131/53/26 54/54/26 55/50/26 132/49/26
f 130/55/26 53/56/26 54/54/26 131/53/26
f 129/57/27 52/58/27 53/56/27 130/55/27
f 121/59/28 44/60/28 52/58/28 129/57/28
f 133/52/36 56/51/36 45/77/36 122/78/36
f 135/79/37 92/80/37 44/60/37 121/59/37
f 108/81/38 69/82/38 70/83/38 109/84/38
f 107/85/39 68/86/39 69/82/39 108/81/39
f 106/87/39 67/88/39 68/86/39 107/85/39
f 105/89/40 66/90/40 67/88/40 106/87/40
f 97/91/41 58/92/41 66/90/41 105/89/41
f 103/93/42 64/94/42 65/95/42 104/96/42
f 100/103/45 61/104/45 62/105/45 101/106/45
f 109/84/49 70/83/49 59/117/49 98/118/49
f 111/119/50 94/120/50 58/92/50 97/91/50
f 69/82/51 137/121/51 138/122/51 70/83/51
f 68/86/52 139/123/52 137/121/52 69/82/52
f 67/88/52 140/124/52 139/123/52 68/86/52
f 66/90/53 141/125/53 140/124/53 67/88/53
f 58/92/54 142/126/54 141/125/54 66/90/54
f 113/99/55 143/127/55 144/128/55 114/112/55
f 63/98/56 145/129/56 143/127/56 113/99/56
f 116/102/56 146/130/56 145/129/56 63/98/56
f 115/109/57 147/131/57 146/130/57 116/102/57
f 60/108/58 148/132/58 147/131/58 115/109/58
f 114/112/59 144/128/59 149/133/59 57/113/59
f 93/116/60 150/134/60 148/132/60 60/108/60
f 70/83/61 138/122/61 151/135/61 59/117/61
f 94/120/62 152/136/62 142/126/62 58/92/62
f 83/137/63 82/138/63 81/139/63 80/140/63 72/141/63 96/142/63 71/143/63 79/144/63 78/145/63 77/146/63 76/147/63 75/148/63 74/149/63 95/150/63 73/151/63 84/152/63
f 57/153/64 149/154/64 152/136/64 94/120/64
f 59/117/65 151/135/65 150/134/65 93/116/65
f 98/118/67 59/117/67 93/116/67 112/115/67
f 122/78/35 45/77/35 91/76/35 136/75/35
f 45/77/68 98/118/68 112/115/68 91/76/68
f 92/80/70 111/119/70 97/91/70 44/60/70
f 56/51/71 109/84/71 98/118/71 45/77/71
f 44/60/79 97/91/79 105/89/79 52/58/79
f 52/58/80 105/89/80 106/87/80 53/56/80
f 53/56/39 106/87/39 107/85/39 54/54/39
f 54/54/39 107/85/39 108/81/39 55/50/39
f 55/50/81 108/81/81 109/84/81 56/51/81
f 31/47/35 122/78/35 136/75/35 89/46/35
f 90/48/37 135/79/37 121/59/37 30/38/37
f 42/34/90 133/52/90 122/78/90 31/47/90
f 30/38/97 121/59/97 129/57/97 38/37/97
f 38/37/98 129/57/98 130/55/98 39/36/98
f 39/36/26 130/55/26 131/53/26 40/35/26
f 40/35/26 131/53/26 132/49/26 41/33/26
f 41/33/99 132/49/99 133/52/99 42/34/99
f 83/137/100 84/152/100 138/122/100 137/121/100
f 82/138/101 83/137/101 137/121/101 139/123/101
f 81/139/101 82/138/101 139/123/101 140/124/101
f 80/140/102 81/139/102 140/124/102 141/125/102
f 72/141/103 80/140/103 141/125/103 142/126/103
f 78/145/104 79/144/104 144/128/104 143/127/104
f 77/146/105 78/145/105 143/127/105 145/129/105
f 76/147/105 77/146/105 145/129/105 146/130/105
f 75/148/106 76/147/106 146/130/106 147/131/106
f 74/149/107 75/148/107 147/131/107 148/132/107
f 79/144/108 71/143/108 149/154/108 144/128/108
f 95/150/109 74/149/109 148/132/109 150/134/109
f 84/152/110 73/151/110 151/135/110 138/122/110
f 96/142/111 72/141/111 142/126/111 152/136/111
f 73/151/109 95/150/109 150/134/109 151/135/109
f 71/143/111 96/142/111 152/136/111 149/154/111
