# Blender 4.5.3 LTS
# www.blender.org
mtllib ll.mtl
o l_leg
v 0.039696 -0.143330 -0.048214
v 0.106739 -0.142901 -0.047907
v 0.106739 -0.141367 0.015329
v 0.039696 -0.141795 0.015022
v 0.003927 -0.080894 0.038125
v 0.003927 -0.077801 -0.064152
v 0.117289 -0.069699 -0.064152
v 0.117289 -0.072792 0.038125
v 0.096297 -0.000103 -0.084922
v 0.105872 -0.200550 -0.045026
v 0.096297 -0.000103 0.038125
v 0.105872 -0.201777 0.047332
v 0.002454 -0.000103 -0.084922
v 0.041122 -0.200918 -0.045026
v 0.002454 -0.000103 0.038125
v 0.041122 -0.202146 0.047332
v 0.040409 -0.171024 0.047980
v 0.106305 -0.170626 0.048133
v 0.106305 -0.171086 -0.043679
v 0.040409 -0.171484 -0.043832
vn -0.0069 0.7472 0.6646
vn 0.9999 -0.0150 0.0002
vn 0.0044 -0.1510 -0.9885
vn -0.9997 -0.0246 0.0003
vn 0.0141 -0.3317 0.9433
vn 0.9891 -0.1471 -0.0014
vn 0.0122 -0.2239 -0.9745
vn -0.8704 -0.4923 -0.0046
vn -0.0000 -0.0000 1.0000
vn 0.9590 0.2835 0.0039
vn 0.0106 -0.2699 -0.9628
vn -0.9998 -0.0186 -0.0003
vn -0.9997 -0.0235 -0.0001
vn 0.0009 0.0431 -0.9991
vn 0.9999 -0.0143 -0.0001
vn -0.0010 -0.0233 0.9997
vt 0.413214 0.500000
vt 0.451428 0.500000
vt 0.451428 0.750000
vt 0.413214 0.750000
vt 0.451428 0.750000
vt 0.451428 1.000000
vt 0.413214 1.000000
vt 0.163214 0.500000
vt 0.201428 0.500000
vt 0.201428 0.750000
vt 0.163214 0.750000
vt 0.663214 0.500000
vt 0.701428 0.500000
vt 0.701428 0.750000
vt 0.663214 0.750000
vt 0.518779 0.500000
vt 0.518779 0.750000
vt 0.518779 1.000000
vt 0.268779 0.500000
vt 0.268779 0.750000
vt 0.768779 0.500000
vt 0.768779 0.750000
vt 0.625000 0.500000
vt 0.625000 0.750000
vt 0.625000 1.000000
vt 0.375000 0.500000
vt 0.375000 0.750000
vt 0.875000 0.500000
vt 0.875000 0.750000
vt 0.125000 0.500000
vt 0.125000 0.750000
vt 0.375000 1.000000
s 0
usemtl Material.010
f 3/2/5 8/16/5 5/17/5 4/3/5
f 2/5/6 7/17/6 8/18/6 3/6/6
f 1/9/7 6/19/7 7/20/7 2/10/7
f 4/13/8 5/21/8 6/22/8 1/14/8
f 8/16/9 11/23/9 15/24/9 5/17/9
f 7/17/10 9/24/10 11/25/10 8/18/10
f 6/19/11 13/26/11 9/27/11 7/20/11
f 5/21/12 15/28/12 13/29/12 6/22/12
usemtl Material.011
f 18/1/1 3/2/1 4/3/1 17/4/1
f 19/4/2 2/5/2 3/6/2 18/7/2
f 20/8/3 1/9/3 2/10/3 19/11/3
f 17/12/4 4/13/4 1/14/4 20/15/4
f 16/23/13 17/12/13 20/15/13 14/24/13
f 14/30/14 20/8/14 19/11/14 10/31/14
f 10/27/15 19/4/15 18/7/15 12/32/15
f 12/26/16 18/1/16 17/4/16 16/27/16
