# Blender 4.5.3 LTS
# www.blender.org
mtllib rocket.mtl
o rocket
v 0.151019 0.006513 -0.007330
v 0.151019 0.001701 -0.010108
v 0.151019 -0.003855 -0.010108
v 0.151019 -0.008667 -0.007330
v 0.151019 -0.011445 -0.002519
v 0.151019 -0.011445 0.003037
v 0.151019 -0.008667 0.007849
v 0.151019 -0.003855 0.010627
v 0.151019 0.001701 0.010627
v 0.151019 0.006513 0.007849
v 0.151019 0.009291 0.003037
v 0.151019 0.009291 -0.002519
v -0.165973 0.013683 -0.014500
v -0.165973 0.004326 -0.019903
v -0.165973 -0.006479 -0.019903
v -0.165973 -0.015837 -0.014500
v -0.165973 -0.015837 0.015019
v -0.165973 -0.006479 0.020422
v -0.165973 0.004326 0.020422
v -0.165973 0.013683 0.015019
v -0.165973 0.019085 0.005662
v -0.165973 0.019085 -0.005143
v -0.010153 0.032464 -0.033282
v -0.010153 0.011200 -0.045558
v -0.010153 -0.013354 -0.045558
v -0.010153 -0.034618 -0.033282
v -0.010153 -0.046895 -0.012017
v -0.010153 -0.046895 0.012536
v -0.010153 -0.034618 0.033800
v -0.010153 -0.013354 0.046077
v -0.010153 0.011200 0.046077
v -0.010153 0.032464 0.033800
v -0.010153 0.044741 0.012536
v -0.010153 0.044741 -0.012017
v 0.129441 0.006513 -0.007330
v 0.129441 0.001701 -0.010108
v 0.129441 -0.003855 -0.010108
v 0.129441 -0.008667 -0.007330
v 0.129441 -0.011445 -0.002519
v 0.129441 -0.011445 0.003037
v 0.129441 -0.008667 0.007849
v 0.129441 -0.003855 0.010627
v 0.129441 0.001701 0.010627
v 0.129441 0.006513 0.007849
v 0.129441 0.009291 0.003037
v 0.129441 0.009291 -0.002519
v -0.165973 -0.021239 -0.005143
v -0.165973 -0.021239 0.005662
v 0.003699 0.011324 -0.046023
v 0.003699 -0.013478 -0.046023
v 0.003699 -0.034958 -0.033622
v 0.003699 -0.047359 -0.012142
v 0.003699 -0.047359 0.012661
v 0.003699 -0.034958 0.034141
v 0.003699 -0.013478 0.046542
v 0.003699 0.011324 0.046542
v 0.003699 0.032804 0.034141
v 0.003699 0.045206 0.012661
v 0.003699 0.045206 -0.012142
v 0.003699 0.032804 -0.033622
v -0.117177 0.004271 -0.019700
v -0.117177 -0.006425 -0.019700
v -0.117177 -0.015688 -0.014352
v -0.117177 -0.021037 -0.005089
v -0.117177 -0.021037 0.005608
v -0.117177 -0.015688 0.014871
v -0.117177 -0.006425 0.020219
v -0.117177 0.004271 0.020219
v -0.117177 0.013535 0.014871
v -0.117177 0.018883 0.005608
v -0.117177 0.018883 -0.005089
v -0.117177 0.013535 -0.014352
v -0.145397 -0.001077 -0.071713
v -0.193512 -0.001077 -0.072443
v -0.140951 -0.073322 0.000259
v -0.202931 -0.074055 0.000259
v -0.145397 -0.001077 0.072232
v -0.193512 -0.001077 0.072962
v -0.140951 0.071168 0.000259
v -0.202931 0.071901 0.000259
vn -0.0000 0.5000 -0.8660
vn -0.0000 -0.0000 -1.0000
vn -0.0000 -0.5000 -0.8660
vn -0.0000 -0.8660 -0.5000
vn -0.0000 -1.0000 -0.0000
vn -0.0000 -0.8660 0.5000
vn -0.0000 -0.5000 0.8660
vn -0.0000 -0.0000 1.0000
vn -0.0000 0.5000 0.8660
vn -0.0000 0.8660 0.5000
vn 1.0000 -0.0000 -0.0000
vn -0.0000 1.0000 -0.0000
vn -0.0000 0.8660 -0.5000
vn -0.0335 0.4997 -0.8655
vn -0.2349 0.8418 -0.4860
vn -0.2349 0.9720 -0.0000
vn -0.2349 0.8418 0.4860
vn -0.2349 0.4860 0.8418
vn -0.2349 -0.0000 0.9720
vn -0.2349 -0.4860 0.8418
vn -0.2349 -0.8418 0.4860
vn -0.2349 -0.9720 -0.0000
vn -0.2349 -0.8418 -0.4860
vn -0.2349 -0.4860 -0.8418
vn -0.2349 -0.0000 -0.9720
vn -0.2349 0.4860 -0.8418
vn 0.2746 0.8327 -0.4808
vn 0.2746 0.9615 -0.0000
vn 0.2746 0.8327 0.4808
vn 0.2746 0.4808 0.8327
vn 0.2746 -0.0000 0.9615
vn 0.2746 -0.4808 0.8327
vn 0.2746 -0.8327 0.4808
vn 0.2746 -0.9615 -0.0000
vn 0.2746 -0.8327 -0.4808
vn 0.2746 -0.4808 -0.8327
vn 0.2746 -0.0000 -0.9615
vn 0.2746 0.4808 -0.8327
vn -0.0335 -0.0000 -0.9994
vn -0.0335 -0.4997 -0.8655
vn -0.0335 -0.8655 -0.4997
vn -0.0335 -0.9994 -0.0000
vn -0.0335 -0.8655 0.4997
vn -0.0335 -0.4997 0.8655
vn -0.0335 -0.0000 0.9994
vn -0.0335 0.4997 0.8655
vn -0.0335 0.8655 0.4997
vn -0.0335 0.9994 -0.0000
vn -0.0335 0.8655 -0.4997
vn 0.0042 0.5000 -0.8660
vn 0.0015 0.9947 0.1031
vn 0.0042 -0.5000 -0.8660
vn 0.0042 -0.8660 -0.5000
vn -0.8857 -0.0000 0.4642
vn 0.0042 -0.8660 0.5000
vn 0.0042 -0.5000 0.8660
vn 0.0015 -0.9947 0.1031
vn 0.0042 0.5000 0.8660
vn 0.0042 0.8660 0.5000
vn 0.9103 0.4139 -0.0000
vn 0.0042 0.8660 -0.5000
vn 0.9103 -0.4139 -0.0000
vn 0.0015 0.9947 -0.1031
vn -0.8857 -0.0000 -0.4642
vn 0.0015 -0.9947 -0.1031
vn 0.0014 0.1025 0.9947
vn 0.0014 0.1025 -0.9947
vn 0.8790 -0.0000 0.4769
vn 0.0014 -0.1025 -0.9947
vn -0.8193 0.5733 -0.0000
vn 0.0014 -0.1025 0.9947
vn 0.8790 -0.0000 -0.4769
vn -0.8193 -0.5733 -0.0000
vt 1.000000 0.988409
vt 1.000000 1.000000
vt 0.916667 1.000000
vt 0.916667 0.988409
vt 0.833333 1.000000
vt 0.833333 0.988409
vt 0.750000 1.000000
vt 0.750000 0.988409
vt 0.666667 1.000000
vt 0.666667 0.988409
vt 0.583333 1.000000
vt 0.583333 0.988409
vt 0.500000 1.000000
vt 0.500000 0.988409
vt 0.416667 1.000000
vt 0.416667 0.988409
vt 0.333333 1.000000
vt 0.333333 0.988409
vt 0.250000 1.000000
vt 0.250000 0.988409
vt 0.166667 1.000000
vt 0.166667 0.988409
vt 0.370000 0.457846
vt 0.250000 0.490000
vt 0.130000 0.457846
vt 0.042154 0.370000
vt 0.010000 0.250000
vt 0.042154 0.130000
vt 0.130000 0.042154
vt 0.250000 0.010000
vt 0.370000 0.042154
vt 0.457846 0.130000
vt 0.490000 0.250000
vt 0.457846 0.370000
vt 0.083333 1.000000
vt 0.083333 0.988409
vt 0.000000 1.000000
vt 0.000000 0.988409
vt 1.000000 0.935363
vt 1.000000 0.940454
vt 0.916667 0.940454
vt 0.916667 0.935363
vt 0.083333 0.894312
vt 0.083333 0.935363
vt 0.000000 0.935363
vt 0.000000 0.894312
vt 0.166667 0.894312
vt 0.166667 0.935363
vt 0.250000 0.894312
vt 0.250000 0.935363
vt 0.333333 0.894312
vt 0.333333 0.935363
vt 0.416667 0.894312
vt 0.416667 0.935363
vt 0.500000 0.894312
vt 0.500000 0.935363
vt 0.583333 0.894312
vt 0.583333 0.935363
vt 0.666667 0.894312
vt 0.666667 0.935363
vt 0.750000 0.894312
vt 0.750000 0.935363
vt 0.833333 0.894312
vt 0.833333 0.935363
vt 0.916667 0.894312
vt 1.000000 0.894312
vt 0.083333 0.940454
vt 0.000000 0.940454
vt 0.166667 0.940454
vt 0.250000 0.940454
vt 0.333333 0.940454
vt 0.416667 0.940454
vt 0.500000 0.940454
vt 0.583333 0.940454
vt 0.666667 0.940454
vt 0.750000 0.940454
vt 0.833333 0.940455
vt 1.000000 0.891454
vt 0.916667 0.891454
vt 0.333333 0.891454
vt 0.833333 0.891454
vt 0.750000 0.891454
vt 0.666667 0.891454
vt 0.000000 0.000000
vt 0.583333 0.891454
vt 0.500000 0.891454
vt 0.416667 0.891454
vt 0.250000 0.891454
vt 0.166667 0.891454
vt 0.083333 0.891454
vt 0.000000 0.891454
s 0
usemtl Material.122
f 35/1/1 1/2/1 2/3/1 36/4/1
f 36/4/2 2/3/2 3/5/2 37/6/2
f 37/6/3 3/5/3 4/7/3 38/8/3
f 38/8/4 4/7/4 5/9/4 39/10/4
f 39/10/5 5/9/5 6/11/5 40/12/5
f 40/12/6 6/11/6 7/13/6 41/14/6
f 41/14/7 7/13/7 8/15/7 42/16/7
f 42/16/8 8/15/8 9/17/8 43/18/8
f 43/18/9 9/17/9 10/19/9 44/20/9
f 44/20/10 10/19/10 11/21/10 45/22/10
f 2/23/11 1/24/11 12/25/11 11/26/11 10/27/11 9/28/11 8/29/11 7/30/11 6/31/11 5/32/11 4/33/11 3/34/11
f 45/22/12 11/21/12 12/35/12 46/36/12
f 46/36/13 12/35/13 1/37/13 35/38/13
f 71/43/15 34/44/15 23/45/15 72/46/15
f 70/47/16 33/48/16 34/44/16 71/43/16
f 69/49/17 32/50/17 33/48/17 70/47/17
f 68/51/18 31/52/18 32/50/18 69/49/18
f 67/53/19 30/54/19 31/52/19 68/51/19
f 66/55/20 29/56/20 30/54/20 67/53/20
f 65/57/21 28/58/21 29/56/21 66/55/21
f 64/59/22 27/60/22 28/58/22 65/57/22
f 63/61/23 26/62/23 27/60/23 64/59/23
f 62/63/24 25/64/24 26/62/24 63/61/24
f 61/65/25 24/42/25 25/64/25 62/63/25
f 72/66/26 23/39/26 24/42/26 61/65/26
f 59/67/27 46/36/27 35/38/27 60/68/27
f 58/69/28 45/22/28 46/36/28 59/67/28
f 57/70/29 44/20/29 45/22/29 58/69/29
f 56/71/30 43/18/30 44/20/30 57/70/30
f 55/72/31 42/16/31 43/18/31 56/71/31
f 54/73/32 41/14/32 42/16/32 55/72/32
f 53/74/33 40/12/33 41/14/33 54/73/33
f 52/75/34 39/10/34 40/12/34 53/74/34
f 51/76/35 38/8/35 39/10/35 52/75/35
f 50/77/36 37/6/36 38/8/36 51/76/36
f 49/41/37 36/4/37 37/6/37 50/77/37
f 60/40/38 35/1/38 36/4/38 49/41/38
f 13/78/50 72/66/50 61/65/50 14/79/50
f 68/51/51 19/80/51 78/80/51 77/51/51
f 15/81/52 62/63/52 63/61/52 16/82/52
f 16/82/53 63/61/53 64/59/53 47/83/53
f 15/84/54 14/84/54 74/84/54
f 48/85/55 65/57/55 66/55/55 17/86/55
f 17/86/56 66/55/56 67/53/56 18/87/56
f 18/87/57 67/53/57 77/53/57 78/87/57
f 19/80/58 68/51/58 69/49/58 20/88/58
f 20/88/59 69/49/59 70/47/59 21/89/59
f 70/47/60 71/43/60 79/47/60
f 22/90/61 71/43/61 72/46/61 13/91/61
f 64/59/62 65/57/62 75/59/62
f 14/79/63 61/65/63 73/65/63 74/79/63
f 19/84/64 18/84/64 78/84/64
f 62/63/65 15/81/65 74/81/65 73/63/65
f 21/89/66 70/47/66 79/47/66 80/89/66
f 71/43/67 22/90/67 80/90/67 79/43/67
f 67/53/68 68/51/68 77/53/68
f 47/83/69 64/59/69 75/59/69 76/83/69
f 48/84/70 47/84/70 76/84/70
f 65/57/71 48/85/71 76/85/71 75/57/71
f 61/65/72 62/63/72 73/65/72
f 22/84/73 21/84/73 80/84/73
usemtl Material.120
f 23/39/14 60/40/14 49/41/14 24/42/14
f 24/42/39 49/41/39 50/77/39 25/64/39
f 25/64/40 50/77/40 51/76/40 26/62/40
f 26/62/41 51/76/41 52/75/41 27/60/41
f 27/60/42 52/75/42 53/74/42 28/58/42
f 28/58/43 53/74/43 54/73/43 29/56/43
f 29/56/44 54/73/44 55/72/44 30/54/44
f 30/54/45 55/72/45 56/71/45 31/52/45
f 31/52/46 56/71/46 57/70/46 32/50/46
f 32/50/47 57/70/47 58/69/47 33/48/47
f 33/48/48 58/69/48 59/67/48 34/44/48
f 34/44/49 59/67/49 60/68/49 23/45/49
