# Blender 4.5.3 LTS
# www.blender.org
mtllib grenade.mtl
o grenade
v 0.008811 0.048184 -0.023716
v 0.015056 0.024595 -0.040874
v 0.016408 -0.000347 -0.044590
v 0.015056 -0.025289 -0.040874
v 0.008811 -0.048878 -0.023716
v 0.022885 0.048184 -0.010819
v 0.039434 0.024595 -0.018536
v 0.043017 -0.000347 -0.020207
v 0.039434 -0.025289 -0.018536
v 0.022885 -0.048878 -0.010819
v 0.023718 0.048184 0.008253
v 0.040876 0.024595 0.014498
v 0.044591 -0.000347 0.015850
v 0.040876 -0.025289 0.014498
v 0.023718 -0.048878 0.008253
v 0.010821 0.048184 0.022327
v 0.018537 0.024595 0.038876
v 0.020208 -0.000347 0.042459
v 0.018537 -0.025289 0.038876
v 0.010821 -0.048878 0.022327
v 0.000280 0.055692 -0.000278
v -0.008251 0.048184 0.023160
v -0.014496 0.024595 0.040318
v -0.015848 -0.000347 0.044033
v -0.014496 -0.025289 0.040318
v -0.008251 -0.048878 0.023160
v 0.000280 -0.056386 -0.000278
v -0.022326 0.048184 0.010263
v -0.038874 0.024595 0.017980
v -0.042458 -0.000347 0.019651
v -0.038874 -0.025289 0.017980
v -0.022326 -0.048878 0.010263
v -0.023158 0.048184 -0.008809
v -0.040316 0.024595 -0.015054
v -0.044032 -0.000347 -0.016406
v -0.040316 -0.025289 -0.015054
v -0.023158 -0.048878 -0.008809
v -0.010261 0.048184 -0.022884
v -0.017978 0.024595 -0.039432
v -0.019649 -0.000347 -0.043015
v -0.017978 -0.025289 -0.039432
v -0.010261 -0.048878 -0.022884
v 0.000090 0.064840 -0.000339
v -0.010451 0.068380 -0.020576
v 0.008621 0.068380 -0.021409
v -0.011254 0.033200 -0.068070
v 0.007818 0.033200 -0.068903
v -0.011443 0.055839 -0.062955
v 0.007629 0.055839 -0.063788
v 0.008314 0.043142 -0.047810
v 0.008125 0.064388 -0.047835
v -0.010947 0.064388 -0.047003
v -0.010758 0.043142 -0.046978
v -0.011377 -0.033779 -0.068289
v 0.007695 -0.033779 -0.069121
v 0.008191 -0.026989 -0.048478
v -0.010881 -0.026989 -0.047645
v 0.015918 0.008688 -0.043244
v 0.041719 0.008688 -0.019602
v 0.043245 0.008688 0.015360
v 0.019603 0.008688 0.041161
v -0.015359 0.008688 0.042688
v -0.041160 0.008688 0.019045
v -0.042686 0.008688 -0.015916
v -0.019044 0.008688 -0.041717
v 0.000560 0.059130 -0.000474
v -0.013035 0.057040 0.002509
v -0.022987 0.051332 0.010661
v -0.026629 0.043535 0.021797
v -0.022987 0.035737 0.032933
v -0.013035 0.030029 0.041085
v 0.000560 0.027940 0.044069
v 0.014154 0.030029 0.041085
v 0.024106 0.035737 0.032933
v 0.027748 0.043535 0.021797
v 0.024106 0.051332 0.010661
v 0.014154 0.057040 0.002509
v 0.000560 0.066058 -0.010370
v -0.019075 0.063041 -0.006060
v -0.019075 0.057088 -0.010228
v 0.000560 0.060106 -0.014538
v -0.033448 0.054797 0.005714
v -0.033448 0.048844 0.001546
v -0.038709 0.043535 0.021797
v -0.038709 0.037582 0.017629
v -0.033448 0.032273 0.037881
v -0.033448 0.026321 0.033713
v -0.019075 0.024029 0.049655
v -0.019075 0.018076 0.045487
v 0.000560 0.021011 0.053964
v 0.000560 0.015059 0.049796
v 0.020194 0.024029 0.049655
v 0.020194 0.018076 0.045487
v 0.034567 0.032273 0.037881
v 0.034567 0.026321 0.033713
v 0.039828 0.043535 0.021797
v 0.039828 0.037582 0.017629
v 0.034567 0.054797 0.005714
v 0.034567 0.048844 0.001546
v 0.020194 0.063041 -0.006060
v 0.020194 0.057088 -0.010228
vn -0.0135 -0.9508 -0.3095
vn -0.0432 -0.1449 -0.9885
vn -0.0355 0.5817 -0.8126
vn -0.0355 -0.5817 -0.8126
vn -0.0432 0.1449 -0.9885
vn 0.9994 0.0125 -0.0330
vn 0.5495 0.5817 -0.5997
vn 0.5495 -0.5817 -0.5997
vn 0.6685 0.1449 -0.7295
vn 0.2093 0.9508 -0.2284
vn 0.2093 -0.9508 -0.2284
vn 0.6685 -0.1449 -0.7295
vn 0.8126 -0.5817 -0.0355
vn 0.9885 0.1449 -0.0432
vn 0.3095 0.9508 -0.0135
vn 0.3095 -0.9508 -0.0135
vn 0.9885 -0.1449 -0.0432
vn 0.8126 0.5817 -0.0355
vn 0.5997 -0.5817 0.5495
vn 0.7295 0.1449 0.6685
vn 0.2284 0.9508 0.2093
vn 0.2284 -0.9508 0.2093
vn 0.7295 -0.1449 0.6685
vn 0.5997 0.5817 0.5495
vn 0.0355 -0.5817 0.8126
vn 0.0432 0.1449 0.9885
vn 0.0135 0.9508 0.3095
vn 0.0135 -0.9508 0.3095
vn 0.0432 -0.1449 0.9885
vn 0.0355 0.5817 0.8126
vn -0.5495 -0.5817 0.5997
vn -0.6685 0.1449 0.7295
vn -0.2093 0.9508 0.2284
vn -0.2093 -0.9508 0.2284
vn -0.6685 -0.1449 0.7295
vn -0.5495 0.5817 0.5997
vn -0.9885 0.1449 0.0432
vn -0.3095 0.9508 0.0135
vn -0.3095 -0.9508 0.0135
vn -0.9885 -0.1449 0.0432
vn -0.8126 0.5817 0.0355
vn -0.8126 -0.5817 0.0355
vn -0.2284 0.9508 -0.2093
vn -0.2284 -0.9508 -0.2093
vn -0.7295 -0.1449 -0.6685
vn -0.5997 0.5817 -0.5495
vn -0.5997 -0.5817 -0.5495
vn -0.7295 0.1449 -0.6685
vn 0.0074 0.9857 0.1685
vn 0.9332 -0.0154 0.3591
vn -0.8946 -0.0456 0.4445
vn -0.0426 0.2198 -0.9746
vn -0.0206 0.8815 -0.4717
vn -0.0436 0.0033 -0.9990
vn -0.9994 -0.0125 0.0330
vn -0.9997 -0.0103 0.0215
vn -0.0065 0.9888 -0.1492
vn 0.9997 0.0103 -0.0215
vn -0.9997 0.0016 0.0231
vn 0.9997 -0.0016 -0.0231
vn -0.2588 0.5540 -0.7912
vn -0.7071 0.4056 -0.5792
vn -0.9659 0.1485 -0.2120
vn -0.9659 -0.1485 0.2120
vn -0.7071 -0.4056 0.5792
vn -0.2588 -0.5540 0.7912
vn 0.2588 -0.5540 0.7912
vn 0.7071 -0.4056 0.5792
vn 0.9659 -0.1485 0.2120
vn 0.9659 0.1485 -0.2120
vn 0.7071 0.4056 -0.5792
vn 0.2588 0.5540 -0.7912
vn -0.0000 0.8192 0.5736
vt 0.687500 0.000000
vt 0.750000 0.166667
vt 0.625000 0.166667
vt 0.750000 0.333333
vt 0.750000 0.500000
vt 0.625000 0.500000
vt 0.625000 0.333333
vt 0.750000 0.666667
vt 0.750000 0.833333
vt 0.625000 0.833333
vt 0.625000 0.666667
vt 0.750000 0.560372
vt 0.625000 0.560372
vt 0.625000 0.833333
vt 0.500000 0.833333
vt 0.500000 0.666667
vt 0.500000 0.333333
vt 0.500000 0.166667
vt 0.500000 0.560372
vt 0.562500 1.000000
vt 0.562500 0.000000
vt 0.500000 0.500000
vt 0.375000 0.333333
vt 0.375000 0.166667
vt 0.375000 0.666667
vt 0.375000 0.560372
vt 0.437500 1.000000
vt 0.375000 0.833333
vt 0.437500 0.000000
vt 0.375000 0.500000
vt 0.250000 0.333333
vt 0.250000 0.166667
vt 0.250000 0.666667
vt 0.250000 0.560372
vt 0.312500 1.000000
vt 0.250000 0.833333
vt 0.312500 0.000000
vt 0.250000 0.500000
vt 0.125000 0.333333
vt 0.125000 0.166667
vt 0.125000 0.666667
vt 0.125000 0.560372
vt 0.187500 1.000000
vt 0.125000 0.833333
vt 0.187500 0.000000
vt 0.125000 0.500000
vt 0.000000 0.333333
vt 0.000000 0.166667
vt 0.000000 0.666667
vt 0.000000 0.560372
vt 0.062500 1.000000
vt 0.000000 0.833333
vt 0.062500 0.000000
vt 0.000000 0.500000
vt 1.000000 0.560372
vt 1.000000 0.666667
vt 0.875000 0.666667
vt 0.875000 0.560372
vt 1.000000 0.833333
vt 0.937500 1.000000
vt 0.875000 0.833333
vt 0.937500 0.000000
vt 1.000000 0.166667
vt 0.875000 0.166667
vt 1.000000 0.333333
vt 1.000000 0.500000
vt 0.875000 0.500000
vt 0.875000 0.333333
vt 0.812500 1.000000
vt 0.812500 0.000000
vt 0.687500 1.000000
vt 0.750000 0.833333
vt 0.750000 0.833333
vt 1.000000 1.000000
vt 0.916667 1.000000
vt 0.916667 0.500000
vt 0.833333 1.000000
vt 0.833333 0.500000
vt 0.750000 1.000000
vt 0.750000 0.500000
vt 0.666667 1.000000
vt 0.666667 0.500000
vt 0.583333 1.000000
vt 0.583333 0.500000
vt 0.500000 1.000000
vt 0.500000 0.500000
vt 0.416667 1.000000
vt 0.416667 0.500000
vt 0.333333 1.000000
vt 0.333333 0.500000
vt 0.250000 1.000000
vt 0.250000 0.500000
vt 0.166667 1.000000
vt 0.166667 0.500000
vt 0.083333 1.000000
vt 0.083333 0.500000
vt 0.000000 1.000000
vt 0.000000 0.500000
vt 0.833086 0.393909
vt 0.750000 0.416171
vt 0.750000 0.490000
vt 0.870000 0.457846
vt 0.893909 0.333086
vt 0.957846 0.370000
vt 0.916171 0.250000
vt 0.990000 0.250000
vt 0.893909 0.166914
vt 0.957846 0.130000
vt 0.833086 0.106091
vt 0.870000 0.042154
vt 0.750000 0.083829
vt 0.750000 0.010000
vt 0.666914 0.106091
vt 0.630000 0.042154
vt 0.606091 0.166914
vt 0.542154 0.130000
vt 0.583829 0.250000
vt 0.510000 0.250000
vt 0.606091 0.333086
vt 0.542154 0.370000
vt 0.666914 0.393909
vt 0.630000 0.457846
s 0
usemtl Material.071
f 41/4/2 40/5/2 3/6/2 4/7/2
f 39/8/3 38/9/3 1/10/3 2/11/3
f 42/2/4 41/4/4 4/7/4 5/3/4
f 65/12/5 39/8/5 2/11/5 58/13/5
f 2/11/7 1/10/7 6/15/7 7/16/7
f 5/3/8 4/7/8 9/17/8 10/18/8
f 58/13/9 2/11/9 7/16/9 59/19/9
f 4/7/12 3/6/12 8/22/12 9/17/12
f 10/18/13 9/17/13 14/23/13 15/24/13
f 59/19/14 7/16/14 12/25/14 60/26/14
f 9/17/17 8/22/17 13/30/17 14/23/17
f 7/16/18 6/15/18 11/28/18 12/25/18
f 15/24/19 14/23/19 19/31/19 20/32/19
f 60/26/20 12/25/20 17/33/20 61/34/20
f 14/23/23 13/30/23 18/38/23 19/31/23
f 12/25/24 11/28/24 16/36/24 17/33/24
f 20/32/25 19/31/25 25/39/25 26/40/25
f 61/34/26 17/33/26 23/41/26 62/42/26
f 19/31/29 18/38/29 24/46/29 25/39/29
f 17/33/30 16/36/30 22/44/30 23/41/30
f 26/40/31 25/39/31 31/47/31 32/48/31
f 62/42/32 23/41/32 29/49/32 63/50/32
f 25/39/35 24/46/35 30/54/35 31/47/35
f 23/41/36 22/44/36 28/52/36 29/49/36
f 63/55/37 29/56/37 34/57/37 64/58/37
f 31/65/40 30/66/40 35/67/40 36/68/40
f 29/56/41 28/59/41 33/61/41 34/57/41
f 32/63/42 31/65/42 36/68/42 37/64/42
f 36/68/45 35/67/45 40/5/45 41/4/45
f 34/57/46 33/61/46 38/9/46 39/8/46
f 37/64/47 36/68/47 41/4/47 42/2/47
f 64/58/48 34/57/48 39/8/48 65/12/48
usemtl Material.072
f 27/1/1 42/2/1 5/3/1
f 51/14/6 50/10/6 47/10/6 49/10/6
f 1/10/10 21/20/10 6/15/10
f 27/21/11 5/3/11 10/18/11
f 6/15/15 21/27/15 11/28/15
f 27/29/16 10/18/16 15/24/16
f 11/28/21 21/35/21 16/36/21
f 27/37/22 15/24/22 20/32/22
f 16/36/27 21/43/27 22/44/27
f 27/45/28 20/32/28 26/40/28
f 22/44/33 21/51/33 28/52/33
f 27/53/34 26/40/34 32/48/34
f 28/59/38 21/60/38 33/61/38
f 27/62/39 32/63/39 37/64/39
f 33/61/43 21/69/43 38/9/43
f 27/70/44 37/64/44 42/2/44
f 44/9/49 43/71/49 45/10/49
f 21/20/50 1/10/50 45/10/50 43/20/50
f 38/9/51 21/69/51 43/69/51 44/9/51
f 47/10/52 46/9/52 48/9/52 49/10/52
f 52/72/53 51/14/53 49/10/53 48/9/53
f 46/9/54 47/10/54 55/10/54 54/9/54
f 53/73/55 52/72/55 48/9/55 46/9/55
f 38/9/56 44/9/56 52/72/56 53/73/56
f 44/9/57 45/10/57 51/14/57 52/72/57
f 45/10/58 1/10/58 50/10/58 51/14/58
f 53/73/59 46/9/59 54/9/59 57/73/59
f 47/10/60 50/10/60 56/10/60 55/10/60
f 78/66/61 81/74/61 80/75/61 79/76/61
f 79/76/62 80/75/62 83/77/62 82/78/62
f 82/78/63 83/77/63 85/79/63 84/80/63
f 84/80/64 85/79/64 87/81/64 86/82/64
f 86/82/65 87/81/65 89/83/65 88/84/65
f 88/84/66 89/83/66 91/85/66 90/86/66
f 90/86/67 91/85/67 93/87/67 92/88/67
f 92/88/68 93/87/68 95/89/68 94/90/68
f 94/90/69 95/89/69 97/91/69 96/92/69
f 96/92/70 97/91/70 99/93/70 98/94/70
f 98/94/71 99/93/71 101/95/71 100/96/71
f 100/96/72 101/95/72 81/97/72 78/98/72
f 67/99/73 66/100/73 78/101/73 79/102/73
f 68/103/73 67/99/73 79/102/73 82/104/73
f 69/105/73 68/103/73 82/104/73 84/106/73
f 70/107/73 69/105/73 84/106/73 86/108/73
f 71/109/73 70/107/73 86/108/73 88/110/73
f 72/111/73 71/109/73 88/110/73 90/112/73
f 73/113/73 72/111/73 90/112/73 92/114/73
f 74/115/73 73/113/73 92/114/73 94/116/73
f 75/117/73 74/115/73 94/116/73 96/118/73
f 76/119/73 75/117/73 96/118/73 98/120/73
f 77/121/73 76/119/73 98/120/73 100/122/73
f 66/100/73 77/121/73 100/122/73 78/101/73
usemtl Material.073
f 35/67/48 64/58/48 65/12/48 40/5/48
f 30/66/37 63/55/37 64/58/37 35/67/37
f 24/46/32 62/42/32 63/50/32 30/54/32
f 18/38/26 61/34/26 62/42/26 24/46/26
f 13/30/20 60/26/20 61/34/20 18/38/20
f 8/22/14 59/19/14 60/26/14 13/30/14
f 3/6/9 58/13/9 59/19/9 8/22/9
f 40/5/5 65/12/5 58/13/5 3/6/5
