# Blender 4.5.3 LTS
# www.blender.org
mtllib m16.mtl
o Cube
v -0.191711 0.006916 -0.019495
v -0.198459 0.057982 -0.019495
v -0.191711 0.006916 -0.036706
v -0.198459 0.057982 -0.036706
v -0.054789 0.004075 -0.019495
v -0.054789 0.057982 -0.019495
v -0.054789 0.004075 -0.036706
v -0.054789 0.057982 -0.036706
v -0.198459 0.016101 -0.019495
v -0.198459 0.016101 -0.036706
v -0.050595 0.019653 -0.036706
v -0.050595 0.019653 -0.019495
v -0.039913 0.057721 -0.032307
v -0.039913 0.057721 -0.023893
v -0.039913 0.019653 -0.036706
v -0.039913 0.019653 -0.019495
v -0.208429 0.015561 -0.019495
v -0.208429 0.049398 -0.019495
v -0.208429 0.049398 -0.036706
v -0.208429 0.015561 -0.036706
v -0.153043 0.004075 -0.036706
v -0.153043 0.057982 -0.036706
v -0.153043 0.004075 -0.019495
v -0.153043 0.057982 -0.019495
v -0.153043 0.019653 -0.019495
v -0.153043 0.019653 -0.036706
v -0.109539 0.057982 -0.036706
v -0.109539 0.004075 -0.019495
v -0.109539 0.019653 -0.036706
v -0.109539 0.004075 -0.036706
v -0.109539 0.057982 -0.019495
v -0.109539 0.019653 -0.019495
v -0.055144 -0.025994 -0.019495
v -0.055144 -0.025994 -0.036706
v -0.110604 -0.036650 -0.019495
v -0.110604 -0.036650 -0.036706
v -0.368753 -0.032007 -0.018273
v -0.368753 0.049398 -0.018273
v -0.368753 0.049398 -0.037927
v -0.368753 -0.032007 -0.037927
v -0.038953 0.012966 -0.005472
v -0.038953 0.058223 -0.028100
v -0.038953 0.012966 -0.050729
v 0.176802 0.025816 -0.011426
v 0.176802 0.050284 -0.028100
v 0.176802 0.025816 -0.044774
v 0.179100 0.042556 -0.032850
v 0.364659 0.041509 -0.031803
v 0.179100 0.039545 -0.034589
v 0.364659 0.039162 -0.033158
v 0.179100 0.036068 -0.034589
v 0.364659 0.036451 -0.033158
v 0.179100 0.033057 -0.032850
v 0.364659 0.034104 -0.031803
v 0.179100 0.031318 -0.029839
v 0.364659 0.032749 -0.029455
v 0.179100 0.031318 -0.026362
v 0.364659 0.032749 -0.026745
v 0.179100 0.033057 -0.023350
v 0.364659 0.034104 -0.024398
v 0.179100 0.036068 -0.021612
v 0.364659 0.036451 -0.023042
v 0.179100 0.039545 -0.021612
v 0.364659 0.039162 -0.023042
v 0.179100 0.042556 -0.023350
v 0.364659 0.041509 -0.024398
v 0.179100 0.044295 -0.026362
v 0.364659 0.042864 -0.026745
v 0.179100 0.044295 -0.029839
v 0.364659 0.042864 -0.029455
v 0.310839 0.042556 -0.032850
v 0.310839 0.039545 -0.034589
v 0.310839 0.036068 -0.034589
v 0.310839 0.033057 -0.032850
v 0.310839 0.031318 -0.029839
v 0.310839 0.031318 -0.026362
v 0.310839 0.033057 -0.023350
v 0.310839 0.036068 -0.021612
v 0.310839 0.039545 -0.021612
v 0.310839 0.042556 -0.023350
v 0.310839 0.044295 -0.026362
v 0.310839 0.044295 -0.029839
v 0.317480 0.043912 -0.034205
v 0.317480 0.040041 -0.036440
v 0.317480 0.035572 -0.036440
v 0.317480 0.031701 -0.034205
v 0.317480 0.029467 -0.030335
v 0.317480 0.029467 -0.025866
v 0.317480 0.031701 -0.021995
v 0.317480 0.035572 -0.019760
v 0.317480 0.040041 -0.019760
v 0.317480 0.043912 -0.021995
v 0.317480 0.046146 -0.025866
v 0.317480 0.046146 -0.030335
v 0.364659 0.040041 -0.036440
v 0.364659 0.043912 -0.034205
v 0.364659 0.035572 -0.036440
v 0.364659 0.031701 -0.034205
v 0.364659 0.029467 -0.030335
v 0.364659 0.029467 -0.025866
v 0.364659 0.031701 -0.021995
v 0.364659 0.035572 -0.019760
v 0.364659 0.040041 -0.019760
v 0.364659 0.043912 -0.021995
v 0.364659 0.046146 -0.025866
v 0.364659 0.046146 -0.030335
v 0.207637 0.039545 -0.034589
v 0.207637 0.036068 -0.034589
v 0.207637 0.033057 -0.032850
v 0.207637 0.031318 -0.029839
v 0.207637 0.031318 -0.026362
v 0.207637 0.033057 -0.023350
v 0.207637 0.036068 -0.021612
v 0.207637 0.039545 -0.021612
v 0.207637 0.042556 -0.023350
v 0.207637 0.044295 -0.026362
v 0.207637 0.044295 -0.029839
v 0.207637 0.042556 -0.032850
v 0.207637 0.085014 -0.028100
v 0.179306 0.053701 -0.028100
v -0.149748 0.087165 -0.031528
v -0.159175 0.059322 -0.034954
v -0.149748 0.087165 -0.026104
v -0.159175 0.059322 -0.022678
v -0.171585 0.088450 -0.031528
v -0.184581 0.059322 -0.034954
v -0.171585 0.088450 -0.026104
v -0.184581 0.059322 -0.022678
v -0.150267 0.074602 -0.032928
v -0.150267 0.074602 -0.024704
v -0.176153 0.074602 -0.024704
v -0.176153 0.074602 -0.032928
v -0.052145 0.079523 -0.024502
v -0.052145 0.079523 -0.033130
v -0.051093 0.074154 -0.024704
v -0.051093 0.074154 -0.032928
v -0.057031 0.079900 -0.024502
v -0.057031 0.079900 -0.033130
v -0.055979 0.074176 -0.024704
v -0.055979 0.074176 -0.032928
v -0.048345 0.058777 -0.034954
v -0.048345 0.058777 -0.022678
v -0.053232 0.058799 -0.022678
v -0.053232 0.058799 -0.034954
v -0.052145 0.079523 -0.024502
v -0.052145 0.079523 -0.033130
v -0.057031 0.079900 -0.024502
v -0.057031 0.079900 -0.033130
v -0.174785 -0.046710 -0.036706
v -0.211587 -0.037007 -0.036706
v -0.211587 -0.037007 -0.019495
v -0.174785 -0.046710 -0.019495
v -0.178378 -0.053288 -0.036706
v -0.214844 -0.042846 -0.036706
v -0.214844 -0.042846 -0.019495
v -0.178378 -0.053288 -0.019495
vn -0.6525 0.7578 -0.0000
vn -0.0000 -0.0000 -1.0000
vn -0.0000 -0.0000 1.0000
vn 0.9999 -0.0118 -0.0000
vn -0.0000 1.0000 -0.0000
vn 0.9656 -0.2599 -0.0000
vn 0.1699 0.0659 0.9833
vn 0.1699 0.0659 -0.9833
vn 0.0175 0.9998 -0.0000
vn 0.0076 -0.0000 -1.0000
vn 0.0541 -0.9985 -0.0000
vn 0.1887 -0.9820 -0.0000
vn -0.9997 0.0262 -0.0000
vn -0.2753 -0.9614 -0.0000
vn -1.0000 -0.0000 -0.0000
vn 0.0076 -0.0000 1.0000
vn 0.2844 -0.9587 -0.0000
vn 0.0064 0.4910 -0.8711
vn 1.0000 -0.0000 -0.0000
vn 0.0064 0.4910 0.8711
vn 0.0595 -0.9982 -0.0000
vn -0.0000 0.5000 -0.8660
vn -0.0000 -0.5000 -0.8660
vn -0.0000 -0.8660 -0.5000
vn -0.0000 -1.0000 -0.0000
vn -0.0000 -0.8660 0.5000
vn -0.0000 -0.5000 0.8660
vn -0.0000 0.5000 0.8660
vn -0.0000 0.8660 0.5000
vn -0.0000 0.8660 -0.5000
vn -0.2685 0.8342 -0.4816
vn -0.2685 0.9633 -0.0000
vn -0.2685 0.8342 0.4816
vn -0.2685 0.4816 0.8342
vn -0.2685 -0.0000 0.9633
vn -0.2685 -0.4816 0.8342
vn -0.2685 -0.8342 0.4816
vn -0.2685 -0.9633 -0.0000
vn -0.2685 -0.8342 -0.4816
vn -0.2685 -0.4816 -0.8342
vn -0.2685 -0.0000 -0.9633
vn -0.2685 0.4816 -0.8342
vn -0.0382 0.0693 0.9969
vn -0.0382 0.0693 -0.9969
vn -0.0000 0.1314 0.9913
vn -0.8756 0.4830 -0.0000
vn -0.0000 0.1314 -0.9913
vn 0.0587 0.9983 -0.0000
vn 0.0028 0.1049 -0.9945
vn -0.9497 0.3133 -0.0000
vn 0.0028 0.1049 0.9945
vn 0.9814 0.1922 -0.0000
vn -0.0015 -0.0366 0.9993
vn -0.0015 -0.0366 -0.9993
vn 0.0006 0.1307 -0.9914
vn -0.0059 0.0653 -0.9979
vn -0.0059 0.0653 0.9979
vn 0.0781 0.9969 -0.0000
vn 0.9844 0.1759 -0.0000
vn 0.0006 0.1307 0.9914
vn 0.0768 0.9970 -0.0000
vn 0.9193 -0.3936 -0.0000
vn -0.9111 0.4123 -0.0000
vn 0.8776 -0.4793 -0.0000
vn -0.8733 0.4872 -0.0000
vt 0.875000 0.750000
vt 0.875000 0.500000
vt 0.447248 0.404730
vt 0.625000 0.404730
vt 0.625000 0.500000
vt 0.447248 0.500000
vt 0.447248 0.920971
vt 0.625000 0.920971
vt 0.625000 1.000000
vt 0.447248 1.000000
vt 0.375000 0.500000
vt 0.375000 0.750000
vt 0.795971 0.500000
vt 0.795971 0.750000
vt 0.375000 0.920971
vt 0.375000 1.000000
vt 0.447248 0.750000
vt 0.375000 0.404730
vt 0.625000 0.750000
vt 0.625000 0.250000
vt 0.447248 0.250000
vt 0.447248 0.000000
vt 0.375000 0.250000
vt 0.447248 0.329029
vt 0.375000 0.329029
vt 0.375000 0.845270
vt 0.447248 0.845270
vt 0.720270 0.500000
vt 0.720270 0.750000
vt 0.625000 0.845270
vt 0.625000 0.329029
vt 0.279730 0.500000
vt 0.279730 0.750000
vt 0.375000 0.920971
vt 0.625000 0.000000
vt 0.125000 0.500000
vt 0.125000 0.750000
vt 1.000000 0.876395
vt 1.000000 1.000000
vt 0.916667 1.000000
vt 0.916667 0.876395
vt 0.833333 1.000000
vt 0.833333 0.876395
vt 0.750000 1.000000
vt 0.750000 0.876395
vt 0.666667 1.000000
vt 0.666667 0.876395
vt 0.583333 1.000000
vt 0.583333 0.876395
vt 0.500000 1.000000
vt 0.500000 0.876395
vt 0.416667 1.000000
vt 0.416667 0.876395
vt 0.333333 1.000000
vt 0.333333 0.876395
vt 0.250000 1.000000
vt 0.250000 0.876395
vt 0.166667 1.000000
vt 0.166667 0.876395
vt 0.083333 1.000000
vt 0.083333 0.876395
vt 0.000000 1.000000
vt 0.000000 0.876395
vt 0.083333 0.591499
vt 0.083333 0.840615
vt 0.000000 0.840615
vt 0.000000 0.591499
vt 0.166667 0.591499
vt 0.166667 0.840615
vt 0.250000 0.591499
vt 0.250000 0.840615
vt 0.333333 0.591499
vt 0.333333 0.840615
vt 0.416667 0.591499
vt 0.416667 0.840615
vt 0.500000 0.591499
vt 0.500000 0.840615
vt 0.583333 0.591499
vt 0.583333 0.840615
vt 0.666667 0.591499
vt 0.666667 0.840615
vt 0.750000 0.591499
vt 0.750000 0.840615
vt 0.833333 0.591499
vt 0.833333 0.840615
vt 0.916667 0.591499
vt 0.916667 0.840615
vt 1.000000 0.591499
vt 1.000000 0.840615
vt 0.250000 0.395557
vt 0.322778 0.376056
vt 0.370000 0.457846
vt 0.250000 0.490000
vt 0.376056 0.322778
vt 0.457846 0.370000
vt 0.395557 0.250000
vt 0.490000 0.250000
vt 0.376056 0.177222
vt 0.457846 0.130000
vt 0.322778 0.123944
vt 0.370000 0.042154
vt 0.250000 0.104443
vt 0.250000 0.010000
vt 0.177222 0.123944
vt 0.130000 0.042154
vt 0.123944 0.177222
vt 0.042154 0.130000
vt 0.104443 0.250000
vt 0.010000 0.250000
vt 0.123944 0.322778
vt 0.042154 0.370000
vt 0.177222 0.376056
vt 0.130000 0.457846
vt 1.000000 0.500000
vt 0.916667 0.500000
vt 0.833333 0.500000
vt 0.750000 0.500000
vt 0.666667 0.500000
vt 0.583333 0.500000
vt 0.500000 0.500000
vt 0.416667 0.500000
vt 0.333333 0.500000
vt 0.250000 0.500000
vt 0.166667 0.500000
vt 0.083333 0.500000
vt 0.000000 0.500000
vt 0.580716 0.250000
vt 0.580716 0.500000
vt 0.580716 0.750000
vt 0.580716 1.000000
vt 0.375000 0.000000
vt 0.580716 0.000000
vt 0.397476 0.250000
vt 0.565388 0.250000
vt 0.557724 1.000000
vt 0.397476 1.000000
vt 0.204029 0.500000
vt 0.204029 0.750000
vt 0.204029 0.500000
vt 0.375000 0.329029
vt 0.204029 0.750000
vt 0.375000 -0.000000
s 0
usemtl Material
f 2/1/1 4/2/1 19/2/1 18/1/1
f 29/3/2 27/4/2 8/5/2 11/6/2
f 25/7/3 24/8/3 2/9/3 9/10/3
f 22/13/5 4/2/5 2/1/5 24/14/5
f 23/15/3 25/7/3 9/10/3 1/16/3
f 7/11/6 11/6/6 12/17/6 5/12/6
f 30/18/2 29/3/2 11/6/2 7/11/2
f 6/19/7 12/17/7 16/17/7 14/19/7
f 11/6/8 8/5/8 13/5/8 15/6/8
f 8/5/9 6/19/9 14/19/9 13/5/9
f 19/20/10 20/21/10 40/21/10 39/20/10
f 4/20/2 10/21/2 20/21/2 19/20/2
f 9/10/3 2/9/3 18/9/3 17/10/3
f 10/21/11 9/22/11 17/22/11 20/21/11
f 3/23/2 10/21/2 26/24/2 21/25/2
f 28/26/3 32/27/3 25/7/3 23/15/3
f 27/28/5 22/13/5 24/14/5 31/29/5
f 32/27/3 31/30/3 24/8/3 25/7/3
f 10/21/2 4/20/2 22/31/2 26/24/2
f 12/17/3 6/19/3 31/30/3 32/27/3
f 8/5/5 27/28/5 31/29/5 6/19/5
f 5/12/3 12/17/3 32/27/3 28/26/3
f 21/25/2 26/24/2 29/3/2 30/18/2
f 26/24/2 22/31/2 27/4/2 29/3/2
f 156/34/14 155/16/14 154/23/14 153/25/14
f 37/22/15 38/35/15 39/20/15 40/21/15
f 17/10/16 18/9/16 38/9/16 37/10/16
f 20/21/17 17/22/17 37/22/17 40/21/17
f 18/1/5 19/2/5 39/2/5 38/1/5
f 43/23/18 42/20/18 45/5/18 46/11/18
f 46/11/19 45/19/19 44/12/19
f 44/12/20 45/19/20 42/9/20 41/16/20
f 43/36/21 46/11/21 44/12/21 41/37/21
f 83/38/22 96/39/22 95/40/22 84/41/22
f 84/41/2 95/40/2 97/42/2 85/43/2
f 85/43/23 97/42/23 98/44/23 86/45/23
f 86/45/24 98/44/24 99/46/24 87/47/24
f 87/47/25 99/46/25 100/48/25 88/49/25
f 88/49/26 100/48/26 101/50/26 89/51/26
f 89/51/27 101/50/27 102/52/27 90/53/27
f 90/53/3 102/52/3 103/54/3 91/55/3
f 91/55/28 103/54/28 104/56/28 92/57/28
f 92/57/29 104/56/29 105/58/29 93/59/29
f 93/59/5 105/58/5 106/60/5 94/61/5
f 94/61/30 106/60/30 96/62/30 83/63/30
f 117/64/30 82/65/30 71/66/30 118/67/30
f 116/68/5 81/69/5 82/65/5 117/64/5
f 115/70/29 80/71/29 81/69/29 116/68/29
f 114/72/28 79/73/28 80/71/28 115/70/28
f 113/74/3 78/75/3 79/73/3 114/72/3
f 112/76/27 77/77/27 78/75/27 113/74/27
f 111/78/26 76/79/26 77/77/26 112/76/26
f 110/80/25 75/81/25 76/79/25 111/78/25
f 109/82/24 74/83/24 75/81/24 110/80/24
f 108/84/23 73/85/23 74/83/23 109/82/23
f 107/86/2 72/87/2 73/85/2 108/84/2
f 118/88/22 71/89/22 72/87/22 107/86/22
f 82/65/31 94/61/31 83/63/31 71/66/31
f 81/69/32 93/59/32 94/61/32 82/65/32
f 80/71/33 92/57/33 93/59/33 81/69/33
f 79/73/34 91/55/34 92/57/34 80/71/34
f 78/75/35 90/53/35 91/55/35 79/73/35
f 77/77/36 89/51/36 90/53/36 78/75/36
f 76/79/37 88/49/37 89/51/37 77/77/37
f 75/81/38 87/47/38 88/49/38 76/79/38
f 74/83/39 86/45/39 87/47/39 75/81/39
f 73/85/40 85/43/40 86/45/40 74/83/40
f 72/87/41 84/41/41 85/43/41 73/85/41
f 71/89/42 83/38/42 84/41/42 72/87/42
f 48/90/19 50/91/19 95/92/19 96/93/19
f 50/91/19 52/94/19 97/95/19 95/92/19
f 52/94/19 54/96/19 98/97/19 97/95/19
f 54/96/19 56/98/19 99/99/19 98/97/19
f 56/98/19 58/100/19 100/101/19 99/99/19
f 58/100/19 60/102/19 101/103/19 100/101/19
f 60/102/19 62/104/19 102/105/19 101/103/19
f 62/104/19 64/106/19 103/107/19 102/105/19
f 64/106/19 66/108/19 104/109/19 103/107/19
f 66/108/19 68/110/19 105/111/19 104/109/19
f 68/110/19 70/112/19 106/113/19 105/111/19
f 70/112/19 48/90/19 96/93/19 106/113/19
f 47/114/22 118/88/22 107/86/22 49/115/22
f 49/115/2 107/86/2 108/84/2 51/116/2
f 51/116/23 108/84/23 109/82/23 53/117/23
f 53/117/24 109/82/24 110/80/24 55/118/24
f 55/118/25 110/80/25 111/78/25 57/119/25
f 57/119/26 111/78/26 112/76/26 59/120/26
f 59/120/27 112/76/27 113/74/27 61/121/27
f 61/121/3 113/74/3 114/72/3 63/122/3
f 63/122/28 114/72/28 115/70/28 65/123/28
f 65/123/29 115/70/29 116/68/29 67/124/29
f 67/124/43 116/68/43 119/68/43 120/124/43
f 69/125/30 117/64/30 118/67/30 47/126/30
f 117/64/44 69/125/44 120/125/44 119/64/44
f 116/68/19 117/64/19 119/68/19
f 130/127/45 131/128/45 128/5/45 124/20/45
f 131/128/46 132/129/46 126/19/46 128/5/46
f 132/129/47 129/130/47 122/9/47 126/19/47
f 123/36/48 121/37/48 125/12/48 127/11/48
f 125/12/49 121/16/49 129/130/49 132/129/49
f 127/11/50 125/12/50 132/129/50 131/128/50
f 123/23/51 127/11/51 131/128/51 130/127/51
f 134/131/52 133/23/52 135/127/52 136/132/52
f 137/133/53 139/134/53 135/127/53 133/23/53
f 140/135/54 138/136/54 134/16/54 136/130/54
f 140/135/55 136/130/55 141/130/55 144/135/55
f 129/130/56 121/16/56 138/136/56 140/135/56
f 123/23/57 130/127/57 139/134/57 137/133/57
f 121/37/58 123/36/58 137/36/58 138/37/58
f 136/132/59 135/127/59 142/127/59 141/132/59
f 135/127/60 139/134/60 143/134/60 142/127/60
f 148/37/61 147/36/61 145/36/61 146/37/61
f 21/137/62 23/138/62 152/138/62 149/139/62
f 23/15/3 1/16/3 151/16/3 152/34/3
f 1/131/63 3/23/63 150/23/63 151/131/63
f 3/23/2 21/25/2 149/140/2 150/23/2
f 149/139/64 152/138/64 156/141/64 153/139/64
f 152/34/3 151/16/3 155/16/3 156/34/3
f 151/131/65 150/23/65 154/23/65 155/142/65
f 150/23/2 149/140/2 153/25/2 154/23/2
usemtl Material.016
f 7/11/4 5/12/4 33/12/4 34/11/4
f 36/32/12 34/11/12 33/12/12 35/33/12
f 30/18/2 7/11/2 34/11/2 36/18/2
f 28/33/13 30/32/13 36/32/13 35/33/13
f 5/12/3 28/26/3 35/26/3 33/12/3
