# Blender 4.5.3 LTS
# www.blender.org
mtllib nva_hat.mtl
o nva_hat
v 0.000280 0.133380 -0.086544
v 0.028445 0.157727 -0.027522
v 0.052322 0.131543 -0.072721
v 0.068276 0.107362 -0.103809
v 0.099710 0.053538 -0.165884
v 0.049063 0.155012 -0.007083
v 0.090420 0.126526 -0.034955
v 0.118053 0.100807 -0.054466
v 0.172498 0.043952 -0.093730
v 0.056610 0.151303 0.020836
v 0.104364 0.119672 0.016634
v 0.136273 0.091852 0.012938
v 0.199141 0.030857 0.004835
v 0.049063 0.147594 0.048756
v 0.090420 0.112818 0.068223
v 0.118053 0.082897 0.080342
v 0.172498 0.017763 0.103399
v 0.028445 0.144878 0.069195
v 0.052322 0.107801 0.105989
v 0.068276 0.076342 0.129686
v 0.099710 0.008177 0.175553
v 0.000280 0.143884 0.076676
v 0.000280 0.105965 0.119812
v 0.000280 0.073942 0.147747
v 0.000280 0.004668 0.201963
v -0.027885 0.144878 0.069195
v -0.051763 0.107801 0.105989
v -0.067717 0.076342 0.129686
v -0.099151 0.008177 0.175553
v 0.000280 0.162410 0.022312
v -0.048504 0.147594 0.048756
v -0.089860 0.112818 0.068223
v -0.117494 0.082897 0.080342
v -0.171939 0.017763 0.103399
v -0.056050 0.151303 0.020836
v -0.103805 0.119672 0.016634
v -0.135713 0.091852 0.012938
v -0.198581 0.030857 0.004835
v 0.000280 0.080610 -0.142983
v -0.076262 0.077909 -0.122653
v -0.132294 0.070530 -0.067109
v -0.048504 0.155012 -0.007083
v -0.089860 0.126526 -0.034955
v -0.117494 0.100807 -0.054466
v -0.171939 0.043952 -0.093730
v -0.152803 0.060450 0.008766
v -0.132294 0.050369 0.084641
v -0.076262 0.042990 0.140185
v -0.027885 0.157727 -0.027522
v -0.051762 0.131543 -0.072721
v -0.067717 0.107362 -0.103809
v -0.099151 0.053538 -0.165884
v 0.000280 0.040289 0.160516
v 0.076821 0.042990 0.140185
v 0.132854 0.050369 0.084641
v 0.000280 0.158721 -0.035003
v 0.000280 0.109762 -0.121870
v 0.000280 0.057047 -0.192294
v 0.153363 0.060450 0.008766
v 0.132854 0.070530 -0.067109
v 0.076821 0.077909 -0.122653
v 0.000280 0.095186 -0.132427
v -0.144258 0.076151 0.010852
v -0.124894 0.066633 0.082492
v 0.000280 0.057116 0.154131
v -0.124894 0.085669 -0.060787
v -0.071989 0.092636 -0.113231
v 0.144818 0.076151 0.010852
v 0.125453 0.085669 -0.060787
v 0.072549 0.092636 -0.113231
v 0.125453 0.066633 0.082492
v 0.072549 0.059666 0.134936
v -0.071989 0.059666 0.134936
vn 0.2295 0.5709 -0.7883
vn 0.1472 0.8876 -0.4364
vn 0.1743 0.8186 -0.5473
vn 0.0522 0.9966 -0.0641
vn 0.4761 0.7957 -0.3745
vn 0.1426 0.9897 -0.0124
vn 0.6271 0.5407 -0.5608
vn 0.4023 0.8682 -0.2905
vn 0.6503 0.7559 -0.0754
vn 0.1948 0.9778 0.0772
vn 0.8566 0.4883 -0.1667
vn 0.5495 0.8346 -0.0377
vn 0.8566 0.4279 0.2884
vn 0.5495 0.7959 0.2543
vn 0.6503 0.7100 0.2701
vn 0.1948 0.9640 0.1807
vn 0.4023 0.7623 0.5071
vn 0.4761 0.6703 0.5693
vn 0.1426 0.9521 0.2704
vn 0.6271 0.3755 0.6825
vn 0.1743 0.6473 0.7420
vn 0.0522 0.9453 0.3221
vn 0.2295 0.3453 0.9100
vn 0.1472 0.7429 0.6530
vn -0.0522 0.9453 0.3221
vn -0.2295 0.3453 0.9100
vn -0.1472 0.7429 0.6530
vn -0.1743 0.6473 0.7420
vn -0.6271 0.3755 0.6825
vn -0.4023 0.7623 0.5071
vn -0.4761 0.6703 0.5693
vn -0.1426 0.9521 0.2704
vn -0.6503 0.7100 0.2701
vn -0.1948 0.9640 0.1807
vn -0.8566 0.4279 0.2884
vn -0.5495 0.7959 0.2543
vn 0.5405 0.8025 0.2527
vn -0.6503 0.7559 -0.0754
vn -0.1948 0.9778 0.0772
vn 0.3957 0.8737 -0.2831
vn 0.3957 0.7695 0.5014
vn -0.8566 0.4883 -0.1667
vn -0.5495 0.8346 -0.0377
vn 0.1448 0.7504 0.6449
vn 0.5405 0.8407 -0.0344
vn -0.3957 0.7695 0.5014
vn -0.6271 0.5407 -0.5608
vn -0.4023 0.8682 -0.2905
vn -0.5405 0.8025 0.2527
vn -0.1448 0.7504 0.6449
vn -0.4761 0.7957 -0.3745
vn -0.1426 0.9897 -0.0124
vn -0.2295 0.5709 -0.7883
vn -0.1472 0.8876 -0.4364
vn -0.1448 0.8928 -0.4266
vn -0.5405 0.8407 -0.0344
vn -0.1743 0.8186 -0.5473
vn -0.0522 0.9966 -0.0641
vn 0.1448 0.8928 -0.4266
vn -0.3957 0.8737 -0.2831
vt 0.750000 0.593750
vt 0.750000 0.625000
vt 0.666667 0.625000
vt 0.666667 0.593750
vt 0.750000 0.750000
vt 0.750000 0.875000
vt 0.666667 0.875000
vt 0.666667 0.750000
vt 0.708333 1.000000
vt 0.583333 0.750000
vt 0.583333 0.625000
vt 0.625000 1.000000
vt 0.583333 0.875000
vt 0.583333 0.593750
vt 0.500000 0.750000
vt 0.500000 0.625000
vt 0.541667 1.000000
vt 0.500000 0.875000
vt 0.500000 0.593750
vt 0.416667 0.625000
vt 0.416667 0.593750
vt 0.416667 0.875000
vt 0.416667 0.750000
vt 0.458333 1.000000
vt 0.333333 0.875000
vt 0.333333 0.750000
vt 0.333333 0.625000
vt 0.375000 1.000000
vt 0.333333 0.593750
vt 0.250000 0.750000
vt 0.250000 0.625000
vt 0.291667 1.000000
vt 0.250000 0.875000
vt 0.250000 0.593750
vt 0.208333 1.000000
vt 0.166667 0.875000
vt 0.166667 0.625000
vt 0.166667 0.593750
vt 0.166667 0.750000
vt 0.083333 0.625000
vt 0.083333 0.593750
vt 0.083333 0.875000
vt 0.083333 0.750000
vt 0.125000 1.000000
vt 0.000000 0.750000
vt 0.000000 0.625000
vt 0.041667 1.000000
vt 0.000000 0.875000
vt 0.000000 0.593750
vt 0.500000 0.500000
vt 0.500000 0.562500
vt 0.416667 0.562500
vt 0.416667 0.500000
vt 1.000000 0.625000
vt 1.000000 0.750000
vt 0.916667 0.750000
vt 0.916667 0.625000
vt 1.000000 0.875000
vt 0.958333 1.000000
vt 0.916667 0.875000
vt 0.666667 0.500000
vt 0.666667 0.562500
vt 0.583333 0.562500
vt 0.583333 0.500000
vt 0.333333 0.562500
vt 0.333333 0.500000
vt 1.000000 0.593750
vt 0.916667 0.593750
vt 0.250000 0.562500
vt 0.250000 0.500000
vt 0.166667 0.500000
vt 0.166667 0.562500
vt 0.083333 0.562500
vt 0.083333 0.500000
vt 0.833333 0.625000
vt 0.833333 0.593750
vt 0.833333 0.875000
vt 0.833333 0.750000
vt 0.000000 0.562500
vt 0.000000 0.500000
vt 0.875000 1.000000
vt 0.833333 0.500000
vt 0.833333 0.562500
vt 0.750000 0.562500
vt 0.750000 0.500000
vt 1.000000 0.500000
vt 1.000000 0.562500
vt 0.916667 0.562500
vt 0.916667 0.500000
vt 0.791667 1.000000
s 0
usemtl Material.065
f 62/1/1 57/2/1 4/3/1 70/4/1
f 1/5/2 56/6/2 2/7/2 3/8/2
f 57/2/3 1/5/3 3/8/3 4/3/3
f 56/6/4 30/9/4 2/7/4
f 4/3/5 3/8/5 7/10/5 8/11/5
f 2/7/6 30/12/6 6/13/6
f 70/4/7 4/3/7 8/11/7 69/14/7
f 3/8/8 2/7/8 6/13/8 7/10/8
f 8/11/9 7/10/9 11/15/9 12/16/9
f 6/13/10 30/17/10 10/18/10
f 69/14/11 8/11/11 12/16/11 68/19/11
f 7/10/12 6/13/12 10/18/12 11/15/12
f 68/19/13 12/16/13 16/20/13 71/21/13
f 11/15/14 10/18/14 14/22/14 15/23/14
f 12/16/15 11/15/15 15/23/15 16/20/15
f 10/18/16 30/24/16 14/22/16
f 15/23/17 14/22/17 18/25/17 19/26/17
f 16/20/18 15/23/18 19/26/18 20/27/18
f 14/22/19 30/28/19 18/25/19
f 71/21/20 16/20/20 20/27/20 72/29/20
f 20/27/21 19/26/21 23/30/21 24/31/21
f 18/25/22 30/32/22 22/33/22
f 72/29/23 20/27/23 24/31/23 65/34/23
f 19/26/24 18/25/24 22/33/24 23/30/24
f 22/33/25 30/35/25 26/36/25
f 65/34/26 24/31/26 28/37/26 73/38/26
f 23/30/27 22/33/27 26/36/27 27/39/27
f 24/31/28 23/30/28 27/39/28 28/37/28
f 73/38/29 28/37/29 33/40/29 64/41/29
f 27/39/30 26/36/30 31/42/30 32/43/30
f 28/37/31 27/39/31 32/43/31 33/40/31
f 26/36/32 30/44/32 31/42/32
f 33/40/33 32/43/33 36/45/33 37/46/33
f 31/42/34 30/47/34 35/48/34
f 64/41/35 33/40/35 37/46/35 63/49/35
f 32/43/36 31/42/36 35/48/36 36/45/36
f 13/50/37 59/51/37 55/52/37 17/53/37
f 37/54/38 36/55/38 43/56/38 44/57/38
f 35/58/39 30/59/39 42/60/39
f 5/61/40 61/62/40 60/63/40 9/64/40
f 17/53/41 55/52/41 54/65/41 21/66/41
f 63/67/42 37/54/42 44/57/42 66/68/42
f 36/55/43 35/58/43 42/60/43 43/56/43
f 21/66/44 54/65/44 53/69/44 25/70/44
f 9/64/45 60/63/45 59/51/45 13/50/45
f 29/71/46 48/72/46 47/73/46 34/74/46
f 66/68/47 44/57/47 51/75/47 67/76/47
f 43/56/48 42/60/48 49/77/48 50/78/48
f 34/74/49 47/73/49 46/79/49 38/80/49
f 25/70/50 53/69/50 48/72/50 29/71/50
f 44/57/51 43/56/51 50/78/51 51/75/51
f 42/60/52 30/81/52 49/77/52
f 67/76/53 51/75/53 57/2/53 62/1/53
f 50/78/54 49/77/54 56/6/54 1/5/54
f 52/82/55 40/83/55 39/84/55 58/85/55
f 38/86/56 46/87/56 41/88/56 45/89/56
f 51/75/57 50/78/57 1/5/57 57/2/57
f 49/77/58 30/90/58 56/6/58
f 58/85/59 39/84/59 61/62/59 5/61/59
f 45/89/60 41/88/60 40/83/60 52/82/60
usemtl Material.066
f 40/83/53 67/76/53 62/1/53 39/84/53
f 41/88/47 66/68/47 67/76/47 40/83/47
f 46/87/42 63/67/42 66/68/42 41/88/42
f 47/73/35 64/41/35 63/49/35 46/79/35
f 48/72/29 73/38/29 64/41/29 47/73/29
f 53/69/26 65/34/26 73/38/26 48/72/26
f 54/65/23 72/29/23 65/34/23 53/69/23
f 55/52/20 71/21/20 72/29/20 54/65/20
f 59/51/13 68/19/13 71/21/13 55/52/13
f 60/63/11 69/14/11 68/19/11 59/51/11
f 61/62/7 70/4/7 69/14/7 60/63/7
f 39/84/1 62/1/1 70/4/1 61/62/1
