# Blender 4.5.3 LTS
# www.blender.org
mtllib us_helm.mtl
o us_heml
v -0.027547 0.137960 -0.080265
v 0.016229 0.161425 -0.027683
v 0.029430 0.137698 -0.080679
v 0.038091 0.095023 -0.121072
v 0.040060 0.044871 -0.145055
v 0.042831 0.158550 -0.013057
v 0.078585 0.132385 -0.053654
v 0.102315 0.088082 -0.085763
v 0.110409 0.032384 -0.104495
v 0.058072 0.153712 0.012498
v 0.106746 0.123445 -0.006434
v 0.139109 0.076401 -0.024066
v 0.150235 0.019741 -0.037715
v 0.057868 0.148207 0.042137
v 0.106368 0.113273 0.048331
v 0.138616 0.063111 0.047488
v 0.147797 -0.007065 0.039579
v 0.042273 0.143510 0.067917
v 0.077553 0.104595 0.095966
v 0.100967 0.051773 0.109726
v 0.109532 -0.021524 0.106918
v 0.015466 0.140881 0.082930
v 0.028021 0.099737 0.123707
v 0.036250 0.045425 0.145971
v 0.039381 -0.025840 0.146181
v -0.015370 0.141023 0.083154
v -0.028956 0.099999 0.124121
v -0.038194 0.045767 0.146512
v -0.041095 -0.028024 0.146735
v 0.000497 0.162593 0.029848
v -0.041972 0.143898 0.068529
v -0.078111 0.105312 0.097097
v -0.102418 0.052709 0.111203
v -0.110697 -0.018324 0.108544
v -0.057213 0.148736 0.042973
v -0.106272 0.114252 0.049876
v -0.139213 0.064390 0.049506
v -0.148617 0.006740 0.041919
v -0.038601 0.058184 -0.135106
v -0.106916 0.051483 -0.096845
v -0.146659 0.039514 -0.031147
v -0.057008 0.154241 0.013334
v -0.105895 0.124424 -0.004889
v -0.138719 0.077680 -0.022048
v -0.150485 0.021125 -0.035531
v -0.147180 0.025486 0.044386
v -0.108339 0.013155 0.109513
v -0.040545 0.005828 0.146785
v -0.041414 0.158938 -0.012445
v -0.077079 0.133102 -0.052524
v -0.101070 0.089018 -0.084286
v -0.110567 0.038371 -0.105238
v 0.038039 0.005466 0.146214
v 0.106354 0.012167 0.107954
v 0.146097 0.024135 0.042255
v -0.014607 0.161567 -0.027459
v -0.036353 0.095366 -0.120531
v -0.040518 0.045242 -0.144470
v 0.146618 0.038164 -0.033277
v 0.107777 0.050495 -0.098405
v 0.039982 0.057822 -0.135676
v -0.037975 0.068540 -0.131046
v -0.144961 0.036321 0.045812
v -0.106690 0.024172 0.109984
v 0.037540 0.016595 0.146147
v -0.144448 0.050144 -0.028612
v -0.105288 0.061937 -0.093347
v 0.144526 0.048814 -0.030712
v 0.106256 0.060963 -0.094884
v 0.039456 0.068184 -0.131609
v -0.039890 0.016952 0.146709
v 0.144013 0.034991 0.043713
v 0.104854 0.023198 0.108447
v 0.147816 0.006338 0.000932
v 0.138863 0.069756 0.011711
v 0.106557 0.118359 0.020949
v 0.057970 0.150959 0.027318
v 0.146357 0.031150 0.004489
v 0.144270 0.041903 0.006501
v -0.146920 0.032500 0.006620
v -0.148354 0.013933 0.003194
v -0.138966 0.071035 0.013729
v -0.106084 0.119338 0.022493
v -0.057111 0.151489 0.028154
v -0.144704 0.043233 0.008600
v 0.145242 -0.075735 0.028624
v -0.146853 -0.077260 0.033144
v 0.145567 -0.069998 -0.010119
v -0.146341 -0.076201 -0.005658
v 0.145714 -0.066071 -0.004841
v 0.147626 0.000088 0.004738
v 0.147676 -0.010188 0.034361
v 0.145400 -0.070450 0.024746
v -0.146558 -0.069857 0.001535
v -0.148267 0.006205 0.009005
v -0.148421 0.001416 0.034789
v -0.146918 -0.070561 0.027270
vn -0.0021 0.6872 -0.7265
vn 0.0045 0.9998 -0.0191
vn -0.0051 0.3652 -0.9309
vn 0.0012 0.9128 -0.4084
vn 0.4809 0.3415 -0.8076
vn 0.2805 0.9002 -0.3332
vn 0.4123 0.6690 -0.6184
vn 0.1031 0.9946 0.0080
vn 0.8476 0.2756 -0.4533
vn 0.4876 0.8637 -0.1273
vn 0.7229 0.6152 -0.3146
vn 0.1757 0.9811 0.0809
vn 0.8373 0.5365 0.1054
vn 0.2028 0.9625 0.1802
vn 0.9823 0.1831 0.0408
vn 0.5644 0.8109 0.1545
vn 0.7224 0.4557 0.5200
vn 0.1769 0.9439 0.2790
vn 0.8446 0.0913 0.5276
vn 0.4894 0.7564 0.4339
vn 0.4864 0.0271 0.8733
vn 0.2857 0.7172 0.6357
vn 0.4182 0.3981 0.8165
vn 0.1053 0.9305 0.3509
vn 0.0084 0.7052 0.7090
vn 0.0085 0.3804 0.9248
vn 0.0070 0.9262 0.3769
vn 0.0073 0.0064 1.0000
vn -0.4059 0.4070 0.8183
vn -0.0916 0.9323 0.3500
vn -0.4786 0.0342 0.8773
vn -0.2708 0.7236 0.6348
vn -0.1643 0.9467 0.2772
vn -0.8454 0.1042 0.5239
vn -0.4779 0.7660 0.4300
vn -0.7164 0.4694 0.5161
vn 0.8590 0.0354 0.5107
vn -0.9800 0.1968 0.0298
vn -0.5547 0.8188 0.1482
vn 0.4872 0.0195 0.8730
vn 0.9984 0.0543 0.0182
vn -0.8308 0.5482 0.0961
vn -0.1913 0.9653 0.1780
vn 0.4901 0.4225 -0.7624
vn -0.8599 0.0301 0.5095
vn 0.0071 -0.0012 1.0000
vn -0.7160 0.6203 -0.3201
vn -0.1655 0.9830 0.0790
vn -0.4807 0.0077 0.8769
vn -0.8424 0.2844 -0.4578
vn -0.4798 0.8674 -0.1322
vn -0.9902 0.1307 0.0485
vn -0.4119 0.6695 -0.6181
vn -0.0938 0.9956 0.0069
vn -0.0032 0.5865 -0.8099
vn -0.8346 0.3653 -0.4122
vn -0.4842 0.3445 -0.8043
vn -0.2760 0.9008 -0.3351
vn -0.4440 0.5675 -0.6934
vn 0.9925 0.1049 0.0628
vn -0.9971 0.0756 0.0072
vn -0.9997 -0.0205 -0.0122
vn 0.9995 -0.0326 -0.0036
vn 0.9994 -0.0314 -0.0113
vn 0.9994 -0.0338 0.0043
vn 0.9996 -0.0288 -0.0026
vn 0.9993 -0.0367 -0.0046
vn -0.9997 -0.0206 -0.0103
vn -0.9997 -0.0203 -0.0140
vn -0.9997 -0.0197 -0.0121
vn -0.9997 -0.0212 -0.0122
vt 0.750000 0.625000
vt 0.750000 0.750000
vt 0.666667 0.750000
vt 0.666667 0.625000
vt 0.750000 0.875000
vt 0.708333 1.000000
vt 0.666667 0.875000
vt 0.750000 0.564140
vt 0.666667 0.564140
vt 0.583333 0.625000
vt 0.583333 0.564140
vt 0.583333 0.875000
vt 0.583333 0.750000
vt 0.625000 1.000000
vt 0.500000 0.625000
vt 0.500000 0.564140
vt 0.500000 0.875000
vt 0.500000 0.750000
vt 0.541667 1.000000
vt 0.458333 0.625000
vt 0.458333 0.750000
vt 0.416667 0.750000
vt 0.416667 0.625000
vt 0.458333 1.000000
vt 0.416667 0.875000
vt 0.458333 0.875000
vt 0.458333 0.564140
vt 0.416667 0.564140
vt 0.333333 0.750000
vt 0.333333 0.625000
vt 0.375000 1.000000
vt 0.333333 0.875000
vt 0.333333 0.564140
vt 0.250000 0.625000
vt 0.250000 0.564140
vt 0.250000 0.875000
vt 0.250000 0.750000
vt 0.291667 1.000000
vt 0.166667 0.875000
vt 0.166667 0.750000
vt 0.166667 0.625000
vt 0.208333 1.000000
vt 0.166667 0.564140
vt 0.083333 0.750000
vt 0.083333 0.625000
vt 0.125000 1.000000
vt 0.083333 0.875000
vt 0.083333 0.564140
vt 0.041667 1.000000
vt 0.000000 0.875000
vt 0.000000 0.625000
vt 0.000000 0.564140
vt 0.000000 0.750000
vt 0.416667 0.500000
vt 0.416667 0.540645
vt 0.333333 0.540645
vt 0.333333 0.500000
vt 0.958333 0.564140
vt 0.958333 0.625000
vt 0.916667 0.625000
vt 0.916667 0.564140
vt 0.958333 0.750000
vt 0.958333 0.875000
vt 0.916667 0.875000
vt 0.916667 0.750000
vt 0.250000 0.540645
vt 0.250000 0.500000
vt 0.458333 0.500000
vt 0.458333 0.540645
vt 1.000000 0.875000
vt 0.958333 1.000000
vt 0.666667 0.500000
vt 0.666667 0.540645
vt 0.583333 0.540645
vt 0.583333 0.500000
vt 0.083333 0.500000
vt 0.083333 0.540645
vt 0.000000 0.540645
vt 0.000000 0.500000
vt 0.166667 0.540645
vt 0.166667 0.500000
vt 0.833333 0.750000
vt 0.833333 0.625000
vt 0.875000 1.000000
vt 0.833333 0.875000
vt 0.500000 0.540645
vt 0.500000 0.500000
vt 0.833333 0.564140
vt 0.958333 0.500000
vt 0.958333 0.540645
vt 0.916667 0.540645
vt 0.916667 0.500000
vt 0.791667 1.000000
vt 0.750000 0.500000
vt 0.750000 0.540645
vt 0.833333 0.540645
vt 0.833333 0.500000
vt 1.000000 0.540645
vt 1.000000 0.564140
vt 1.000000 0.500000
vt 1.000000 0.625000
vt 1.000000 0.750000
vt 0.993048 0.500000
vt 0.965286 0.500000
vt 0.965357 0.500000
vt 0.992975 0.500000
vt 0.453484 0.500000
vt 0.421512 0.500000
vt 0.421607 0.500000
vt 0.453392 0.500000
s 0
usemtl Material.067
f 57/1/1 1/2/1 3/3/1 4/4/1
f 56/5/2 30/6/2 2/7/2
f 62/8/3 57/1/3 4/4/3 70/9/3
f 1/2/4 56/5/4 2/7/4 3/3/4
f 70/9/5 4/4/5 8/10/5 69/11/5
f 3/3/6 2/7/6 6/12/6 7/13/6
f 4/4/7 3/3/7 7/13/7 8/10/7
f 2/7/8 30/14/8 6/12/8
f 69/11/9 8/10/9 12/15/9 68/16/9
f 7/13/10 6/12/10 10/17/10 11/18/10
f 8/10/11 7/13/11 11/18/11 12/15/11
f 6/12/12 30/19/12 10/17/12
f 75/20/13 76/21/13 15/22/13 16/23/13
f 10/17/14 30/24/14 14/25/14 77/26/14
f 79/27/15 75/20/15 16/23/15 72/28/15
f 76/21/16 77/26/16 14/25/16 15/22/16
f 16/23/17 15/22/17 19/29/17 20/30/17
f 14/25/18 30/31/18 18/32/18
f 72/28/19 16/23/19 20/30/19 73/33/19
f 15/22/20 14/25/20 18/32/20 19/29/20
f 73/33/21 20/30/21 24/34/21 65/35/21
f 19/29/22 18/32/22 22/36/22 23/37/22
f 20/30/23 19/29/23 23/37/23 24/34/23
f 18/32/24 30/38/24 22/36/24
f 23/37/25 22/36/25 26/39/25 27/40/25
f 24/34/26 23/37/26 27/40/26 28/41/26
f 22/36/27 30/42/27 26/39/27
f 65/35/28 24/34/28 28/41/28 71/43/28
f 28/41/29 27/40/29 32/44/29 33/45/29
f 26/39/30 30/46/30 31/47/30
f 71/43/31 28/41/31 33/45/31 64/48/31
f 27/40/32 26/39/32 31/47/32 32/44/32
f 31/47/33 30/49/33 35/50/33
f 64/48/34 33/45/34 37/51/34 63/52/34
f 32/44/35 31/47/35 35/50/35 36/53/35
f 33/45/36 32/44/36 36/53/36 37/51/36
f 17/54/37 55/55/37 54/56/37 21/57/37
f 85/58/38 82/59/38 44/60/38 66/61/38
f 83/62/39 84/63/39 42/64/39 43/65/39
f 21/57/40 54/56/40 53/66/40 25/67/40
f 74/68/41 78/69/41 55/55/41 17/54/41
f 82/59/42 83/62/42 43/65/42 44/60/42
f 35/70/43 30/71/43 42/64/43 84/63/43
f 5/72/44 61/73/44 60/74/44 9/75/44
f 34/76/45 47/77/45 46/78/45 38/79/45
f 25/67/46 53/66/46 48/80/46 29/81/46
f 44/60/47 43/65/47 50/82/47 51/83/47
f 42/64/48 30/84/48 49/85/48
f 9/75/9 60/74/9 59/86/9 13/87/9
f 29/81/49 48/80/49 47/77/49 34/76/49
f 66/61/50 44/60/50 51/83/50 67/88/50
f 43/65/51 42/64/51 49/85/51 50/82/51
f 81/89/52 80/90/52 41/91/52 45/92/52
f 51/83/53 50/82/53 1/2/53 57/1/53
f 49/85/54 30/93/54 56/5/54
f 58/94/55 39/95/55 61/73/55 5/72/55
f 45/92/56 41/91/56 40/96/56 52/97/56
f 67/88/57 51/83/57 57/1/57 62/8/57
f 50/82/58 49/85/58 56/5/58 1/2/58
f 52/97/59 40/96/59 39/95/59 58/94/59
f 13/87/60 59/86/60 78/69/60 74/68/60
f 11/18/16 10/17/16 77/26/16 76/21/16
f 68/16/15 12/15/15 75/20/15 79/27/15
f 12/15/13 11/18/13 76/21/13 75/20/13
f 38/100/61 46/98/61 80/90/61 81/89/61
f 37/101/42 36/102/42 83/62/42 82/59/42
f 36/102/39 35/70/39 84/63/39 83/62/39
f 63/99/38 37/101/38 82/59/38 85/58/38
f 91/107/66 90/110/66 88/68/66 74/68/66
f 93/109/67 92/108/67 17/54/67 86/54/67
f 96/103/70 97/106/70 87/100/70 38/100/70
f 94/105/71 95/104/71 81/89/71 89/89/71
usemtl Material.068
f 40/96/57 67/88/57 62/8/57 39/95/57
f 41/91/50 66/61/50 67/88/50 40/96/50
f 80/90/38 85/58/38 66/61/38 41/91/38
f 47/77/34 64/48/34 63/52/34 46/78/34
f 48/80/31 71/43/31 64/48/31 47/77/31
f 53/66/28 65/35/28 71/43/28 48/80/28
f 54/56/21 73/33/21 65/35/21 53/66/21
f 55/55/19 72/28/19 73/33/19 54/56/19
f 78/69/15 79/27/15 72/28/15 55/55/15
f 60/74/9 69/11/9 68/16/9 59/86/9
f 61/73/5 70/9/5 69/11/5 60/74/5
f 39/95/3 62/8/3 70/9/3 61/73/3
f 59/86/15 68/16/15 79/27/15 78/69/15
f 46/98/38 63/99/38 85/58/38 80/90/38
f 96/103/62 95/104/62 94/105/62 97/106/62
f 91/107/63 92/108/63 93/109/63 90/110/63
f 92/108/64 91/107/64 74/68/64 17/54/64
f 90/110/65 93/109/65 86/54/65 88/68/65
f 95/104/68 96/103/68 38/100/68 81/89/68
f 97/106/69 94/105/69 89/89/69 87/100/69
