# Blender 5.0.1
# www.blender.org
mtllib us_heli_helm.mtl
o us_heml
v -0.027547 0.137960 -0.080265
v 0.016229 0.161425 -0.027683
v 0.029430 0.137698 -0.080679
v 0.037393 0.095023 -0.121072
v 0.038591 -0.012218 -0.145160
v 0.042831 0.158550 -0.013057
v 0.078585 0.132385 -0.053654
v 0.096095 0.088082 -0.085763
v 0.101646 -0.037889 -0.104952
v 0.058072 0.153712 0.012498
v 0.102133 0.123445 -0.006434
v 0.115893 0.076401 -0.024066
v 0.122670 0.007024 -0.044070
v 0.057868 0.148207 0.042137
v 0.101771 0.113273 0.048331
v 0.113191 0.063111 0.047488
v 0.106486 -0.080676 0.050484
v 0.042273 0.143510 0.067917
v 0.077553 0.104595 0.095966
v 0.092960 0.051773 0.109726
v 0.088974 -0.072870 0.105555
v 0.015466 0.140881 0.082930
v 0.027508 0.099737 0.123707
v 0.034928 0.045425 0.145971
v 0.037938 -0.027483 0.146181
v -0.015370 0.141023 0.083154
v -0.028420 0.099999 0.124121
v -0.036652 0.045767 0.146512
v -0.039442 -0.028024 0.146735
v 0.000497 0.162593 0.029848
v -0.041972 0.143898 0.068529
v -0.078111 0.105312 0.097097
v -0.094140 0.052709 0.111203
v -0.089838 -0.072957 0.107181
v -0.057213 0.148736 0.042973
v -0.101669 0.114252 0.049876
v -0.113469 0.064390 0.049506
v -0.106947 -0.080384 0.052824
v -0.037044 0.058184 -0.135106
v -0.098278 0.051483 -0.096845
v -0.119543 0.039514 -0.031147
v -0.057008 0.154241 0.013334
v -0.101309 0.124424 -0.004889
v -0.115497 0.077680 -0.022048
v -0.122665 0.007039 -0.043256
v -0.136176 0.020039 0.062334
v -0.099587 0.013155 0.109513
v -0.038913 0.005828 0.146785
v -0.041414 0.158938 -0.012445
v -0.077079 0.133102 -0.052524
v -0.094910 0.089018 -0.084286
v -0.101637 -0.038598 -0.105238
v 0.036648 0.005466 0.146214
v 0.097916 0.012167 0.107954
v 0.140167 0.018635 0.060079
v -0.014607 0.161567 -0.027459
v -0.035681 0.095366 -0.120531
v -0.038887 -0.011847 -0.144575
v 0.119720 0.038164 -0.033277
v 0.099225 0.050495 -0.098405
v 0.038516 0.057822 -0.135676
v -0.035768 0.068540 -0.131046
v -0.107482 0.040486 0.076483
v -0.098070 0.024172 0.109984
v 0.036168 0.016595 0.146147
v -0.117740 0.050144 -0.028612
v -0.096780 0.061937 -0.093347
v 0.118013 0.048814 -0.030712
v 0.097826 0.060963 -0.094884
v 0.037314 0.068184 -0.131609
v -0.038283 0.016952 0.146709
v 0.111366 0.039156 0.074384
v 0.096536 0.023198 0.108447
v 0.106500 -0.087267 -0.033602
v 0.111309 0.069756 0.011711
v 0.101952 0.118359 0.020949
v 0.057970 0.150959 0.027318
v 0.147180 0.024770 -0.018024
v 0.117804 0.041903 0.006501
v -0.147606 0.026241 -0.015942
v -0.106757 -0.087159 -0.031340
v -0.115702 0.071035 0.013729
v -0.101489 0.119338 0.022493
v -0.057111 0.151489 0.028154
v -0.117948 0.043233 0.008600
v 0.002982 0.095137 -0.120892
v -0.001640 0.095252 -0.120711
v -0.001107 0.137873 -0.080403
v 0.002497 0.137785 -0.080541
v 0.001645 0.161472 -0.027608
v -0.000305 0.161520 -0.027534
v -0.001618 0.068421 -0.131234
v 0.003004 0.068303 -0.131421
v 0.002977 0.000394 -0.144965
v -0.001923 0.000517 -0.144770
v -0.001695 0.058063 -0.135296
v 0.003084 0.057943 -0.135486
v -0.109293 0.029651 0.075057
v -0.131820 -0.070489 0.044106
v -0.119756 0.037540 -0.026031
v -0.130316 -0.075759 -0.020361
v 0.113067 0.028300 0.072926
v 0.131090 -0.070700 0.041706
v 0.130292 -0.075765 -0.022483
v 0.119507 0.036190 -0.028162
vn -0.0063 0.6872 -0.7264
vn -0.0065 0.6872 -0.7264
vn -0.0015 0.6873 -0.7264
vn 0.0045 0.9998 -0.0191
vn -0.0159 0.3652 -0.9308
vn -0.0160 0.3652 -0.9308
vn -0.0037 0.3654 -0.9309
vn -0.0038 0.3652 -0.9309
vn 0.0037 0.9128 -0.4084
vn 0.0039 0.9128 -0.4084
vn 0.0009 0.9128 -0.4084
vn 0.5187 0.3287 -0.7893
vn 0.5187 0.3066 -0.7981
vn 0.5187 0.3281 -0.7895
vn 0.2805 0.9002 -0.3332
vn 0.4349 0.6483 -0.6250
vn 0.1031 0.9946 0.0080
vn 0.9470 0.1816 -0.2649
vn 0.9505 0.1460 -0.2743
vn 0.9473 0.1791 -0.2656
vn 0.5155 0.8493 -0.1140
vn 0.8613 0.4365 -0.2601
vn 0.1757 0.9811 0.0809
vn 0.9769 0.2045 0.0619
vn 0.9769 0.2045 0.0614
vn 0.9788 0.2047 0.0116
vn 0.2028 0.9625 0.1802
vn 0.9939 0.0820 0.0733
vn 0.9898 0.1230 0.0716
vn 0.9923 0.1119 0.0537
vn 0.9958 0.0592 0.0704
vn 0.6027 0.7838 0.1496
vn 0.6026 0.7839 0.1496
vn 0.8719 0.2777 0.4033
vn 0.1769 0.9439 0.2790
vn 0.8981 0.1759 0.4030
vn 0.8952 0.2191 0.3880
vn 0.8991 0.1408 0.4145
vn 0.5171 0.7477 0.4166
vn 0.5273 0.0279 0.8492
vn 0.2847 0.7161 0.6372
vn 0.4448 0.3692 0.8160
vn 0.1053 0.9305 0.3509
vn 0.0085 0.7052 0.7090
vn 0.0087 0.3804 0.9248
vn 0.0070 0.9262 0.3769
vn 0.0076 0.0064 1.0000
vn -0.4328 0.3779 0.8185
vn -0.0916 0.9323 0.3500
vn -0.5200 0.0352 0.8534
vn -0.5200 0.0352 0.8535
vn -0.2699 0.7226 0.6364
vn -0.1643 0.9467 0.2772
vn -0.9402 0.1171 0.3198
vn -0.9401 0.1199 0.3191
vn -0.9402 0.1185 0.3194
vn -0.5053 0.7578 0.4129
vn -0.8706 0.2898 0.3977
vn 0.9371 -0.1171 0.3289
vn -0.9962 0.0033 0.0870
vn -0.9975 0.0289 0.0646
vn -0.9968 0.0790 0.0090
vn -0.9923 0.1223 0.0169
vn -0.5925 0.7927 0.1433
vn -0.5925 0.7927 0.1432
vn 0.5616 -0.0534 0.8257
vn 0.5442 -0.0110 0.8389
vn 0.5447 -0.0107 0.8386
vn 0.9892 -0.1403 0.0422
vn -0.9632 0.2617 0.0613
vn -0.9632 0.2618 0.0613
vn -0.9605 0.2747 0.0451
vn -0.1913 0.9653 0.1780
vn -0.9557 -0.0939 0.2790
vn 0.0074 -0.0012 1.0000
vn 0.0079 0.0063 0.9999
vn 0.0075 0.0025 1.0000
vn -0.8545 0.4453 -0.2674
vn -0.1655 0.9830 0.0790
vn -0.5543 -0.0591 0.8302
vn -0.9436 0.1870 -0.2731
vn -0.9472 0.1521 -0.2822
vn -0.9433 0.1897 -0.2724
vn -0.5070 0.8536 -0.1195
vn -0.9400 -0.0954 0.3276
vn -0.4343 0.6491 -0.6245
vn -0.0938 0.9956 0.0069
vn -0.5219 0.3300 -0.7866
vn -0.5222 0.3078 -0.7953
vn -0.5219 0.3307 -0.7863
vn -0.2760 0.9008 -0.3351
vn 0.9259 -0.0985 0.3648
vn 0.9897 0.1293 0.0620
vn 0.9869 0.1342 0.0897
vn 0.9727 0.2038 0.1112
vn -0.9905 -0.1194 0.0681
vn -0.9655 0.2486 0.0776
vn -0.5926 0.7927 0.1433
vn -0.9921 -0.0373 0.1199
vn -0.9926 -0.0212 0.1197
vn -0.5214 0.3518 -0.7774
vn -0.9387 0.2224 -0.2634
vn -0.9889 0.1452 0.0327
vn -0.9864 0.1628 0.0243
vn -0.9403 0.1154 0.3202
vn 0.8982 0.0880 0.4307
vn 0.9923 0.1170 0.0396
vn 0.9964 0.0344 0.0781
vn 0.9433 0.1524 -0.2950
vn 0.9433 0.1542 -0.2939
vn 0.5184 0.3491 -0.7806
vn -0.0157 0.3651 -0.9308
vn -0.0038 0.3651 -0.9310
vn 0.9916 0.1246 0.0360
vn -0.9918 -0.0447 0.1200
vn -0.0038 0.3653 -0.9309
vn -0.0038 0.3651 -0.9309
vn -0.0159 0.3651 -0.9308
vn -0.0161 0.3652 -0.9308
vn -0.0325 0.1542 -0.9875
vn -0.0327 0.1548 -0.9874
vn -0.0074 0.1549 -0.9879
vn -0.0041 0.1540 -0.9881
vn 0.0009 0.9128 -0.4083
vn 0.0038 0.9128 -0.4083
vn -0.0038 0.3650 -0.9310
vn -0.0156 0.3651 -0.9309
vn -0.0015 0.6871 -0.7265
vn -0.0063 0.6871 -0.7265
vn -0.0064 0.6871 -0.7265
vn -0.5043 0.5353 0.6776
vn -0.4050 -0.7300 0.5506
vn -0.4213 -0.7001 0.5766
vn -0.5052 0.4626 0.7285
vn -0.5246 -0.6055 -0.5985
vn -0.5174 0.6457 -0.5615
vn -0.5176 0.6403 -0.5676
vn -0.5254 -0.6500 -0.5489
vn -0.4704 -0.6475 0.5996
vn -0.4712 -0.6057 0.6411
vn 0.4637 -0.6602 0.5909
vn 0.5151 0.5318 0.6722
vn 0.5161 0.4575 0.7241
vn 0.4644 -0.6807 0.5666
vn 0.5327 -0.5835 -0.6130
vn 0.5340 -0.5749 -0.6200
vn 0.5160 0.6499 -0.5580
vn 0.4706 -0.6805 -0.5617
vn 0.4865 -0.6854 -0.5419
vn 0.5165 0.6266 -0.5835
vn 0.5460 0.0929 -0.8326
vn 0.9387 0.0905 -0.3327
vn 0.0210 0.1470 -0.9889
vn -0.9353 0.1059 -0.3377
vn -0.5485 0.1103 -0.8288
vn -0.0302 0.1473 -0.9886
vt 0.705908 0.624842
vt 0.706059 0.749857
vt 0.666667 0.750000
vt 0.666667 0.625000
vt 0.750000 0.875000
vt 0.708333 1.000000
vt 0.666667 0.875000
vt 0.706079 0.874927
vt 0.711349 0.875067
vt 0.705740 0.563986
vt 0.666667 0.564140
vt 0.583333 0.625000
vt 0.583333 0.564140
vt 0.583333 0.875000
vt 0.583333 0.750000
vt 0.625000 1.000000
vt 0.500000 0.625000
vt 0.500000 0.564140
vt 0.500000 0.875000
vt 0.500000 0.750000
vt 0.541667 1.000000
vt 0.458333 0.625000
vt 0.458333 0.750000
vt 0.416667 0.750000
vt 0.416667 0.625000
vt 0.458333 1.000000
vt 0.416667 0.875000
vt 0.458333 0.875000
vt 0.458333 0.564140
vt 0.416667 0.564140
vt 0.333333 0.750000
vt 0.333333 0.625000
vt 0.375000 1.000000
vt 0.333333 0.875000
vt 0.333333 0.564140
vt 0.250000 0.625000
vt 0.250000 0.564140
vt 0.250000 0.875000
vt 0.250000 0.750000
vt 0.291667 1.000000
vt 0.166667 0.875000
vt 0.166667 0.750000
vt 0.166667 0.625000
vt 0.208333 1.000000
vt 0.166667 0.564140
vt 0.083333 0.750000
vt 0.083333 0.625000
vt 0.125000 1.000000
vt 0.083333 0.875000
vt 0.083333 0.564140
vt 0.041667 1.000000
vt 0.000000 0.875000
vt 0.000000 0.625000
vt 0.000000 0.564140
vt 0.000000 0.750000
vt 0.416667 0.500000
vt 0.416667 0.540645
vt 0.333333 0.540645
vt 0.333333 0.500000
vt 0.958333 0.564140
vt 0.958333 0.625000
vt 0.916667 0.625000
vt 0.916667 0.564140
vt 0.958333 0.750000
vt 0.958333 0.875000
vt 0.916667 0.875000
vt 0.916667 0.750000
vt 0.250000 0.540645
vt 0.250000 0.500000
vt 0.453205 0.503617
vt 0.453812 0.537054
vt 0.421211 0.536828
vt 0.421849 0.503864
vt 1.000000 0.875000
vt 0.958333 1.000000
vt 0.083333 0.500000
vt 0.083333 0.540645
vt 0.000000 0.540645
vt 0.000000 0.500000
vt 0.166667 0.540645
vt 0.166667 0.500000
vt 0.833333 0.750000
vt 0.833333 0.625000
vt 0.875000 1.000000
vt 0.833333 0.875000
vt 0.833333 0.564140
vt 0.958333 0.500000
vt 0.958333 0.540645
vt 0.916667 0.540645
vt 0.916667 0.500000
vt 0.750000 0.750000
vt 0.750000 0.625000
vt 0.791667 1.000000
vt 0.750000 0.564140
vt 0.500000 0.500000
vt 0.500000 0.540645
vt 0.458333 0.540645
vt 0.458333 0.500000
vt 0.994855 0.503791
vt 0.995504 0.536901
vt 0.962806 0.537116
vt 0.963423 0.503554
vt 1.000000 0.625000
vt 1.000000 0.750000
vt 1.000000 0.564140
vt 0.833333 0.540645
vt 0.750000 0.540645
vt 0.583333 0.540645
vt 0.666667 0.540645
vt 0.705774 0.540531
vt 1.000000 0.540645
vt 0.711083 0.564292
vt 0.710970 0.540773
vt 0.710245 0.500049
vt 0.704971 0.499956
vt 0.711329 0.750135
vt 0.711179 0.625166
vt 1.000000 0.500000
vt 0.666667 0.500000
vt 0.583333 0.500000
vt 0.833333 0.500000
vt 0.750000 0.500000
s 1
usemtl Material.067
f 86/1/1 89/2/2 3/3/3 4/4/3
f 56/5/4 30/6/4 2/7/4 90/8/4 91/9/4
f 93/10/5 86/1/6 4/4/7 70/11/8
f 89/2/9 90/8/10 2/7/11 3/3/11
f 70/11/12 4/4/13 8/12/13 69/13/14
f 3/3/15 2/7/15 6/14/15 7/15/15
f 4/4/16 3/3/16 7/15/16 8/12/16
f 2/7/17 30/16/17 6/14/17
f 69/13/18 8/12/19 12/17/19 68/18/20
f 7/15/21 6/14/21 10/19/21 11/20/21
f 8/12/22 7/15/22 11/20/22 12/17/22
f 6/14/23 30/21/23 10/19/23
f 75/22/24 76/23/25 15/24/26 16/25/26
f 10/19/27 30/26/27 14/27/27 77/28/27
f 79/29/28 75/22/29 16/25/30 72/30/31
f 76/23/32 77/28/32 14/27/33 15/24/33
f 16/25/34 15/24/34 19/31/34 20/32/34
f 14/27/35 30/33/35 18/34/35
f 72/30/36 16/25/37 20/32/37 73/35/38
f 15/24/39 14/27/39 18/34/39 19/31/39
f 73/35/40 20/32/40 24/36/40 65/37/40
f 19/31/41 18/34/41 22/38/41 23/39/41
f 20/32/42 19/31/42 23/39/42 24/36/42
f 18/34/43 30/40/43 22/38/43
f 23/39/44 22/38/44 26/41/44 27/42/44
f 24/36/45 23/39/45 27/42/45 28/43/45
f 22/38/46 30/44/46 26/41/46
f 65/37/47 24/36/47 28/43/47 71/45/47
f 28/43/48 27/42/48 32/46/48 33/47/48
f 26/41/49 30/48/49 31/49/49
f 71/45/50 28/43/51 33/47/51 64/50/50
f 27/42/52 26/41/52 31/49/52 32/46/52
f 31/49/53 30/51/53 35/52/53
f 64/50/54 33/47/55 37/53/55 63/54/56
f 32/46/57 31/49/57 35/52/57 36/55/57
f 33/47/58 32/46/58 36/55/58 37/53/58
f 17/56/59 102/57/59 54/58/59 21/59/59
f 85/60/60 82/61/61 44/62/62 66/63/63
f 83/64/64 84/65/64 42/66/65 43/67/65
f 21/59/66 54/58/67 53/68/68 25/69/66
f 104/70/69 78/71/69 55/72/69 103/73/69
f 82/61/70 83/64/71 43/67/72 44/62/72
f 35/74/73 30/75/73 42/66/73 84/65/73
f 34/76/74 47/77/74 98/78/74 38/79/74
f 25/69/75 53/68/76 48/80/77 29/81/75
f 44/62/78 43/67/78 50/82/78 51/83/78
f 42/66/79 30/84/79 49/85/79
f 29/81/80 48/80/80 47/77/80 34/76/80
f 66/63/81 44/62/82 51/83/82 67/86/83
f 43/67/84 42/66/84 49/85/84 50/82/84
f 81/87/85 100/88/85 41/89/85 45/90/85
f 51/83/86 50/82/86 1/91/86 57/92/86
f 49/85/87 30/93/87 56/5/87
f 67/86/88 51/83/89 57/92/89 62/94/90
f 50/82/91 49/85/91 56/5/91 1/91/91
f 13/95/92 59/96/92 105/97/92 74/98/92
f 11/20/32 10/19/32 77/28/32 76/23/32
f 68/18/93 12/17/94 75/22/29 79/29/28
f 12/17/95 11/20/95 76/23/25 75/22/24
f 99/99/96 46/100/96 80/101/96 101/102/96
f 37/103/97 36/104/97 83/64/71 82/61/70
f 36/104/98 35/74/98 84/65/64 83/64/64
f 63/105/99 37/103/100 82/61/61 85/60/60
f 40/106/101 67/86/88 62/94/90 39/107/101
f 41/89/102 66/63/81 67/86/83 40/106/102
f 100/88/103 85/60/60 66/63/63 41/89/104
f 47/77/105 64/50/54 63/54/56 98/78/105
f 48/80/50 71/45/50 64/50/50 47/77/50
f 53/68/76 65/37/47 71/45/47 48/80/77
f 54/58/67 73/35/40 65/37/40 53/68/68
f 102/57/106 72/30/36 73/35/38 54/58/106
f 105/97/107 79/29/28 72/30/31 102/57/108
f 60/108/109 69/13/18 68/18/20 59/96/110
f 61/109/111 70/11/12 69/13/14 60/108/111
f 97/110/112 93/10/5 70/11/8 61/109/113
f 59/96/114 68/18/93 79/29/28 105/97/107
f 98/111/115 63/105/99 85/60/60 100/88/103
f 39/107/116 62/94/117 92/112/118 96/113/119
f 96/113/119 92/112/118 93/10/5 97/110/112
f 95/114/120 96/113/121 97/110/122 94/115/123
f 1/91/124 56/5/124 91/9/125 88/116/125
f 88/116/125 91/9/125 90/8/10 89/2/9
f 62/94/117 57/92/126 87/117/127 92/112/118
f 92/112/118 87/117/127 86/1/6 93/10/5
f 57/92/128 1/91/128 88/116/129 87/117/130
f 87/117/130 88/116/129 89/2/2 86/1/1
f 46/100/131 99/99/132 38/118/133 98/111/134
f 101/102/135 80/101/136 100/88/137 81/87/138
f 99/99/139 101/102/135 81/87/138 38/118/140
f 80/101/136 46/100/131 98/111/134 100/88/137
f 103/73/141 55/72/142 102/57/143 17/56/144
f 104/70/145 103/73/141 17/56/144 74/98/146
f 78/71/147 104/70/148 74/98/149 105/97/150
f 55/72/142 78/71/147 105/97/150 102/57/143
usemtl Material.068
f 5/119/151 61/109/151 60/108/151 9/120/151
f 9/120/152 60/108/109 59/96/110 13/95/152
f 94/115/123 97/110/122 61/109/153 5/119/153
f 45/90/154 41/89/154 40/106/154 52/121/154
f 52/121/155 40/106/155 39/107/155 58/122/155
f 58/122/156 39/107/156 96/113/121 95/114/120
