# Blender 5.0.1
# www.blender.org
mtllib corner_wall_wooded.mtl
o Plane
v -1.000000 0.000000 0.930353
v 0.938906 0.000000 0.930353
v -1.000000 -0.000000 -1.000000
v 0.938906 -0.000000 -1.000000
v -0.772552 -0.000000 -0.781673
v -0.772552 0.000000 0.927614
v 0.936735 0.000000 0.927614
v 0.936735 -0.000000 -0.781673
v -0.858049 0.099332 -0.853488
v -0.858049 0.099332 0.855988
v 0.850809 0.099332 -0.853488
v -0.905382 0.099332 -0.900821
v -0.905382 0.099332 0.856172
v 0.850395 0.099332 -0.900821
v -0.809037 0.099332 -0.804476
v 0.900250 0.099332 -0.804476
v -0.954394 0.099332 -0.949833
v 0.898981 0.099332 -0.949833
v -0.809037 0.099332 0.904810
v -0.954394 0.099332 0.905374
v -0.858049 0.491215 -0.853488
v -0.858049 0.491215 0.842311
v 0.821502 0.491215 -0.853488
v -0.905382 0.491215 -0.900821
v -0.905382 0.491215 0.842495
v 0.821088 0.491215 -0.900821
v -0.734640 0.234464 -0.735203
v -0.734640 0.234464 0.867436
v -0.734640 0.177428 0.867436
v -0.035125 0.177428 0.867436
v -0.035125 0.234464 0.867436
v -0.035125 0.177428 -0.735203
v -0.035125 0.234464 -0.735203
v -0.734640 0.234464 -0.057676
v -0.734640 0.177428 -0.057676
v -0.035125 0.177428 -0.057676
v -0.035125 0.234464 -0.057676
v 0.892314 0.234464 -0.735203
v 0.892314 0.177428 -0.735203
v 0.892314 0.177428 -0.057676
v 0.892314 0.234464 -0.057676
v -0.035125 0.234464 0.741311
v -0.734640 0.234464 0.741311
v -0.035125 0.177428 0.741311
v 0.758258 0.234464 -0.735203
v 0.758258 0.234464 -0.057676
v 0.758258 0.177428 -0.057676
v -0.035125 0.021226 -0.735203
v 0.892314 0.021007 -0.057676
v -0.035125 0.021226 -0.057676
v -0.734640 0.021226 -0.057676
v -0.734640 0.022973 0.867436
v -0.035125 0.022973 0.867436
v -0.035125 0.022973 0.741311
v 0.892314 0.021007 -0.735203
v 0.758258 0.021007 -0.057676
vn -0.0000 0.2237 0.9746
vn -0.0000 1.0000 -0.0000
vn -0.0000 0.4508 -0.8926
vn -0.0000 -0.0000 -1.0000
vn 1.0000 -0.0000 -0.0000
vn 0.0086 0.2335 0.9723
vn -0.9088 0.4173 -0.0000
vn 0.9334 0.3587 0.0023
vn 0.9387 0.3448 -0.0000
vn -1.0000 -0.0000 -0.0000
vn 0.0039 0.0349 0.9994
vn -0.0000 -0.0000 1.0000
vn 0.9972 0.0746 -0.0087
vt 0.072678 0.927322
vt 0.927322 0.927322
vt 0.927322 0.072678
vt 0.072678 0.072678
vt 0.000000 0.000000
vt 1.000000 0.000000
vt 1.000000 1.000000
vt 0.949829 0.975494
vt 0.024506 0.975494
vt 0.048172 0.073447
vt 0.048172 0.951828
vt 0.926552 0.951828
vt 0.000000 1.000000
vt 0.024506 0.050163
vt 0.375000 0.732958
vt 0.625000 0.732958
vt 0.625000 0.750000
vt 0.375000 0.750000
vt 0.625000 1.000000
vt 0.375000 1.000000
vt 0.875000 0.732958
vt 0.875000 0.750000
vt 0.625000 0.500000
vt 0.875000 0.500000
vt 0.875000 0.625000
vt 0.625000 0.625000
vt 0.375000 0.625000
vt 0.125000 0.625000
vt 0.375000 0.500000
vt 0.625000 0.625000
s 0
usemtl Material.074
f 5/1/1 8/2/1 16/2/1 15/1/1
f 7/3/2 6/4/2 1/5/2 2/6/2
f 8/2/2 7/3/2 2/6/2 4/7/2
f 4/5/3 3/5/3 17/5/3 18/5/3
f 1/5/6 6/4/6 19/4/6 20/5/6
f 3/5/7 1/5/7 20/5/7 17/5/7
f 8/2/8 4/7/8 18/7/8 16/2/8
f 6/4/9 5/1/9 15/1/9 19/4/9
f 11/12/2 9/11/2 15/1/2 16/2/2
f 12/9/2 14/8/2 18/7/2 17/13/2
f 10/10/2 13/14/2 20/5/2 19/4/2
f 9/11/2 10/10/2 19/4/2 15/1/2
f 13/14/2 12/9/2 17/13/2 20/5/2
f 14/8/2 11/12/2 16/2/2 18/7/2
f 13/14/11 10/10/11 22/10/11 25/14/11
f 11/12/13 14/8/13 26/8/13 23/12/13
f 44/15/5 42/16/5 31/17/5 30/18/5
f 30/18/12 31/17/12 28/19/12 29/20/12
f 39/29/5 38/23/5 41/26/5 40/27/5
f 46/30/12 47/27/12 40/27/12 41/26/12
f 36/27/5 37/26/5 42/16/5 44/15/5
f 37/26/12 36/27/12 47/27/12 46/30/12
usemtl Material.075
f 6/4/2 7/3/2 8/2/2 5/1/2
usemtl Material.001
f 14/8/4 12/9/4 24/9/4 26/8/4
f 10/10/5 9/11/5 21/11/5 22/10/5
f 22/10/2 21/11/2 24/9/2 25/14/2
f 21/11/2 23/12/2 26/8/2 24/9/2
f 12/9/10 13/14/10 25/14/10 24/9/10
f 9/11/12 11/12/12 23/12/12 21/11/12
f 42/16/2 43/21/2 28/22/2 31/17/2
f 33/23/2 27/24/2 34/25/2 37/26/2
f 36/27/12 35/28/12 51/28/12 50/27/12
f 45/23/2 46/30/2 41/26/2 38/23/2
f 39/29/5 40/27/5 49/27/5 55/29/5
f 37/26/2 34/25/2 43/21/2 42/16/2
f 33/23/2 37/26/2 46/30/2 45/23/2
f 30/18/12 29/20/12 52/20/12 53/18/12
f 40/27/12 47/27/12 56/27/12 49/27/12
f 32/29/5 36/27/5 50/27/5 48/29/5
f 44/15/5 30/18/5 53/18/5 54/15/5
