# Blender 4.5.3 LTS
# www.blender.org
mtllib plank.mtl
o plank
v -0.499720 -0.000347 0.499722
v 0.500280 -0.000347 0.499722
v -0.499720 -0.000347 -0.500278
v 0.500280 -0.000347 -0.500278
v -0.499720 -0.000347 -0.333611
v -0.499720 -0.000347 -0.166945
v -0.499720 -0.000347 -0.000278
v -0.499720 -0.000347 0.166389
v -0.499720 -0.000347 0.333055
v 0.500280 -0.000347 0.333055
v 0.500280 -0.000347 0.166389
v 0.500280 -0.000347 -0.000278
v 0.500280 -0.000347 -0.166945
v 0.500280 -0.000347 -0.333611
v -0.491612 0.029047 0.334407
v -0.491612 0.029047 0.498370
v 0.492171 0.029047 0.498370
v 0.492171 0.029047 0.334407
v -0.497308 0.021168 0.166791
v -0.497308 0.021168 0.332653
v 0.497867 0.021168 0.332653
v 0.497867 0.021168 0.166791
v -0.496939 0.031993 0.000185
v -0.496939 0.031993 0.165925
v 0.497498 0.031993 0.165925
v 0.497498 0.031993 0.000185
v -0.494234 0.016187 -0.166030
v -0.494234 0.016187 -0.001192
v 0.494794 0.016187 -0.001192
v 0.494794 0.016187 -0.166030
v -0.503504 0.028332 -0.334242
v -0.503504 0.028332 -0.166314
v 0.504063 0.028332 -0.166314
v 0.504063 0.028332 -0.334242
v 0.500239 0.013079 -0.333618
v 0.500239 0.013079 -0.500271
v -0.499679 0.013079 -0.500271
v -0.499679 0.013079 -0.333618
vn -0.0000 0.0005 -1.0000
vn -0.0000 0.0459 -0.9989
vn -0.0000 0.0187 0.9998
vn -0.0000 0.0143 -0.9999
vn -0.0000 0.0552 0.9985
vn -0.9914 -0.1308 -0.0000
vn -0.0000 1.0000 -0.0000
vn -0.0000 0.0459 0.9989
vn -0.9640 0.2659 -0.0000
vn 0.9640 0.2659 -0.0000
vn 0.9938 0.1114 -0.0000
vn -0.9938 0.1114 -0.0000
vn -0.0000 0.0187 -0.9998
vn -0.0000 0.0143 0.9999
vn 0.9963 0.0857 -0.0000
vn -0.9963 0.0857 -0.0000
vn 0.9491 0.3149 -0.0000
vn -0.9491 0.3149 -0.0000
vn -0.0000 0.0552 -0.9985
vn -0.0000 -0.0220 0.9998
vn 0.9914 -0.1308 -0.0000
vn -0.0000 -0.0220 -0.9998
vn -1.0000 0.0030 -0.0000
vn 1.0000 0.0030 -0.0000
vn -0.0000 0.0005 1.0000
vt 0.000000 0.000000
vt 1.000000 0.166667
vt 0.000000 0.166667
vt 1.000000 0.500000
vt 0.000000 0.500000
vt 1.000000 0.000000
vt 1.000000 0.333333
vt 0.000000 0.333333
vt 1.000000 0.666667
vt 0.000000 0.666667
vt 1.000000 0.833333
vt 0.000000 0.833333
vt 1.000000 1.000000
vt 0.000000 1.000000
s 0
usemtl Material.109
f 9/3/3 10/2/3 21/2/3 20/3/3
f 7/5/5 12/4/5 29/4/5 28/5/5
f 5/1/6 6/1/6 32/1/6 31/1/6
f 16/1/7 17/6/7 18/2/7 15/3/7
f 9/1/9 1/1/9 16/1/9 15/1/9
f 2/1/10 10/1/10 18/1/10 17/1/10
f 20/3/7 21/2/7 22/7/7 19/8/7
f 10/1/11 11/1/11 22/1/11 21/1/11
f 8/1/12 9/1/12 20/1/12 19/1/12
f 11/7/13 8/8/13 19/8/13 22/7/13
f 24/8/7 25/7/7 26/4/7 23/5/7
f 11/1/15 12/1/15 26/1/15 25/1/15
f 7/1/16 8/1/16 24/1/16 23/1/16
f 28/5/7 29/4/7 30/9/7 27/10/7
f 12/1/17 13/1/17 30/1/17 29/1/17
f 6/1/18 7/1/18 28/1/18 27/1/18
f 13/9/19 6/10/19 27/10/19 30/9/19
f 32/10/7 33/9/7 34/11/7 31/12/7
f 13/1/21 14/1/21 34/1/21 33/1/21
f 38/12/7 35/11/7 36/13/7 37/14/7
f 3/1/23 5/1/23 38/1/23 37/1/23
f 14/1/24 4/1/24 36/1/24 35/1/24
f 5/12/25 14/11/25 35/11/25 38/12/25
usemtl Material.110
f 4/1/1 3/1/1 37/1/1 36/1/1
f 10/2/2 9/3/2 15/3/2 18/2/2
f 12/4/4 7/5/4 23/5/4 26/4/4
f 1/1/8 2/1/8 17/1/8 16/1/8
f 8/8/14 11/7/14 25/7/14 24/8/14
f 6/10/20 13/9/20 33/9/20 32/10/20
f 14/11/22 5/12/22 31/12/22 34/11/22
