# Blender 4.5.3 LTS
# www.blender.org
mtllib back_rotor.mtl
o back_rotor
v -0.594397 -0.001199 0.048996
v 0.580038 -0.001199 0.048996
v -0.594397 -0.001199 -0.048477
v 0.580038 -0.001199 -0.048477
v -0.560446 -0.001199 0.048996
v 0.546087 -0.001199 0.048996
v 0.546087 -0.001199 -0.048477
v -0.560446 -0.001199 -0.048477
v -0.236085 -0.001199 0.048996
v 0.221726 -0.001199 0.048996
v 0.221726 -0.001199 -0.048477
v -0.236085 -0.001199 -0.048477
v -0.007179 -0.001199 0.026592
v -0.007179 -0.001199 -0.026073
v -0.013154 -0.088055 -0.014518
v -0.013501 0.005971 -0.015376
v -0.000948 -0.088055 -0.014412
v -0.000586 0.005971 -0.015263
v 0.007608 -0.088055 -0.005705
v 0.008466 0.005971 -0.006052
v 0.007502 -0.088055 0.006501
v 0.008354 0.005971 0.006863
v -0.001205 -0.088055 0.015057
v -0.000858 0.005971 0.015915
v -0.013411 -0.088055 0.014951
v -0.013773 0.005971 0.015802
v -0.021967 -0.088055 0.006244
v -0.022825 0.005971 0.006591
v -0.021861 -0.088055 -0.005962
v -0.022712 0.005971 -0.006324
v -0.012555 -0.004326 -0.013037
v -0.001572 -0.004326 -0.012941
v 0.006127 -0.004326 -0.005107
v 0.006031 -0.004326 0.005877
v -0.001803 -0.004326 0.013576
v -0.012787 -0.004326 0.013480
v -0.020486 -0.004326 0.005646
v -0.020390 -0.004326 -0.005338
v -0.001572 -0.077244 -0.012941
v 0.006127 -0.077244 -0.005107
v 0.006031 -0.077244 0.005877
v -0.001803 -0.077244 0.013576
v -0.012787 -0.077244 0.013480
v -0.020486 -0.077244 0.005646
v -0.020390 -0.077244 -0.005338
v -0.012555 -0.077244 -0.013037
v -0.000586 0.015664 -0.015263
v -0.013501 0.015664 -0.015376
v 0.008466 0.015664 -0.006052
v 0.008354 0.015664 0.006863
v -0.000858 0.015664 0.015915
v -0.013773 0.015664 0.015802
v -0.022825 0.015664 0.006591
v -0.022712 0.015664 -0.006324
v -0.593496 -0.004188 -0.049001
v 0.580940 -0.004188 -0.049001
v -0.593496 -0.004188 0.048471
v 0.580940 -0.004188 0.048471
v -0.559545 -0.004188 -0.049001
v 0.546988 -0.004188 -0.049001
v 0.546988 -0.004188 0.048471
v -0.559545 -0.004188 0.048471
v -0.235184 -0.004188 -0.049001
v 0.222628 -0.004188 -0.049001
v 0.222628 -0.004188 0.048471
v -0.235184 -0.004188 0.048471
v -0.006278 -0.004188 -0.026598
v -0.006278 -0.004188 0.026068
vn -0.0000 1.0000 -0.0000
vn 0.0085 -0.2208 -0.9753
vn 0.6956 -0.2208 -0.6836
vn 0.9753 -0.2208 0.0085
vn 0.6836 -0.2208 0.6956
vn -0.0085 -0.2208 0.9753
vn -0.6956 -0.2208 0.6836
vn -0.7009 -0.0000 -0.7133
vn -0.9753 -0.2208 -0.0085
vn -0.6836 -0.2208 -0.6956
vn -1.0000 -0.0000 -0.0087
vn -0.7133 -0.0000 0.7009
vn -0.0087 -0.0000 1.0000
vn 0.7009 -0.0000 0.7133
vn 1.0000 -0.0000 0.0087
vn 0.7133 -0.0000 -0.7009
vn 0.0087 -0.0000 -1.0000
vn 0.0086 0.1353 -0.9908
vn 0.7067 0.1353 -0.6945
vn 0.9908 0.1353 0.0086
vn 0.6945 0.1353 0.7067
vn -0.0086 0.1353 0.9908
vn -0.7067 0.1353 0.6945
vn -0.9908 0.1353 -0.0086
vn -0.6945 0.1353 -0.7067
vn -0.0000 -1.0000 -0.0000
vt 0.971091 0.000000
vt 1.000000 0.000000
vt 1.000000 1.000000
vt 0.971091 1.000000
vt 0.000000 0.000000
vt 0.028909 0.000000
vt 0.028909 1.000000
vt 0.000000 1.000000
vt 0.548631 0.000000
vt 0.548631 1.000000
vt 0.451369 0.000000
vt 0.451369 1.000000
vt 0.500000 0.000000
vt 0.500000 1.000000
vt 1.000000 0.941860
vt 0.875000 1.000000
vt 0.875000 0.941860
vt 0.750000 1.000000
vt 0.750000 0.941860
vt 0.625000 1.000000
vt 0.625000 0.941860
vt 0.500000 1.000000
vt 0.500000 0.941860
vt 0.375000 1.000000
vt 0.375000 0.941860
vt 0.250000 1.000000
vt 0.250000 0.941860
vt 0.125000 1.000000
vt 0.125000 0.941860
vt 0.000000 0.941860
vt 0.125000 0.561046
vt 0.000000 0.561046
vt 0.250000 0.561046
vt 0.375000 0.561046
vt 0.500000 0.561046
vt 0.625000 0.561046
vt 0.750000 0.561046
vt 0.875000 0.561046
vt 1.000000 0.561046
vt 1.000000 0.500000
vt 0.875000 0.500000
vt 0.750000 0.500000
vt 0.625000 0.500000
vt 0.500000 0.500000
vt 0.375000 0.500000
vt 0.250000 0.500000
vt 0.125000 0.500000
vt 0.000000 0.500000
vt 0.419706 0.419706
vt 0.250000 0.490000
vt 0.080294 0.419706
vt 0.010000 0.250000
vt 0.080294 0.080294
vt 0.250000 0.010000
vt 0.419706 0.080294
vt 0.490000 0.250000
s 0
usemtl Material.055
f 10/9/1 6/1/1 7/4/1 11/10/1
f 5/6/1 9/11/1 12/12/1 8/7/1
f 13/13/1 10/9/1 11/10/1 14/14/1
f 9/11/1 13/13/1 14/14/1 12/12/1
f 31/15/2 16/3/2 18/16/2 32/17/2
f 32/17/3 18/16/3 20/18/3 33/19/3
f 33/19/4 20/18/4 22/20/4 34/21/4
f 34/21/5 22/20/5 24/22/5 35/23/5
f 35/23/6 24/22/6 26/24/6 36/25/6
f 36/25/7 26/24/7 28/26/7 37/27/7
f 16/8/8 30/28/8 54/28/8 48/8/8
f 37/27/9 28/26/9 30/28/9 38/29/9
f 38/29/10 30/28/10 16/8/10 31/30/10
f 45/31/8 38/29/8 31/30/8 46/32/8
f 44/33/11 37/27/11 38/29/11 45/31/11
f 43/34/12 36/25/12 37/27/12 44/33/12
f 42/35/13 35/23/13 36/25/13 43/34/13
f 41/36/14 34/21/14 35/23/14 42/35/14
f 40/37/15 33/19/15 34/21/15 41/36/15
f 39/38/16 32/17/16 33/19/16 40/37/16
f 46/39/17 31/15/17 32/17/17 39/38/17
f 15/40/18 46/39/18 39/38/18 17/41/18
f 17/41/19 39/38/19 40/37/19 19/42/19
f 19/42/20 40/37/20 41/36/20 21/43/20
f 21/43/21 41/36/21 42/35/21 23/44/21
f 23/44/22 42/35/22 43/34/22 25/45/22
f 25/45/23 43/34/23 44/33/23 27/46/23
f 27/46/24 44/33/24 45/31/24 29/47/24
f 29/47/25 45/31/25 46/32/25 15/48/25
f 47/49/1 48/50/1 54/51/1 53/52/1 52/53/1 51/54/1 50/55/1 49/56/1
f 22/20/15 20/18/15 49/18/15 50/20/15
f 28/26/12 26/24/12 52/24/12 53/26/12
f 24/22/14 22/20/14 50/20/14 51/22/14
f 30/28/11 28/26/11 53/26/11 54/28/11
f 20/18/16 18/16/16 47/16/16 49/18/16
f 64/9/26 60/1/26 61/4/26 65/10/26
f 59/6/26 63/11/26 66/12/26 62/7/26
f 67/13/26 64/9/26 65/10/26 68/14/26
f 63/11/26 67/13/26 68/14/26 66/12/26
usemtl Material.054
f 6/1/1 2/2/1 4/3/1 7/4/1
f 1/5/1 5/6/1 8/7/1 3/8/1
f 60/1/26 56/2/26 58/3/26 61/4/26
f 55/5/26 59/6/26 62/7/26 57/8/26
