# Blender 4.5.3 LTS
# www.blender.org
mtllib landing.mtl
o landing
v -0.441512 -0.170990 0.452634
v -0.441512 -0.136668 0.452634
v -0.441512 -0.170990 0.407315
v -0.441512 -0.136668 0.407315
v 0.441312 -0.172387 0.452634
v 0.441312 -0.138065 0.452634
v 0.441312 -0.172387 0.407315
v 0.441312 -0.138065 0.407315
v 0.288443 -0.044402 0.407315
v 0.001049 -0.019654 0.407315
v -0.285568 -0.044402 0.407315
v -0.285568 -0.010080 0.407315
v 0.001049 0.014668 0.407315
v 0.288443 -0.010080 0.407315
v -0.285568 -0.044402 0.452634
v 0.001049 -0.019654 0.452634
v 0.288443 -0.044402 0.452634
v 0.288443 -0.010080 0.452634
v 0.001049 0.014668 0.452634
v -0.285568 -0.010080 0.452634
v 0.342935 -0.045965 0.407315
v 0.393007 -0.089805 0.407315
v 0.342935 -0.080287 0.452634
v 0.393007 -0.124127 0.452634
v 0.393007 -0.124127 0.407315
v 0.342935 -0.080287 0.407315
v 0.393007 -0.089805 0.452634
v 0.342935 -0.045965 0.452634
v -0.346204 -0.080002 0.407315
v -0.397597 -0.126649 0.407315
v -0.346204 -0.045680 0.452634
v -0.397362 -0.088644 0.452634
v -0.397362 -0.088644 0.407315
v -0.346204 -0.045680 0.407315
v -0.397597 -0.126649 0.452634
v -0.346204 -0.080002 0.452634
v -0.441385 -0.172860 -0.373596
v -0.441385 -0.138538 -0.373596
v -0.441385 -0.172860 -0.418916
v -0.441385 -0.138538 -0.418916
v 0.441439 -0.174256 -0.373596
v 0.441439 -0.139934 -0.373596
v 0.441439 -0.174256 -0.418916
v 0.441439 -0.139934 -0.418916
v 0.288570 -0.046272 -0.418915
v 0.001176 -0.021523 -0.418915
v -0.285441 -0.046272 -0.418915
v -0.285441 -0.011949 -0.418915
v 0.001176 0.012799 -0.418915
v 0.288570 -0.011949 -0.418915
v -0.285441 -0.046272 -0.373596
v 0.001176 -0.021523 -0.373596
v 0.288570 -0.046272 -0.373596
v 0.288570 -0.011949 -0.373596
v 0.001176 0.012799 -0.373596
v -0.285441 -0.011949 -0.373596
v 0.343062 -0.047835 -0.418915
v 0.393134 -0.091675 -0.418916
v 0.343062 -0.082157 -0.373596
v 0.393134 -0.125997 -0.373596
v 0.393134 -0.125997 -0.418916
v 0.343062 -0.082157 -0.418916
v 0.393134 -0.091675 -0.373596
v 0.343062 -0.047835 -0.373596
v -0.346077 -0.081872 -0.418915
v -0.397470 -0.128519 -0.418916
v -0.346077 -0.047550 -0.373596
v -0.397235 -0.090514 -0.373596
v -0.397235 -0.090514 -0.418916
v -0.346077 -0.047550 -0.418916
v -0.397470 -0.128519 -0.373596
v -0.346077 -0.081872 -0.373596
v 0.409038 -0.135731 0.819822
v 0.409038 -0.094469 0.819822
v 0.409038 -0.185216 -0.543803
v 0.409038 -0.147620 -0.543803
v 0.474126 -0.135731 0.819822
v 0.474126 -0.094469 0.819822
v 0.474126 -0.185216 -0.543803
v 0.474126 -0.147620 -0.543803
v 0.409038 -0.170554 0.735616
v 0.409038 -0.132958 0.735616
v 0.474126 -0.170554 0.735616
v 0.474126 -0.132958 0.735616
v 0.409038 -0.147620 0.625257
v 0.474126 -0.185216 0.625257
v 0.409038 -0.185216 0.625257
v 0.474126 -0.147620 0.625257
v -0.484078 -0.133723 0.819911
v -0.484078 -0.092462 0.819911
v -0.484078 -0.183209 -0.543713
v -0.484078 -0.145613 -0.543713
v -0.418990 -0.133723 0.819911
v -0.418990 -0.092462 0.819911
v -0.418990 -0.183209 -0.543713
v -0.418990 -0.145613 -0.543713
v -0.484078 -0.168546 0.735705
v -0.484078 -0.130950 0.735705
v -0.418990 -0.168546 0.735705
v -0.418990 -0.130950 0.735705
v -0.484078 -0.145613 0.625346
v -0.418990 -0.183209 0.625346
v -0.484078 -0.183209 0.625346
v -0.418990 -0.145613 0.625346
vn -1.0000 -0.0000 -0.0000
vn -0.0000 -0.0000 -1.0000
vn 1.0000 -0.0000 -0.0000
vn -0.0000 -0.0000 1.0000
vn -0.7362 0.6768 -0.0000
vn 0.5500 0.8352 -0.0000
vn 0.0858 0.9963 -0.0000
vn -0.0860 0.9963 -0.0000
vn -0.0000 1.0000 -0.0000
vn 0.7068 0.7074 -0.0000
vn 0.6587 0.7524 -0.0000
vn -0.0000 0.9913 -0.1317
vn -0.5063 0.8624 -0.0000
vn -0.6431 0.7658 -0.0000
vn -0.0000 0.9095 -0.4157
vt 0.375000 0.000000
vt 0.625000 0.000000
vt 0.625000 0.250000
vt 0.375000 0.250000
vt 0.375000 0.479167
vt 0.625000 0.479167
vt 0.625000 0.500000
vt 0.375000 0.500000
vt 0.625000 0.750000
vt 0.375000 0.750000
vt 0.375000 0.979167
vt 0.625000 0.979167
vt 0.625000 1.000000
vt 0.375000 1.000000
vt 0.854167 0.500000
vt 0.875000 0.500000
vt 0.875000 0.750000
vt 0.854167 0.750000
vt 0.666667 0.500000
vt 0.687500 0.500000
vt 0.687500 0.750000
vt 0.666667 0.750000
vt 0.750000 0.500000
vt 0.750000 0.750000
vt 0.812500 0.500000
vt 0.812500 0.750000
vt 0.625000 0.209817
vt 0.375000 0.209817
vt 0.375000 0.791667
vt 0.625000 0.791667
vt 0.625000 0.812500
vt 0.375000 0.812500
vt 0.625000 0.875000
vt 0.375000 0.875000
vt 0.625000 0.937500
vt 0.375000 0.937500
vt 0.375000 0.291667
vt 0.625000 0.291667
vt 0.625000 0.312500
vt 0.375000 0.312500
vt 0.625000 0.375000
vt 0.375000 0.375000
vt 0.625000 0.437500
vt 0.375000 0.437500
vt 0.625000 0.770833
vt 0.375000 0.770833
vt 0.645833 0.500000
vt 0.645833 0.750000
vt 0.625000 0.959817
vt 0.375000 0.959817
vt 0.625000 0.517744
vt 0.875000 0.517744
vt 0.875000 0.540183
vt 0.625000 0.540183
vt 0.625000 0.458333
vt 0.375000 0.458333
vt 0.625000 0.270833
vt 0.375000 0.270833
vt 0.625000 0.232256
vt 0.375000 0.232256
vt 0.833333 0.500000
vt 0.833333 0.750000
vt 0.625000 0.958333
vt 0.375000 0.958333
vt 0.625000 0.982256
vt 0.375000 0.982255
vt 0.125000 0.500000
vt 0.125000 0.750000
s 0
usemtl Material.049
f 1/1/1 2/2/1 4/3/1 3/4/1
f 25/5/2 22/6/2 8/7/2 7/8/2
f 7/8/3 8/7/3 6/9/3 5/10/3
f 35/11/4 32/12/4 2/13/4 1/14/4
f 33/15/5 4/16/5 2/17/5 32/18/5
f 21/19/6 14/20/6 18/21/6 28/22/6
f 14/20/7 13/23/7 19/24/7 18/21/7
f 13/23/8 12/25/8 20/26/8 19/24/8
f 80/1/9 76/2/9 85/27/9 88/28/9
f 23/29/4 28/30/4 18/31/4 17/32/4
f 17/32/4 18/31/4 19/33/4 16/34/4
f 16/34/4 19/33/4 20/35/4 15/36/4
f 29/37/2 34/38/2 12/39/2 11/40/2
f 11/40/2 12/39/2 13/41/2 10/42/2
f 10/42/2 13/41/2 14/43/2 9/44/2
f 5/10/4 6/9/4 27/45/4 24/46/4
f 24/46/4 27/45/4 28/30/4 23/29/4
f 8/7/10 22/47/10 27/48/10 6/9/10
f 22/47/11 21/19/11 28/22/11 27/48/11
f 79/10/3 80/9/3 88/49/3 86/50/3
f 81/51/1 82/52/1 85/53/1 87/54/1
f 9/44/2 14/43/2 21/55/2 26/56/2
f 26/56/2 21/55/2 22/6/2 25/5/2
f 3/4/2 4/3/2 33/57/2 30/58/2
f 30/58/2 33/57/2 34/38/2 29/37/2
f 88/28/12 85/27/12 82/59/12 84/60/12
f 12/25/13 34/61/13 31/62/13 20/26/13
f 34/61/14 33/15/14 32/18/14 31/62/14
f 15/36/4 20/35/4 31/63/4 36/64/4
f 36/64/4 31/63/4 32/12/4 35/11/4
f 37/1/1 38/2/1 40/3/1 39/4/1
f 61/5/2 58/6/2 44/7/2 43/8/2
f 43/8/3 44/7/3 42/9/3 41/10/3
f 71/11/4 68/12/4 38/13/4 37/14/4
f 86/50/3 88/49/3 84/65/3 83/66/3
f 69/15/5 40/16/5 38/17/5 68/18/5
f 57/19/6 50/20/6 54/21/6 64/22/6
f 50/20/7 49/23/7 55/24/7 54/21/7
f 49/23/8 48/25/8 56/26/8 55/24/8
f 73/7/1 74/16/1 82/52/1 81/51/1
f 84/60/15 82/59/15 74/3/15 78/4/15
f 59/29/4 64/30/4 54/31/4 53/32/4
f 53/32/4 54/31/4 55/33/4 52/34/4
f 52/34/4 55/33/4 56/35/4 51/36/4
f 65/37/2 70/38/2 48/39/2 47/40/2
f 47/40/2 48/39/2 49/41/2 46/42/2
f 46/42/2 49/41/2 50/43/2 45/44/2
f 41/10/4 42/9/4 63/45/4 60/46/4
f 60/46/4 63/45/4 64/30/4 59/29/4
f 44/7/10 58/47/10 63/48/10 42/9/10
f 58/47/11 57/19/11 64/22/11 63/48/11
f 77/8/4 78/7/4 74/9/4 73/10/4
f 83/66/3 84/65/3 78/13/3 77/14/3
f 45/44/2 50/43/2 57/55/2 62/56/2
f 62/56/2 57/55/2 58/6/2 61/5/2
f 39/4/2 40/3/2 69/57/2 66/58/2
f 66/58/2 69/57/2 70/38/2 65/37/2
f 75/67/2 76/8/2 80/10/2 79/68/2
f 87/54/1 85/53/1 76/17/1 75/9/1
f 48/25/13 70/61/13 67/62/13 56/26/13
f 70/61/14 69/15/14 68/18/14 67/62/14
f 51/36/4 56/35/4 67/63/4 72/64/4
f 72/64/4 67/63/4 68/12/4 71/11/4
f 96/1/9 92/2/9 101/27/9 104/28/9
f 95/10/3 96/9/3 104/49/3 102/50/3
f 97/51/1 98/52/1 101/53/1 103/54/1
f 104/28/12 101/27/12 98/59/12 100/60/12
f 102/50/3 104/49/3 100/65/3 99/66/3
f 89/7/1 90/16/1 98/52/1 97/51/1
f 100/60/15 98/59/15 90/3/15 94/4/15
f 93/8/4 94/7/4 90/9/4 89/10/4
f 99/66/3 100/65/3 94/13/3 93/14/3
f 91/67/2 92/8/2 96/10/2 95/68/2
f 103/54/1 101/53/1 92/17/1 91/9/1
l 11 15
l 10 16
l 9 17
l 26 23
l 25 24
l 30 35
l 29 36
l 47 51
l 46 52
l 45 53
l 62 59
l 61 60
l 66 71
l 65 72
l 83 81
l 86 87
l 99 97
l 102 103
