# Blender 5.0.1
# www.blender.org
mtllib camp_fire.mtl
o Cylinder
v 0.000000 -0.067312 -0.386514
v 0.000000 0.015510 -0.310236
v 0.147913 -0.067312 -0.357092
v 0.118722 0.015510 -0.286620
v 0.273307 -0.067312 -0.273307
v 0.219370 0.015510 -0.219370
v 0.357093 -0.067312 -0.147913
v 0.286620 0.015510 -0.118722
v 0.386514 -0.067312 -0.000000
v 0.310236 0.015510 0.000000
v 0.357093 -0.067312 0.147913
v 0.286620 0.015510 0.118722
v 0.273307 -0.067312 0.273307
v 0.219370 0.015510 0.219370
v 0.147913 -0.067312 0.357092
v 0.118722 0.015510 0.286620
v 0.000000 -0.067312 0.386514
v 0.000000 0.015510 0.310236
v -0.147913 -0.067312 0.357092
v -0.118722 0.015510 0.286620
v -0.273307 -0.067312 0.273307
v -0.219370 0.015510 0.219370
v -0.357093 -0.067312 0.147913
v -0.286620 0.015510 0.118722
v -0.386514 -0.067312 -0.000000
v -0.310236 0.015510 0.000000
v -0.357093 -0.067312 -0.147913
v -0.286620 0.015510 -0.118722
v -0.273307 -0.067312 -0.273307
v -0.219370 0.015510 -0.219370
v -0.147913 -0.067312 -0.357092
v -0.118722 0.015510 -0.286620
v 0.147913 0.067312 -0.357092
v 0.000000 0.067312 -0.386514
v 0.273307 0.067312 -0.273307
v 0.357093 0.067312 -0.147913
v 0.386514 0.067312 -0.000000
v 0.357093 0.067312 0.147913
v 0.273307 0.067312 0.273307
v 0.147913 0.067312 0.357092
v 0.000000 0.067312 0.386514
v -0.147913 0.067312 0.357092
v -0.273307 0.067312 0.273307
v -0.357093 0.067312 0.147913
v -0.386514 0.067312 -0.000000
v -0.357093 0.067312 -0.147913
v -0.273307 0.067312 -0.273307
v -0.147913 0.067312 -0.357092
v 0.122502 0.067312 -0.295746
v 0.000000 0.067312 -0.320114
v 0.226355 0.067312 -0.226355
v 0.295747 0.067312 -0.122502
v 0.320114 0.067312 0.000000
v 0.295747 0.067312 0.122502
v 0.226355 0.067312 0.226354
v 0.122502 0.067312 0.295746
v 0.000000 0.067312 0.320114
v -0.122502 0.067312 0.295746
v -0.226355 0.067312 0.226354
v -0.295747 0.067312 0.122502
v -0.320114 0.067312 0.000000
v -0.295747 0.067312 -0.122502
v -0.226355 0.067312 -0.226355
v -0.122502 0.067312 -0.295746
v 0.253508 -0.008765 -0.057279
v 0.003455 0.235013 -0.057279
v 0.280817 0.019247 -0.041074
v 0.030764 0.263025 -0.041074
v 0.292129 0.030850 -0.001954
v 0.042075 0.274627 -0.001954
v 0.280817 0.019247 0.037167
v 0.030764 0.263025 0.037167
v 0.253508 -0.008765 0.053371
v 0.003455 0.235013 0.053371
v 0.226200 -0.036776 0.037167
v -0.023854 0.207001 0.037167
v -0.035165 0.195398 -0.001954
v 0.226200 -0.036776 -0.041074
v -0.023854 0.207001 -0.041074
v 0.030685 0.298371 -0.053521
v -0.116011 0.010102 -0.213861
v -0.003473 0.322715 -0.066039
v -0.150168 0.034447 -0.226379
v -0.042339 0.332799 -0.048609
v -0.189035 0.044531 -0.208949
v -0.063148 0.322715 -0.011442
v -0.209843 0.034447 -0.171782
v -0.053709 0.298371 0.023691
v -0.200404 0.010102 -0.136649
v -0.019552 0.274026 0.036209
v -0.166247 -0.014243 -0.124130
v 0.019315 0.263942 0.018779
v 0.040124 0.274026 -0.018388
v -0.106572 -0.014243 -0.178728
v -0.009204 0.021666 0.213333
v 0.042953 0.314785 0.054477
v -0.034324 0.040396 0.239646
v 0.017833 0.333515 0.080790
v -0.074483 0.048155 0.240776
v -0.022326 0.341273 0.081920
v -0.106156 0.040396 0.216061
v -0.053999 0.333515 0.057205
v -0.110790 0.021666 0.179979
v -0.058633 0.314785 0.021123
v -0.085670 0.002936 0.153666
v -0.033513 0.296054 -0.005190
v 0.006646 0.288296 -0.006320
v -0.013838 0.002936 0.177251
v 0.038319 0.296054 0.018395
vn 0.1951 -0.0000 -0.9808
vn 0.5556 -0.0000 -0.8315
vn 0.8315 -0.0000 -0.5556
vn 0.9808 -0.0000 -0.1951
vn 0.9808 -0.0000 0.1951
vn 0.8315 -0.0000 0.5556
vn 0.5556 -0.0000 0.8315
vn 0.1951 -0.0000 0.9808
vn -0.1951 -0.0000 0.9808
vn -0.5556 -0.0000 0.8315
vn -0.8315 -0.0000 0.5556
vn -0.9808 -0.0000 0.1951
vn -0.9808 -0.0000 -0.1951
vn -0.8315 -0.0000 -0.5556
vn -0.0000 1.0000 -0.0000
vn -0.5556 -0.0000 -0.8315
vn -0.1951 -0.0000 -0.9808
vn -0.1918 0.1838 0.9641
vn -0.5461 0.1838 0.8173
vn -0.8173 0.1838 0.5461
vn -0.9641 0.1838 0.1918
vn -0.9641 0.1838 -0.1918
vn -0.8173 0.1838 -0.5461
vn -0.5461 0.1838 -0.8173
vn -0.1918 0.1838 -0.9641
vn 0.1918 0.1838 -0.9641
vn 0.5461 0.1838 -0.8173
vn 0.8173 0.1838 -0.5461
vn 0.9641 0.1838 -0.1918
vn 0.9641 0.1838 0.1918
vn 0.8173 0.1838 0.5461
vn 0.5461 0.1838 0.8173
vn 0.1918 0.1838 0.9641
vn 0.2671 0.2740 -0.9239
vn 0.6449 0.6615 -0.3827
vn 0.6449 0.6615 0.3827
vn 0.2671 0.2740 0.9239
vn -0.2671 -0.2740 0.9239
vn -0.7160 0.6981 -0.0000
vn -0.2671 -0.2740 -0.9239
vn 0.4754 0.2304 -0.8491
vn -0.2156 0.5562 -0.8026
vn -0.7803 0.5562 -0.2860
vn -0.8879 0.2304 0.3982
vn -0.4754 -0.2304 0.8491
vn 0.8879 -0.2304 -0.3982
vn 0.4063 0.7985 0.4441
vn 0.7741 0.1896 0.6040
vn 0.1132 0.4578 0.8818
vn -0.6139 0.4578 0.6431
vn -0.9815 0.1896 0.0276
vn -0.7741 -0.1896 -0.6040
vn 0.1546 0.8686 -0.4708
vn 0.9815 -0.1896 -0.0276
vt 1.000000 0.500000
vt 1.000000 1.000000
vt 0.937500 1.000000
vt 0.937500 0.500000
vt 0.875000 1.000000
vt 0.875000 0.500000
vt 0.812500 1.000000
vt 0.812500 0.500000
vt 0.750000 1.000000
vt 0.750000 0.500000
vt 0.687500 1.000000
vt 0.687500 0.500000
vt 0.625000 1.000000
vt 0.625000 0.500000
vt 0.562500 1.000000
vt 0.562500 0.500000
vt 0.500000 1.000000
vt 0.500000 0.500000
vt 0.437500 1.000000
vt 0.437500 0.500000
vt 0.375000 1.000000
vt 0.375000 0.500000
vt 0.312500 1.000000
vt 0.312500 0.500000
vt 0.250000 1.000000
vt 0.250000 0.500000
vt 0.187500 1.000000
vt 0.187500 0.500000
vt 0.125000 1.000000
vt 0.125000 0.500000
vt 0.323719 0.427972
vt 0.250000 0.442636
vt 0.176281 0.427972
vt 0.113786 0.386214
vt 0.072028 0.323719
vt 0.057364 0.250000
vt 0.072028 0.176281
vt 0.113786 0.113786
vt 0.176281 0.072028
vt 0.250000 0.057364
vt 0.323719 0.072028
vt 0.386214 0.113786
vt 0.427972 0.176281
vt 0.442636 0.250000
vt 0.427972 0.323719
vt 0.386214 0.386214
vt 0.062500 1.000000
vt 0.062500 0.500000
vt 0.000000 1.000000
vt 0.000000 0.500000
vt 0.250000 0.448770
vt 0.326066 0.433639
vt 0.341844 0.471731
vt 0.250000 0.490000
vt 0.390551 0.390551
vt 0.419706 0.419706
vt 0.433639 0.326066
vt 0.471731 0.341844
vt 0.448770 0.250000
vt 0.490000 0.250000
vt 0.433639 0.173934
vt 0.471731 0.158156
vt 0.390551 0.109449
vt 0.419706 0.080294
vt 0.326066 0.066361
vt 0.341844 0.028269
vt 0.250000 0.051230
vt 0.250000 0.010000
vt 0.173934 0.066361
vt 0.158156 0.028269
vt 0.109449 0.109449
vt 0.080294 0.080294
vt 0.066361 0.173934
vt 0.028269 0.158156
vt 0.051230 0.250000
vt 0.010000 0.250000
vt 0.066361 0.326066
vt 0.028269 0.341844
vt 0.109449 0.390551
vt 0.080294 0.419706
vt 0.173934 0.433639
vt 0.158156 0.471731
vt 0.750000 0.490000
vt 0.919706 0.419706
vt 0.990000 0.250000
vt 0.919706 0.080294
vt 0.750000 0.010000
vt 0.580294 0.080294
vt 0.510000 0.250000
vt 0.580294 0.419706
s 0
usemtl Material.001
f 1/1/1 34/2/1 33/3/1 3/4/1
f 3/4/2 33/3/2 35/5/2 5/6/2
f 5/6/3 35/5/3 36/7/3 7/8/3
f 7/8/4 36/7/4 37/9/4 9/10/4
f 9/10/5 37/9/5 38/11/5 11/12/5
f 11/12/6 38/11/6 39/13/6 13/14/6
f 13/14/7 39/13/7 40/15/7 15/16/7
f 15/16/8 40/15/8 41/17/8 17/18/8
f 17/18/9 41/17/9 42/19/9 19/20/9
f 19/20/10 42/19/10 43/21/10 21/22/10
f 21/22/11 43/21/11 44/23/11 23/24/11
f 23/24/12 44/23/12 45/25/12 25/26/12
f 25/26/13 45/25/13 46/27/13 27/28/13
f 27/28/14 46/27/14 47/29/14 29/30/14
f 29/30/16 47/29/16 48/47/16 31/48/16
f 31/48/17 48/47/17 34/49/17 1/50/17
f 50/51/15 49/52/15 33/53/15 34/54/15
f 49/52/15 51/55/15 35/56/15 33/53/15
f 51/55/15 52/57/15 36/58/15 35/56/15
f 52/57/15 53/59/15 37/60/15 36/58/15
f 53/59/15 54/61/15 38/62/15 37/60/15
f 54/61/15 55/63/15 39/64/15 38/62/15
f 55/63/15 56/65/15 40/66/15 39/64/15
f 56/65/15 57/67/15 41/68/15 40/66/15
f 57/67/15 58/69/15 42/70/15 41/68/15
f 58/69/15 59/71/15 43/72/15 42/70/15
f 59/71/15 60/73/15 44/74/15 43/72/15
f 60/73/15 61/75/15 45/76/15 44/74/15
f 61/75/15 62/77/15 46/78/15 45/76/15
f 62/77/15 63/79/15 47/80/15 46/78/15
f 63/79/15 64/81/15 48/82/15 47/80/15
f 64/81/15 50/51/15 34/54/15 48/82/15
f 2/32/18 4/31/18 49/52/18 50/51/18
f 4/31/19 6/46/19 51/55/19 49/52/19
f 6/46/20 8/45/20 52/57/20 51/55/20
f 8/45/21 10/44/21 53/59/21 52/57/21
f 10/44/22 12/43/22 54/61/22 53/59/22
f 12/43/23 14/42/23 55/63/23 54/61/23
f 14/42/24 16/41/24 56/65/24 55/63/24
f 16/41/25 18/40/25 57/67/25 56/65/25
f 18/40/26 20/39/26 58/69/26 57/67/26
f 20/39/27 22/38/27 59/71/27 58/69/27
f 22/38/28 24/37/28 60/73/28 59/71/28
f 24/37/29 26/36/29 61/75/29 60/73/29
f 26/36/30 28/35/30 62/77/30 61/75/30
f 28/35/31 30/34/31 63/79/31 62/77/31
f 30/34/32 32/33/32 64/81/32 63/79/32
f 32/33/33 2/32/33 50/51/33 64/81/33
usemtl Material.002
f 65/1/34 66/2/34 68/5/34 67/6/34
f 67/6/35 68/5/35 70/9/35 69/10/35
f 69/10/36 70/9/36 72/13/36 71/14/36
f 71/14/37 72/13/37 74/17/37 73/18/37
f 73/18/38 74/17/38 76/21/38 75/22/38
f 68/56/39 66/54/39 79/80/39 77/76/39 76/72/39 74/68/39 72/64/39 70/60/39
f 78/30/40 79/29/40 66/49/40 65/50/40
f 80/1/41 81/2/41 83/5/41 82/6/41
f 82/6/42 83/5/42 85/9/42 84/10/42
f 84/10/43 85/9/43 87/13/43 86/14/43
f 86/14/44 87/13/44 89/17/44 88/18/44
f 88/18/45 89/17/45 91/21/45 90/22/45
f 93/30/46 94/29/46 81/49/46 80/50/46
f 80/83/47 82/84/47 84/85/47 86/86/47 88/87/47 90/88/47 92/89/47 93/90/47
f 95/1/48 96/2/48 98/5/48 97/6/48
f 97/6/49 98/5/49 100/9/49 99/10/49
f 99/10/50 100/9/50 102/13/50 101/14/50
f 101/14/51 102/13/51 104/17/51 103/18/51
f 103/18/52 104/17/52 106/21/52 105/22/52
f 98/56/53 96/54/53 109/80/53 107/76/53 106/72/53 104/68/53 102/64/53 100/60/53
f 108/30/54 109/29/54 96/49/54 95/50/54
usemtl Material.003
f 4/31/15 2/32/15 32/33/15 30/34/15 28/35/15 26/36/15 24/37/15 22/38/15 20/39/15 18/40/15 16/41/15 14/42/15 12/43/15 10/44/15 8/45/15 6/46/15
