# Blender 4.5.3 LTS
# www.blender.org
mtllib type56.mtl
o type56
v -0.179883 -0.011744 0.008748
v -0.197939 0.045479 0.008748
v -0.179883 -0.011744 -0.008464
v -0.197939 0.045479 -0.008464
v -0.007760 -0.010353 0.008748
v -0.004208 0.061759 0.008748
v -0.007760 -0.010353 -0.008464
v -0.004208 0.061759 -0.008464
v -0.187816 0.000993 0.008748
v -0.187816 0.000993 -0.008464
v -0.005047 0.007742 -0.008464
v -0.005047 0.007742 0.008748
v 0.035235 0.062090 -0.006300
v 0.035235 0.062090 0.006584
v 0.035622 0.008022 -0.008464
v 0.035622 0.008022 0.008748
v -0.208323 -0.000968 0.008748
v -0.237213 0.032454 0.008748
v -0.237213 0.032454 -0.008464
v -0.208323 -0.000968 -0.008464
v -0.142991 -0.018848 -0.008464
v -0.178744 0.067482 -0.008464
v -0.142991 -0.018848 0.008748
v -0.178744 0.067482 0.008748
v -0.133282 0.006558 0.008748
v -0.133282 0.006558 -0.008464
v -0.048039 0.062343 -0.008464
v -0.066950 -0.018493 0.008748
v -0.063990 0.007742 -0.008464
v -0.066950 -0.018493 -0.008464
v -0.048039 0.062343 0.008748
v -0.063990 0.007742 0.008748
v 0.055644 -0.084793 0.008748
v 0.055644 -0.084793 -0.008464
v 0.026113 -0.134521 0.008748
v 0.026113 -0.134521 -0.008464
v -0.362099 -0.047021 0.009969
v -0.365947 0.040600 0.009969
v -0.365947 0.040600 -0.009685
v -0.362099 -0.047021 -0.009685
v 0.349246 0.033059 -0.003561
v 0.349246 0.030712 -0.004916
v 0.349246 0.028001 -0.004916
v 0.349246 0.025654 -0.003561
v 0.349246 0.024298 -0.001213
v 0.349246 0.024298 0.001497
v 0.349246 0.025654 0.003845
v 0.349246 0.028001 0.005200
v 0.349246 0.030712 0.005200
v 0.349246 0.033059 0.003845
v 0.349246 0.034414 0.001497
v 0.349246 0.034414 -0.001213
v 0.313778 0.034106 -0.004608
v 0.313778 0.031095 -0.006346
v 0.313778 0.027618 -0.006346
v 0.313778 0.024606 -0.004608
v 0.313778 0.022868 -0.001597
v 0.313778 0.022868 0.001881
v 0.313778 0.024606 0.004892
v 0.313778 0.027618 0.006631
v 0.313778 0.031095 0.006631
v 0.313778 0.034106 0.004892
v 0.313778 0.035845 0.001881
v 0.313778 0.035845 -0.001597
v 0.321603 0.035461 -0.005963
v 0.321603 0.031591 -0.008198
v 0.321603 0.027122 -0.008198
v 0.321603 0.023251 -0.005963
v 0.321603 0.021017 -0.002093
v 0.321603 0.021017 0.002377
v 0.321603 0.023251 0.006247
v 0.321603 0.027122 0.008482
v 0.321603 0.031591 0.008482
v 0.321603 0.035461 0.006247
v 0.321603 0.037696 0.002377
v 0.321603 0.037696 -0.002093
v 0.349246 0.031591 -0.008198
v 0.349246 0.035461 -0.005963
v 0.349246 0.027122 -0.008198
v 0.349246 0.023251 -0.005963
v 0.349246 0.021017 -0.002093
v 0.349246 0.021017 0.002377
v 0.349246 0.023251 0.006247
v 0.349246 0.027122 0.008482
v 0.349246 0.031591 0.008482
v 0.349246 0.035461 0.006247
v 0.349246 0.037696 0.002377
v 0.349246 0.037696 -0.002093
v 0.176536 0.031095 -0.006346
v 0.176536 0.027618 -0.006346
v 0.176536 0.024606 -0.004608
v 0.176536 0.022868 -0.001597
v 0.176536 0.022868 0.001881
v 0.176536 0.024606 0.004892
v 0.176536 0.027618 0.006631
v 0.176536 0.031095 0.006631
v 0.176536 0.034106 0.004892
v 0.176536 0.035845 0.001881
v 0.176536 0.035845 -0.001597
v 0.176536 0.034106 -0.004608
v -0.056724 -0.047372 0.008748
v -0.039592 -0.078471 0.008748
v -0.017279 -0.102170 0.008748
v 0.003061 -0.120689 0.008748
v -0.056724 -0.047372 -0.008464
v -0.039592 -0.078471 -0.008464
v -0.017279 -0.102170 -0.008464
v 0.003061 -0.120689 -0.008464
v -0.000358 -0.031999 -0.008464
v 0.010251 -0.048713 -0.008464
v 0.025053 -0.063453 -0.008464
v 0.040102 -0.074986 -0.008464
v 0.040102 -0.074986 0.008748
v 0.025053 -0.063453 0.008748
v 0.010251 -0.048713 0.008748
v -0.000358 -0.031999 0.008748
v -0.162958 -0.069277 -0.008464
v -0.199759 -0.059575 -0.008464
v -0.199759 -0.059575 0.008748
v -0.162958 -0.069277 0.008748
v -0.166550 -0.075855 -0.008464
v -0.203017 -0.065414 -0.008464
v -0.203017 -0.065414 0.008748
v -0.166550 -0.075855 0.008748
v -0.248589 -0.008167 -0.008804
v -0.260310 0.046022 -0.008804
v -0.260310 0.046022 0.009088
v -0.248589 -0.008167 0.009088
v 0.251077 0.034106 -0.004608
v 0.251077 0.031095 -0.006346
v 0.251077 0.027618 -0.006346
v 0.251077 0.024606 -0.004608
v 0.251077 0.022868 -0.001597
v 0.251077 0.022868 0.001881
v 0.251077 0.024606 0.004892
v 0.251077 0.027618 0.006631
v 0.251077 0.031095 0.006631
v 0.251077 0.034106 0.004892
v 0.251077 0.035845 0.001881
v 0.251077 0.035845 -0.001597
v 0.223328 0.031095 -0.006346
v 0.223328 0.027618 -0.006346
v 0.223328 0.024606 -0.004608
v 0.223328 0.022868 -0.001597
v 0.223328 0.022868 0.001881
v 0.223328 0.024606 0.004892
v 0.223328 0.027618 0.006631
v 0.223328 0.031095 0.006631
v 0.223328 0.034106 0.004892
v 0.223328 0.035845 0.001881
v 0.223328 0.035845 -0.001597
v 0.223328 0.034106 -0.004608
v 0.243225 0.047853 0.001881
v 0.243225 0.047853 -0.001597
v 0.223328 0.056704 0.001881
v 0.223328 0.056704 -0.001597
v 0.223328 0.043205 -0.001597
v 0.251077 0.038066 -0.001597
v 0.223328 0.043205 0.001881
v 0.251077 0.038066 0.001881
v 0.176537 0.056704 0.001881
v 0.176537 0.056704 -0.001597
v 0.176537 0.043205 -0.001597
v 0.176537 0.043205 0.001881
v 0.236560 0.034106 -0.004608
v 0.236560 0.031095 -0.006346
v 0.236560 0.027618 -0.006346
v 0.236560 0.024606 -0.004608
v 0.236560 0.022868 -0.001597
v 0.236560 0.022868 0.001881
v 0.236560 0.024606 0.004892
v 0.236560 0.027618 0.006631
v 0.236560 0.031095 0.006631
v 0.236560 0.034106 0.004892
v 0.236560 0.035845 0.001881
v 0.236560 0.035845 -0.001597
v 0.236560 0.056704 0.001881
v 0.236560 0.056704 -0.001597
v 0.236560 0.043205 0.001881
v 0.236560 0.043205 -0.001597
v 0.349633 0.059118 0.000142
v 0.174142 0.042950 -0.009245
v 0.174142 0.010498 -0.009245
v 0.174142 0.042950 0.011129
v 0.174142 0.010498 0.011129
v 0.037679 0.042950 -0.009245
v 0.037850 0.002960 -0.009245
v 0.037679 0.042950 0.011129
v 0.037850 0.002960 0.011129
v 0.106767 0.042950 0.011129
v 0.106767 0.010498 0.011129
v 0.106767 0.042950 -0.009245
v 0.106767 0.010498 -0.009245
v 0.174142 0.062038 0.011129
v 0.174142 0.062038 -0.009245
v 0.106767 0.062038 0.011129
v 0.106767 0.062038 -0.009245
v 0.106767 0.046129 0.011129
v 0.106767 0.046129 -0.009245
v 0.174142 0.046129 0.011129
v 0.174142 0.046129 -0.009245
v 0.037719 0.062038 -0.009245
v 0.037719 0.062038 0.011129
v 0.037719 0.046129 0.011129
v 0.037719 0.046129 -0.009245
vn -0.3148 0.9492 -0.0000
vn -0.0000 -0.0000 -1.0000
vn -0.0000 -0.0000 1.0000
vn 0.5336 0.8457 -0.0000
vn -0.7535 0.6574 -0.0000
vn 0.9889 -0.1483 -0.0000
vn 0.0268 0.0199 0.9994
vn 0.0268 0.0199 -0.9994
vn -0.0084 1.0000 -0.0000
vn 0.0079 0.0009 -1.0000
vn 0.0952 -0.9955 -0.0000
vn 0.0393 0.9992 -0.0000
vn 0.0133 0.9999 -0.0000
vn 0.8598 -0.5106 -0.0000
vn -0.5145 -0.8575 -0.0000
vn -0.2753 -0.9614 -0.0000
vn -0.9990 -0.0439 -0.0000
vn 0.0079 0.0009 1.0000
vn 0.3238 -0.9461 -0.0000
vn -0.0513 0.9987 -0.0000
vn -0.0000 0.5000 -0.8660
vn -0.0000 -0.5000 -0.8660
vn -0.0000 -0.8660 -0.5000
vn -0.0000 -1.0000 -0.0000
vn -0.0000 -0.8660 0.5000
vn -0.0000 -0.5000 0.8660
vn -0.0000 0.5000 0.8660
vn -0.0000 0.8660 0.5000
vn -0.0000 0.1038 0.9946
vn -0.0000 0.8660 -0.5000
vn -0.0000 1.0000 -0.0000
vn -0.2302 0.8428 -0.4866
vn -0.2302 0.9731 -0.0000
vn -0.2302 0.8428 0.4866
vn -0.2302 0.4866 0.8428
vn -0.2302 -0.0000 0.9731
vn -0.2302 -0.4866 0.8428
vn -0.2302 -0.8428 0.4866
vn -0.2302 -0.9731 -0.0000
vn -0.2302 -0.8428 -0.4866
vn -0.2302 -0.4866 -0.8428
vn -0.2302 -0.0000 -0.9731
vn -0.2302 0.4866 -0.8428
vn 1.0000 -0.0000 -0.0000
vn -0.6732 -0.7394 -0.0000
vn 0.9462 0.3236 -0.0000
vn 0.6083 0.7937 -0.0000
vn 0.7056 0.7086 -0.0000
vn -0.7281 -0.6855 -0.0000
vn -0.8759 -0.4825 -0.0000
vn -0.9426 -0.3338 -0.0000
vn 0.8443 0.5359 -0.0000
vn 0.9298 -0.3681 -0.0000
vn -0.9234 0.3837 -0.0000
vn 0.8776 -0.4793 -0.0000
vn -0.8733 0.4872 -0.0000
vn 0.5065 0.8623 -0.0000
vn 0.1760 -0.9844 -0.0000
vn 0.0113 0.0052 0.9999
vn 0.0113 0.0052 -0.9999
vn 0.7988 0.6016 -0.0000
vn 0.7800 0.6257 -0.0000
vn -0.0000 0.1038 -0.9946
vn -0.6072 0.7945 -0.0000
vn 0.9998 -0.0180 -0.0000
vn -1.0000 -0.0043 -0.0000
vn 0.1087 -0.9941 -0.0000
vn -1.0000 -0.0000 -0.0000
vt 0.875000 0.750000
vt 0.875000 0.500000
vt 0.447248 0.404730
vt 0.625000 0.404730
vt 0.625000 0.500000
vt 0.447248 0.500000
vt 0.447248 0.920971
vt 0.625000 0.920971
vt 0.625000 1.000000
vt 0.447248 1.000000
vt 0.375000 0.500000
vt 0.375000 0.750000
vt 0.795971 0.500000
vt 0.795971 0.750000
vt 0.375000 0.920971
vt 0.375000 1.000000
vt 0.447248 0.750000
vt 0.375000 0.404730
vt 0.625000 0.750000
vt 0.625000 0.250000
vt 0.447248 0.250000
vt 0.447248 0.000000
vt 0.375000 0.250000
vt 0.447248 0.329029
vt 0.375000 0.329029
vt 0.375000 0.845270
vt 0.447248 0.845270
vt 0.720270 0.500000
vt 0.720270 0.750000
vt 0.625000 0.845270
vt 0.625000 0.329029
vt 0.279730 0.500000
vt 0.279730 0.750000
vt 0.375000 0.920971
vt 0.625000 0.000000
vt 0.875000 0.500000
vt 1.000000 0.876395
vt 1.000000 1.000000
vt 0.916667 1.000000
vt 0.916667 0.876395
vt 0.833333 1.000000
vt 0.833333 0.876395
vt 0.750000 1.000000
vt 0.750000 0.876395
vt 0.666667 1.000000
vt 0.666667 0.876395
vt 0.583333 1.000000
vt 0.583333 0.876395
vt 0.500000 1.000000
vt 0.500000 0.876395
vt 0.416667 1.000000
vt 0.416667 0.876395
vt 0.333333 1.000000
vt 0.333333 0.876395
vt 0.250000 1.000000
vt 0.250000 0.876395
vt 0.166667 1.000000
vt 0.166667 0.876395
vt 0.083333 0.876395
vt 0.083333 1.000000
vt 0.000000 1.000000
vt 0.000000 0.876395
vt 0.083333 0.776599
vt 0.083333 0.840615
vt 0.000000 0.840615
vt 0.000000 0.776599
vt 0.166667 0.776599
vt 0.166667 0.840615
vt 0.250000 0.776599
vt 0.250000 0.840615
vt 0.333333 0.776599
vt 0.333333 0.840615
vt 0.416667 0.776599
vt 0.416667 0.840615
vt 0.500000 0.776599
vt 0.500000 0.840615
vt 0.583333 0.776599
vt 0.583333 0.840615
vt 0.666667 0.776599
vt 0.666667 0.840615
vt 0.750000 0.776599
vt 0.750000 0.840615
vt 0.833333 0.776599
vt 0.833333 0.840615
vt 0.916667 0.776599
vt 0.916667 0.840615
vt 1.000000 0.776599
vt 1.000000 0.840615
vt 0.250000 0.395557
vt 0.322778 0.376056
vt 0.370000 0.457846
vt 0.250000 0.490000
vt 0.376056 0.322778
vt 0.457846 0.370000
vt 0.395557 0.250000
vt 0.490000 0.250000
vt 0.376056 0.177222
vt 0.457846 0.130000
vt 0.322778 0.123944
vt 0.370000 0.042154
vt 0.250000 0.104443
vt 0.250000 0.010000
vt 0.177222 0.123944
vt 0.130000 0.042154
vt 0.123944 0.177222
vt 0.042154 0.130000
vt 0.104443 0.250000
vt 0.010000 0.250000
vt 0.123944 0.322778
vt 0.042154 0.370000
vt 0.177222 0.376056
vt 0.130000 0.457846
vt 0.375000 0.404730
vt 0.375000 0.500000
vt 0.375000 0.500000
vt 0.375000 0.750000
vt 0.204029 0.500000
vt 0.204029 0.750000
vt 0.204029 0.500000
vt 0.375000 0.000000
vt 0.375000 0.329029
vt 0.204029 0.750000
vt 0.375000 -0.000000
vt 1.000000 0.740524
vt 0.916667 0.740524
vt 0.833333 0.740524
vt 0.750000 0.740524
vt 0.666667 0.740524
vt 0.583333 0.740524
vt 0.500000 0.740524
vt 0.416667 0.740524
vt 0.333333 0.740524
vt 0.250000 0.740524
vt 0.166667 0.740524
vt 0.083333 0.740524
vt 0.083333 0.704450
vt 0.083333 0.740524
vt 0.000000 0.740524
vt 0.083333 0.591499
vt 0.000000 0.704450
vt 0.000000 0.591499
vt 0.166667 0.591499
vt 0.166667 0.704450
vt 0.250000 0.591499
vt 0.250000 0.704450
vt 0.333333 0.591499
vt 0.333333 0.704450
vt 0.416667 0.591499
vt 0.416667 0.704450
vt 0.500000 0.591499
vt 0.500000 0.704450
vt 0.583333 0.591499
vt 0.583333 0.704450
vt 0.666667 0.591499
vt 0.666667 0.704450
vt 0.750000 0.591499
vt 0.750000 0.704450
vt 0.833333 0.591499
vt 0.833333 0.704450
vt 0.916667 0.591499
vt 0.916667 0.704450
vt 1.000000 0.591499
vt 1.000000 0.704450
vt 0.166667 0.704450
vt 0.375000 0.375000
vt 0.625000 0.375000
vt 0.375000 0.875000
vt 0.625000 0.875000
vt 0.750000 0.500000
vt 0.750000 0.750000
vt 0.250000 0.500000
vt 0.250000 0.750000
vt 0.125000 0.500000
vt 0.125000 0.750000
s 0
usemtl Material.018
f 29/3/2 27/4/2 8/5/2 11/6/2
f 25/7/3 24/8/3 2/9/3 9/10/3
f 22/13/5 4/2/5 2/1/5 24/14/5
f 23/15/3 25/7/3 9/10/3 1/16/3
f 7/11/6 11/6/6 12/17/6 5/12/6
f 30/18/2 29/3/2 11/6/2 7/11/2
f 6/19/7 12/17/7 16/17/7 14/19/7
f 11/6/8 8/5/8 13/5/8 15/6/8
f 8/5/9 6/19/9 14/19/9 13/5/9
f 10/21/11 9/22/11 17/22/11 20/21/11
f 3/23/2 10/21/2 26/24/2 21/25/2
f 28/26/3 32/27/3 25/7/3 23/15/3
f 27/28/12 22/13/12 24/14/12 31/29/12
f 32/27/3 31/30/3 24/8/3 25/7/3
f 10/21/2 4/20/2 22/31/2 26/24/2
f 12/17/3 6/19/3 31/30/3 32/27/3
f 8/5/13 27/28/13 31/29/13 6/19/13
f 5/12/3 12/17/3 32/27/3 28/26/3
f 21/25/2 26/24/2 29/3/2 30/18/2
f 26/24/2 22/31/2 27/4/2 29/3/2
f 65/37/21 78/38/21 77/39/21 66/40/21
f 66/40/2 77/39/2 79/41/2 67/42/2
f 67/42/22 79/41/22 80/43/22 68/44/22
f 68/44/23 80/43/23 81/45/23 69/46/23
f 69/46/24 81/45/24 82/47/24 70/48/24
f 70/48/25 82/47/25 83/49/25 71/50/25
f 71/50/26 83/49/26 84/51/26 72/52/26
f 72/52/3 84/51/3 85/53/3 73/54/3
f 73/54/27 85/53/27 86/55/27 74/56/27
f 74/56/28 86/55/28 87/57/28 75/58/28
f 75/58/29 87/57/29 181/58/29
f 76/59/30 88/60/30 78/61/30 65/62/30
f 140/63/30 64/64/30 53/65/30 129/66/30
f 139/67/31 63/68/31 64/64/31 140/63/31
f 138/69/28 62/70/28 63/68/28 139/67/28
f 137/71/27 61/72/27 62/70/27 138/69/27
f 136/73/3 60/74/3 61/72/3 137/71/3
f 135/75/26 59/76/26 60/74/26 136/73/26
f 134/77/25 58/78/25 59/76/25 135/75/25
f 133/79/24 57/80/24 58/78/24 134/77/24
f 132/81/23 56/82/23 57/80/23 133/79/23
f 131/83/22 55/84/22 56/82/22 132/81/22
f 130/85/2 54/86/2 55/84/2 131/83/2
f 129/87/21 53/88/21 54/86/21 130/85/21
f 64/64/32 76/59/32 65/62/32 53/65/32
f 63/68/33 75/58/33 76/59/33 64/64/33
f 62/70/34 74/56/34 75/58/34 63/68/34
f 61/72/35 73/54/35 74/56/35 62/70/35
f 60/74/36 72/52/36 73/54/36 61/72/36
f 59/76/37 71/50/37 72/52/37 60/74/37
f 58/78/38 70/48/38 71/50/38 59/76/38
f 57/80/39 69/46/39 70/48/39 58/78/39
f 56/82/40 68/44/40 69/46/40 57/80/40
f 55/84/41 67/42/41 68/44/41 56/82/41
f 54/86/42 66/40/42 67/42/42 55/84/42
f 53/88/43 65/37/43 66/40/43 54/86/43
f 41/89/44 42/90/44 77/91/44 78/92/44
f 42/90/44 43/93/44 79/94/44 77/91/44
f 43/93/44 44/95/44 80/96/44 79/94/44
f 44/95/44 45/97/44 81/98/44 80/96/44
f 45/97/44 46/99/44 82/100/44 81/98/44
f 46/99/44 47/101/44 83/102/44 82/100/44
f 47/101/44 48/103/44 84/104/44 83/102/44
f 48/103/44 49/105/44 85/106/44 84/104/44
f 49/105/44 50/107/44 86/108/44 85/106/44
f 50/107/44 51/109/44 87/110/44 86/108/44
f 51/109/44 52/111/44 88/112/44 87/110/44
f 52/111/44 41/89/44 78/92/44 88/112/44
f 20/21/58 17/22/58 128/22/58 125/21/58
f 165/124/21 129/87/21 130/85/21 166/125/21
f 166/125/2 130/85/2 131/83/2 167/126/2
f 167/126/22 131/83/22 132/81/22 168/127/22
f 168/127/23 132/81/23 133/79/23 169/128/23
f 169/128/24 133/79/24 134/77/24 170/129/24
f 170/129/25 134/77/25 135/75/25 171/130/25
f 171/130/26 135/75/26 136/73/26 172/131/26
f 172/131/3 136/73/3 137/71/3 173/132/3
f 173/132/27 137/71/27 138/69/27 174/133/27
f 174/133/28 138/69/28 139/67/28 175/134/28
f 180/135/2 157/136/2 156/136/2 178/135/2
f 176/137/30 140/63/30 129/66/30 165/138/30
f 99/139/30 151/136/30 152/140/30 100/141/30
f 98/142/31 150/143/31 151/136/31 99/139/31
f 97/144/28 149/145/28 150/143/28 98/142/28
f 96/146/27 148/147/27 149/145/27 97/144/27
f 95/148/3 147/149/3 148/147/3 96/146/3
f 94/150/26 146/151/26 147/149/26 95/148/26
f 93/152/25 145/153/25 146/151/25 94/150/25
f 92/154/24 144/155/24 145/153/24 93/152/24
f 91/156/23 143/157/23 144/155/23 92/154/23
f 90/158/22 142/159/22 143/157/22 91/156/22
f 89/160/2 141/161/2 142/159/2 90/158/2
f 100/162/21 152/163/21 141/161/21 89/160/21
f 177/134/61 153/67/61 154/63/61 178/135/61
f 155/143/31 156/136/31 162/136/31 161/143/31
f 160/67/62 158/63/62 154/63/62 153/67/62
f 179/134/3 160/67/3 153/67/3 177/134/3
f 175/134/3 139/67/3 160/67/3 179/134/3
f 139/67/44 140/63/44 158/63/44 160/67/44
f 176/137/2 151/136/2 157/136/2 180/135/2
f 88/60/63 76/59/63 181/60/63
f 76/59/64 75/58/64 181/59/64
f 159/164/3 155/143/3 161/143/3 164/164/3
f 156/136/2 157/136/2 163/136/2 162/136/2
f 140/63/2 176/137/2 180/135/2 158/63/2
f 150/143/3 175/134/3 179/134/3 159/164/3
f 159/164/3 179/134/3 177/134/3 155/143/3
f 155/143/31 177/134/31 178/135/31 156/136/31
f 151/136/30 176/137/30 165/138/30 152/140/30
f 158/63/2 180/135/2 178/135/2 154/63/2
f 149/145/28 174/133/28 175/134/28 150/143/28
f 148/147/27 173/132/27 174/133/27 149/145/27
f 147/149/3 172/131/3 173/132/3 148/147/3
f 146/151/26 171/130/26 172/131/26 147/149/26
f 145/153/25 170/129/25 171/130/25 146/151/25
f 144/155/24 169/128/24 170/129/24 145/153/24
f 143/157/23 168/127/23 169/128/23 144/155/23
f 142/159/22 167/126/22 168/127/22 143/157/22
f 141/161/2 166/125/2 167/126/2 142/159/2
f 152/163/21 165/124/21 166/125/21 141/161/21
f 87/110/65 88/112/65 181/110/65
f 182/120/44 184/23/44 185/20/44 183/35/44
f 188/11/66 186/12/66 187/19/66 189/5/66
f 196/171/31 197/172/31 202/172/31 203/171/31
f 200/23/44 201/120/44 195/120/44 194/23/44
f 184/23/44 182/120/44 201/120/44 200/23/44
f 205/172/68 204/171/68 203/171/68 202/172/68
f 198/165/3 196/165/3 203/165/3 204/165/3
f 197/167/2 199/167/2 205/167/2 202/167/2
usemtl Material.017
f 112/11/4 113/12/4 33/12/4 34/11/4
f 36/32/14 34/11/14 33/12/14 35/33/14
f 108/18/2 112/11/2 34/11/2 36/18/2
f 104/33/15 108/32/15 36/32/15 35/33/15
f 113/12/3 104/26/3 35/26/3 33/12/3
f 105/113/2 109/11/2 110/114/2 106/18/2
f 103/33/45 107/32/45 108/32/45 104/33/45
f 7/11/46 5/12/46 116/12/46 109/11/46
f 111/115/47 114/116/47 113/12/47 112/11/47
f 110/114/48 115/12/48 114/116/48 111/115/48
f 30/18/2 7/11/2 109/11/2 105/113/2
f 106/18/2 110/114/2 111/115/2 107/18/2
f 102/33/49 106/32/49 107/32/49 103/33/49
f 101/33/50 105/32/50 106/32/50 102/33/50
f 28/33/51 30/32/51 105/32/51 101/33/51
f 116/12/3 101/26/3 102/26/3 115/12/3
f 109/11/52 116/12/52 115/12/52 110/114/52
f 107/18/2 111/115/2 112/11/2 108/18/2
f 114/116/3 103/26/3 104/26/3 113/12/3
f 115/12/3 102/26/3 103/26/3 114/116/3
f 5/12/3 28/26/3 101/26/3 116/12/3
usemtl Material.019
f 2/1/1 4/2/1 19/2/1 18/1/1
f 126/20/10 125/21/10 40/21/10 39/20/10
f 4/20/2 10/21/2 20/21/2 19/20/2
f 9/10/3 2/9/3 18/9/3 17/10/3
f 124/34/16 123/16/16 122/23/16 121/25/16
f 37/22/17 38/35/17 39/20/17 40/21/17
f 128/10/18 127/9/18 38/9/18 37/10/18
f 125/21/19 128/22/19 37/22/19 40/21/19
f 127/1/20 126/36/20 39/2/20 38/1/20
f 21/117/53 23/118/53 120/118/53 117/119/53
f 23/15/3 1/16/3 119/16/3 120/34/3
f 1/120/54 3/23/54 118/23/54 119/120/54
f 3/23/2 21/25/2 117/121/2 118/23/2
f 117/119/55 120/118/55 124/122/55 121/119/55
f 120/34/3 119/16/3 123/16/3 124/34/3
f 119/120/56 118/23/56 122/23/56 123/123/56
f 118/23/2 117/121/2 121/25/2 122/23/2
f 18/1/57 19/2/57 126/36/57 127/1/57
f 17/10/59 18/9/59 127/9/59 128/10/59
f 19/20/60 20/21/60 125/21/60 126/20/60
f 190/165/3 188/11/3 189/5/3 191/166/3
f 192/167/2 182/16/2 183/9/2 193/168/2
f 191/169/24 193/170/24 183/1/24 185/2/24
f 189/5/67 187/19/67 193/170/67 191/169/67
f 186/12/2 192/167/2 193/168/2 187/19/2
f 184/23/3 190/165/3 191/166/3 185/20/3
f 194/173/31 195/174/31 197/172/31 196/171/31
f 198/165/3 200/23/3 194/23/3 196/165/3
f 201/16/2 199/167/2 197/167/2 195/16/2
f 182/16/2 192/167/2 199/167/2 201/16/2
f 190/165/3 184/23/3 200/23/3 198/165/3
