# Blender 4.5.3 LTS
# www.blender.org
mtllib canopy_2x2_norope.mtl
o net_canopy_2x2.001
v -0.976689 1.039515 -0.999138
v 0.988215 1.039740 -0.999159
v -0.977201 1.044897 0.977202
v 0.988471 1.042424 0.976967
v -0.838831 1.072315 -1.002256
v 0.850336 1.072315 -1.002256
v 0.850336 1.072315 0.979809
v -0.838831 1.072315 0.979809
v -0.977201 1.044897 0.882458
v -0.976689 1.039515 -0.904426
v 0.988215 1.039740 -0.904446
v 0.988471 1.042424 0.882237
v -0.838831 1.072315 -0.907347
v -0.838831 1.072315 0.884899
v 0.850336 1.072315 -0.907347
v 0.850336 1.072315 0.884899
v -0.861871 -0.168179 -0.796874
v -0.861871 -0.168179 -0.884321
v 0.743484 -0.168179 -0.884321
v 0.873376 -0.168179 -0.884321
v 0.873376 -0.168179 0.774424
v 0.873376 -0.168179 0.861872
v -0.731979 -0.168179 0.861872
v -0.861871 -0.168179 0.861872
v -0.731979 -0.168179 -0.884321
v 0.743484 -0.168179 0.861872
v -0.731979 -0.168179 0.774424
v 0.743484 -0.168179 0.774424
v -0.861871 -0.168179 0.774424
v 0.873376 -0.168179 -0.796874
v -0.731979 -0.168179 -0.796874
v 0.743484 -0.168179 -0.796874
v -0.834108 1.017479 0.974596
v -0.834108 1.017479 0.880016
v 0.845187 1.012532 0.974125
v 0.845187 1.012532 0.879575
v 0.844725 1.007165 -0.901545
v 0.844725 1.007165 -0.996062
v -0.833181 1.006714 -0.996019
v -0.833181 1.006714 -0.901505
vn 0.9955 -0.0946 -0.0000
vn -0.0000 1.0000 -0.0000
vn -0.0000 -0.0946 0.9955
vn -0.2130 0.9771 -0.0015
vn -0.9955 -0.0946 -0.0000
vn 0.2207 0.9753 -0.0007
vn -0.0000 0.0887 0.9961
vn 0.9963 0.0858 -0.0000
vn -0.9963 0.0858 -0.0000
vn -0.1944 0.9809 -0.0000
vn 0.2115 0.9774 -0.0000
vn 0.2299 0.9732 -0.0000
vn -0.2315 0.9728 -0.0000
vt 0.000000 0.000000
vt 0.046992 0.968364
vt 0.046992 1.000000
vt 0.953008 1.000000
vt 0.953008 0.968363
vt 0.046992 0.000000
vt 0.046992 0.031637
vt 0.953008 0.031637
vt 0.953008 0.000000
vt 0.000000 0.031637
vt 0.000000 0.968363
vt 1.000000 0.968363
vt 1.000000 0.031637
vt 0.046992 0.031637
vt 0.953008 0.031637
s 0
usemtl Material.111
f 2/1/1 11/1/1 30/1/1 20/1/1
f 33/1/3 3/1/3 24/1/3 23/1/3
f 3/1/5 9/1/5 29/1/5 24/1/5
f 40/14/7 10/10/7 17/10/7 31/7/7
f 4/1/3 35/1/3 26/1/3 22/1/3
f 39/6/8 40/14/8 31/7/8 25/6/8
f 11/13/7 37/15/7 32/8/7 30/13/7
f 10/1/5 1/1/5 18/1/5 17/1/5
f 34/2/8 33/3/8 23/3/8 27/2/8
f 37/15/9 38/9/9 19/9/9 32/8/9
f 35/4/9 36/5/9 28/5/9 26/4/9
f 12/1/1 4/1/1 22/1/1 21/1/1
f 8/1/10 14/1/10 9/1/10 3/1/10
f 12/1/11 16/1/11 7/1/11 4/1/11
f 2/1/12 6/1/12 15/1/12 11/1/12
f 10/1/13 13/1/13 5/1/13 1/1/13
f 14/2/8 8/3/8 33/3/8 34/2/8
f 7/4/9 16/5/9 36/5/9 35/4/9
f 15/8/9 6/9/9 38/9/9 37/15/9
f 11/13/7 15/8/7 37/15/7
f 5/6/8 13/7/8 40/14/8 39/6/8
f 13/7/7 10/10/7 40/14/7
usemtl Material.112
f 14/2/2 8/3/2 7/4/2 16/5/2
f 5/6/2 13/7/2 15/8/2 6/9/2
f 10/10/4 9/11/4 14/2/4 13/7/4
f 15/8/6 16/5/6 12/12/6 11/13/6
f 8/1/3 3/1/3 33/1/3
f 4/1/3 7/1/3 35/1/3
