# Blender 4.5.3 LTS
# www.blender.org
mtllib net_canopy_3x3.mtl
o net_canopy_3x3
v -1.499720 1.072315 -1.500278
v 1.500280 1.072315 -1.500278
v -1.499720 1.072315 1.499722
v 1.500280 1.072315 1.499722
v -1.358744 1.072315 -1.500278
v 1.359304 1.072315 -1.500278
v 1.359304 1.072315 1.499722
v -1.358744 1.072315 1.499722
v -1.499720 1.072315 1.404812
v -1.499720 1.072315 -1.405369
v 1.500280 1.072315 -1.405369
v 1.500280 1.072315 1.404812
v -1.358744 1.072315 -1.405369
v -1.358744 1.072315 1.404812
v 1.359304 1.072315 -1.405369
v 1.359304 1.072315 1.404812
v -1.381784 -0.168179 -1.294896
v -1.381784 -0.168179 -1.382343
v 1.252452 -0.168179 -1.382343
v 1.382344 -0.168179 -1.382343
v 1.382344 -0.168179 1.294337
v 1.382344 -0.168179 1.381785
v -1.251892 -0.168179 1.381785
v -1.381784 -0.168179 1.381785
v -1.251892 -0.168179 -1.382343
v 1.252452 -0.168179 1.381785
v -1.251892 -0.168179 1.294337
v 1.252452 -0.168179 1.294337
v -1.381784 -0.168179 1.294337
v 1.382344 -0.168179 -1.294896
v -1.251892 -0.168179 -1.294896
v 1.252452 -0.168179 -1.294896
v -1.494507 1.017479 1.399929
v -1.494507 1.017479 1.494509
v -1.354021 1.017479 1.494509
v -1.354021 1.017479 1.399929
v 1.354154 1.012532 1.494038
v 1.494596 1.012532 1.494038
v 1.494596 1.012532 1.399488
v 1.354154 1.012532 1.399488
v 1.494086 1.007165 -1.399567
v 1.494086 1.007165 -1.494084
v 1.353692 1.007165 -1.399567
v 1.353692 1.007165 -1.494084
v -1.353094 1.006714 -1.494041
v -1.493483 1.006714 -1.494041
v -1.493483 1.006714 -1.399526
v -1.353094 1.006714 -1.399526
v -2.467195 -0.497146 -2.623604
v -2.467615 -0.491764 2.718950
v 2.445784 -0.495725 2.718574
v 2.445575 -0.498408 -2.623638
vn 0.9955 -0.0946 -0.0000
vn -0.0000 1.0000 -0.0000
vn -0.0000 -0.0946 0.9955
vn -0.9955 -0.0946 -0.0000
vn -0.0000 0.0887 0.9961
vn 0.9963 0.0858 -0.0000
vn -0.9963 0.0858 -0.0000
vn 0.7516 0.0088 -0.6596
vn 0.8564 0.5164 -0.0000
vn -0.7581 0.0101 -0.6520
vn -0.7723 -0.0169 0.6350
vn -0.7928 -0.0211 -0.6091
vn -0.8503 0.5262 -0.0000
vn 0.7746 0.0135 0.6323
vn -0.8513 0.5247 -0.0000
vn 0.8568 0.5156 -0.0000
vn 0.7986 -0.0224 -0.6014
vn 0.7785 -0.0181 0.6274
vn -0.7807 0.0148 0.6247
vt 0.000000 0.000000
vt 0.046992 0.968364
vt 0.046992 1.000000
vt 0.953008 1.000000
vt 0.953008 0.968363
vt 0.046992 0.000000
vt 0.046992 0.031637
vt 0.953008 0.031637
vt 0.953008 0.000000
vt 0.000000 0.031637
vt 0.000000 0.968363
vt 1.000000 0.968363
vt 1.000000 0.031637
vt 0.046992 0.031637
vt 0.953008 0.031637
s 0
usemtl Material.103
f 42/1/1 41/1/1 30/1/1 20/1/1
f 35/1/3 34/1/3 24/1/3 23/1/3
f 34/1/4 33/1/4 29/1/4 24/1/4
f 48/14/5 47/10/5 17/10/5 31/7/5
f 38/1/3 37/1/3 26/1/3 22/1/3
f 45/6/6 48/14/6 31/7/6 25/6/6
f 41/13/5 43/15/5 32/8/5 30/13/5
f 47/1/4 46/1/4 18/1/4 17/1/4
f 36/2/6 35/3/6 23/3/6 27/2/6
f 43/15/7 44/9/7 19/9/7 32/8/7
f 37/4/7 40/5/7 28/5/7 26/4/7
f 39/1/1 38/1/1 22/1/1 21/1/1
f 8/1/2 14/1/2 9/1/2 3/1/2
f 12/1/2 16/1/2 7/1/2 4/1/2
f 2/1/2 6/1/2 15/1/2 11/1/2
f 10/1/2 13/1/2 5/1/2 1/1/2
f 14/2/6 8/3/6 35/3/6 36/2/6
f 7/4/7 16/5/7 40/5/7 37/4/7
f 15/8/7 6/9/7 44/9/7 43/15/7
f 11/13/5 15/8/5 43/15/5 41/13/5
f 5/6/6 13/7/6 48/14/6 45/6/6
f 13/7/5 10/10/5 47/10/5 48/14/5
usemtl Material.104
f 14/2/2 8/3/2 7/4/2 16/5/2
f 5/6/2 13/7/2 15/8/2 6/9/2
f 10/10/2 9/11/2 14/2/2 13/7/2
f 15/8/2 16/5/2 12/12/2 11/13/2
f 1/1/8 46/1/8 49/1/8
f 8/1/3 3/1/3 34/1/3 35/1/3
f 12/1/9 4/1/9 51/1/9
f 4/1/3 7/1/3 37/1/3 38/1/3
f 42/1/10 2/1/10 52/1/10
f 47/10/11 10/10/11 49/10/11
f 9/1/12 33/1/12 50/1/12
f 3/1/13 9/1/13 50/1/13
f 34/1/14 3/1/14 50/1/14
f 10/1/15 1/1/15 49/1/15
f 2/1/16 11/1/16 52/1/16
f 39/1/17 12/1/17 51/1/17
f 11/13/18 41/13/18 52/13/18
f 4/1/19 38/1/19 51/1/19
